<?xml version="1.0" standalone="no"?>
<!DOCTYPE svg PUBLIC "-//W3C//DTD SVG 20010904//EN"
 "http://www.w3.org/TR/2001/REC-SVG-20010904/DTD/svg10.dtd">
<svg version="1.0" xmlns="http://www.w3.org/2000/svg"
 width="626.000000pt" height="626.000000pt" viewBox="0 0 626.000000 626.000000"
 preserveAspectRatio="xMidYMid meet">
<metadata>
Created by potrace 1.14, written by Peter Selinger 2001-2017
</metadata>
<g transform="translate(0.000000,626.000000) scale(0.100000,-0.100000)"
fill="#000000" stroke="none">
<path d="M2925 5830 c-112 -18 -237 -68 -335 -133 -63 -42 -2052 -2028 -2106
-2104 -100 -139 -148 -287 -148 -463 0 -176 48 -324 148 -463 70 -97 2048
-2067 2124 -2115 124 -79 297 -132 432 -132 74 0 215 28 299 59 42 16 110 39
151 51 92 28 157 59 235 115 74 53 2011 1992 2052 2055 144 216 178 474 94
717 -61 178 -32 146 -1120 1235 -1025 1025 -1048 1047 -1183 1106 -97 42 -182
60 -323 66 -44 2 -120 7 -170 9 -49 3 -117 2 -150 -3z m796 -1777 c293 -83
527 -315 611 -609 32 -112 32 -319 0 -449 -58 -232 -206 -426 -404 -531 -169
-88 -270 -104 -680 -104 l-308 0 0 49 0 49 348 5 c321 3 353 5 420 26 284 84
482 304 538 599 72 377 -149 735 -531 863 l-70 24 -692 3 -693 3 0 -1313 0
-1312 -50 49 -50 49 0 1314 0 1313 743 -3 c724 -3 744 -4 818 -25z m-26 -202
c260 -85 445 -319 462 -581 20 -313 -178 -599 -477 -687 -44 -13 -121 -17
-397 -20 l-343 -5 0 50 0 50 338 4 c312 4 342 6 403 26 314 104 470 482 321
782 -40 81 -158 200 -242 244 -121 64 -141 66 -752 66 l-548 0 0 -1312 0
-1312 -50 49 -50 49 0 1314 0 1313 633 -3 c629 -3 632 -4 702 -27z m-105 -181
c84 -16 156 -54 224 -120 154 -148 189 -347 95 -546 -35 -75 -127 -166 -203
-199 -86 -38 -159 -45 -473 -45 l-293 0 0 49 0 49 328 4 c387 5 392 6 488 102
78 78 99 134 99 261 0 71 -5 100 -22 137 -25 54 -92 131 -144 164 -82 52 -108
54 -586 54 l-443 0 0 -1312 0 -1312 -50 49 -50 49 0 1313 0 1313 489 0 c286 0
510 -4 541 -10z m-6 -204 c62 -19 109 -56 143 -114 52 -88 33 -259 -35 -325
-61 -59 -78 -61 -429 -65 l-323 -4 0 51 0 50 314 3 c300 3 316 4 343 24 83 61
83 207 0 268 -27 20 -43 21 -383 24 l-354 3 0 -1261 c0 -816 -3 -1260 -10
-1260 -5 0 -28 7 -50 16 l-40 16 0 1294 0 1294 388 0 c307 0 399 -3 436 -14z"/>
</g>
</svg>
