<svg width="119" height="41" viewBox="0 0 119 41" fill="none" xmlns="http://www.w3.org/2000/svg">
<path fill-rule="evenodd" clip-rule="evenodd" d="M18.4518 0.385254C16.1777 1.42654 9.42528 2.93871 1.0022 0.657152L1.0171 14.19C1.8967 14.0179 2.86004 13.905 3.69955 13.8398C3.72574 14.3032 3.78308 14.7583 3.86949 15.203C3.99175 15.8321 4.17222 16.4405 4.40507 17.0222C4.48494 17.2218 4.57097 17.4182 4.66292 17.6112C5.75941 19.913 7.69861 21.7359 10.0815 22.6811C9.50433 24.4233 9.21545 25.488 9.12611 25.959C11.4002 24.9177 18.1526 23.4056 26.5757 25.6871L26.5608 12.1543C25.6958 12.3235 24.7465 12.4355 23.9201 12.5012C23.84 11.4181 23.5897 10.3823 23.1957 9.4205C23.1137 9.22032 23.0255 9.02334 22.9313 8.82982C21.8324 6.57253 19.9199 4.78436 17.5752 3.84694C17.5341 3.8305 17.4929 3.81432 17.4515 3.79841C18.0587 1.97588 18.3602 0.868387 18.4518 0.385254ZM4.28268 13.699C4.33613 14.8767 4.60303 15.9987 5.0456 17.0273C5.61124 17.0413 6.18722 17.0804 6.77082 17.1454C6.60959 16.0919 6.60173 14.9478 6.76056 13.7648C5.96093 13.7021 5.12819 13.6749 4.28268 13.699ZM7.34827 13.8177C7.1843 15.0208 7.20154 16.1758 7.38048 17.2224C7.96319 17.3045 8.55246 17.4122 9.14568 17.546C9.24987 16.5129 9.46268 15.3729 9.78391 14.1771C9.03761 14.0328 8.21645 13.9058 7.34827 13.8177ZM11.3707 9.8082C10.5774 9.3576 9.88722 8.88652 9.30166 8.43142C9.91473 7.454 10.6255 6.61446 11.3879 5.94162C11.9047 6.26745 12.4448 6.57682 13.0063 6.8673C12.4361 7.71601 11.8807 8.70849 11.3707 9.8082ZM10.3626 14.2953C10.0348 15.5086 9.82284 16.657 9.72441 17.6845C10.3788 17.8503 11.037 18.0478 11.6954 18.278L12.8933 14.9868C12.3005 14.7797 11.4251 14.5245 10.3626 14.2953ZM14.2908 11.1473C13.4139 10.8323 12.6131 10.4725 11.8891 10.0917C12.4051 8.97449 12.9665 7.97546 13.5379 7.13348C14.1528 7.43137 14.7915 7.70677 15.452 7.95673L14.2908 11.1473ZM13.4258 15.2474L12.2494 18.4795C12.8939 18.7229 13.5178 18.9905 14.1189 19.2796C14.6979 18.4376 15.2678 17.4333 15.7919 16.3073C15.0791 15.9265 14.29 15.5654 13.4258 15.2474ZM17.3389 12.0753C16.3022 11.8567 15.4356 11.6113 14.8242 11.4053L16.0059 8.15855C16.6643 8.38925 17.3224 8.58731 17.9768 8.75356C17.8732 9.76476 17.6612 10.8894 17.3389 12.0753ZM16.3086 16.5941C15.7915 17.7003 15.2288 18.6964 14.6519 19.5446C15.2112 19.8318 15.7494 20.1377 16.2646 20.46C17.0398 19.8033 17.7654 18.9753 18.3943 18.0055C17.8086 17.5414 17.1128 17.0578 16.3086 16.5941ZM20.4387 12.5469C19.5415 12.4632 18.6914 12.3368 17.9183 12.191C18.2338 11.0229 18.4461 9.90759 18.555 8.89243C19.1918 9.03655 19.824 9.15055 20.4485 9.23519C20.6034 10.2592 20.606 11.3813 20.4387 12.5469ZM18.852 18.3828C18.2385 19.3184 17.5359 20.1306 16.7807 20.7934C17.2512 21.1072 17.7009 21.4347 18.1282 21.7741C19.0018 21.3307 19.798 20.757 20.4911 20.0784C20.4861 20.0828 20.481 20.0872 20.476 20.0915C20.1944 19.6842 19.6512 19.0685 18.852 18.3828ZM23.339 12.644C22.5522 12.6681 21.7762 12.6475 21.0273 12.5951C21.1887 11.4487 21.1938 10.3375 21.0546 9.30841C21.5599 9.36199 22.0593 9.39618 22.5511 9.4114C22.9919 10.4107 23.2662 11.4999 23.339 12.644ZM8.84 8.05838C8.06265 7.40497 7.5133 6.80812 7.19679 6.38446C7.90609 5.70138 8.72083 5.12705 9.61421 4.68828C10.0157 5.006 10.4368 5.31331 10.8763 5.60858C10.1311 6.28722 9.44032 7.11241 8.84 8.05838ZM16.773 4.32723C16.5624 4.3303 16.2986 4.40343 15.9725 4.5887C15.4818 4.86752 14.9226 5.36289 14.3356 6.0676C14.185 6.24837 14.034 6.44123 13.8832 6.64547C14.4525 6.91822 15.0433 7.17149 15.6537 7.40272L16.773 4.32723ZM9.67921 18.2814C9.66734 18.4986 9.66104 18.7093 9.66031 18.9128C9.65703 19.83 9.76696 20.5689 9.96366 21.0979C10.0942 21.4489 10.2489 21.6743 10.4081 21.8122L10.4089 21.8125L11.4937 18.8321C10.8871 18.6202 10.2813 18.4369 9.67921 18.2814ZM10.9663 22.0048L12.0478 19.0335C12.6409 19.2577 13.2155 19.5027 13.7699 19.7662C13.6386 19.9414 13.5072 20.1079 13.3761 20.2653C12.7891 20.97 12.2299 21.4653 11.7392 21.7442C11.4272 21.9214 11.1723 21.996 10.9663 22.0048ZM16.2076 7.60454L17.3235 4.53846C17.4756 4.67761 17.623 4.89862 17.748 5.23494C17.9447 5.76395 18.0546 6.50286 18.0514 7.42004C18.0505 7.65659 18.0421 7.90279 18.0262 8.15766C17.4228 8.00149 16.8156 7.81739 16.2076 7.60454ZM20.3355 8.62407C19.7657 8.54139 19.1888 8.43354 18.6076 8.29979C18.7012 6.95649 18.5977 5.82168 18.2969 5.01961C19.2176 5.75658 19.8972 6.89732 20.2638 8.32288C20.2893 8.42207 20.3132 8.52248 20.3355 8.62407ZM12.1193 5.35853C13.2846 4.52489 14.5036 4.08863 15.6551 4.09117C14.9199 4.51684 14.1254 5.3099 13.3471 6.37969C12.8346 6.11694 12.3409 5.83832 11.8672 5.54582C11.9508 5.48141 12.0348 5.41896 12.1193 5.35853ZM7.50704 17.8366C8.03199 17.916 8.56266 18.0168 9.09701 18.1394C9.02233 19.3366 9.10674 20.3627 9.35054 21.1276C8.50694 20.3895 7.88186 19.2975 7.53578 17.9517C7.52597 17.9135 7.51639 17.8751 7.50704 17.8366ZM15.6803 20.916C14.5182 21.7473 13.3026 22.1835 12.154 22.1834C12.8437 21.7568 13.582 21.0148 14.3078 20.0307C14.8147 20.2886 15.3034 20.562 15.7727 20.8489C15.7419 20.8716 15.7111 20.8939 15.6803 20.916ZM20.9544 8.70431C21.3949 8.75461 21.8305 8.78974 22.2602 8.81005C21.656 7.66572 20.8261 6.65904 19.8297 5.84931C20.3615 6.65316 20.7416 7.62485 20.9544 8.70431ZM14.1174 3.72072C14.0172 3.71761 13.9166 3.71604 13.8156 3.71604C12.5448 3.71604 11.3321 3.96442 10.2233 4.41527C10.5806 4.68871 10.9535 4.95399 11.3411 5.2099C12.2226 4.49936 13.1663 3.98987 14.1174 3.72072ZM6.88272 17.7518C6.35731 17.6887 5.83854 17.647 5.32852 17.6264C6.10172 19.1259 7.26067 20.3941 8.67417 21.2998C7.80292 20.4134 7.19336 19.1826 6.88272 17.7518ZM16.3051 21.1857C15.1725 22.0617 13.944 22.6073 12.7331 22.7411C13.0884 22.7812 13.4496 22.8018 13.8156 22.8018C15.1322 22.8018 16.3866 22.5352 17.5277 22.0529C17.1384 21.7537 16.7305 21.4641 16.3051 21.1857Z" fill="#C4161C"/>
<path d="M102.005 23.8972V2.43665H110.472C112.092 2.43665 113.476 2.72656 114.621 3.30638C115.774 3.87922 116.651 4.69307 117.252 5.74794C117.859 6.79581 118.163 8.02881 118.163 9.44694C118.163 10.8721 117.856 12.0981 117.241 13.125C116.626 14.1449 115.736 14.9273 114.569 15.4722C113.409 16.0171 112.005 16.2896 110.356 16.2896H104.687V12.643H109.623C110.489 12.643 111.209 12.5242 111.782 12.2867C112.354 12.0492 112.781 11.6929 113.06 11.2178C113.346 10.7428 113.49 10.1525 113.49 9.44694C113.49 8.73438 113.346 8.1336 113.06 7.64459C112.781 7.15558 112.351 6.78533 111.771 6.53384C111.198 6.27537 110.475 6.14613 109.602 6.14613H106.542V23.8972H102.005ZM113.594 14.1309L118.928 23.8972H113.919L108.701 14.1309H113.594Z" fill="#C4161C"/>
<path d="M94.3109 8.60859C94.227 7.7633 93.8673 7.10663 93.2315 6.63858C92.5958 6.17053 91.7331 5.9365 90.6433 5.9365C89.9028 5.9365 89.2776 6.04129 88.7676 6.25086C88.2576 6.45345 87.8664 6.73638 87.594 7.09964C87.3285 7.46291 87.1958 7.87507 87.1958 8.33614C87.1818 8.72036 87.2621 9.05568 87.4368 9.3421C87.6184 9.62852 87.8664 9.87652 88.1808 10.0861C88.4951 10.2887 88.8584 10.4668 89.2706 10.6205C89.6827 10.7672 90.1229 10.893 90.5909 10.9977L92.519 11.4588C93.4551 11.6684 94.3144 11.9478 95.0968 12.2971C95.8792 12.6464 96.5568 13.076 97.1296 13.586C97.7025 14.096 98.1461 14.6967 98.4605 15.3883C98.7818 16.0799 98.946 16.8728 98.953 17.767C98.946 19.0804 98.6106 20.2191 97.947 21.1831C97.2903 22.1402 96.3402 22.8842 95.0968 23.4151C93.8603 23.939 92.3688 24.201 90.6223 24.201C88.8898 24.201 87.3809 23.9355 86.0955 23.4046C84.8171 22.8737 83.8181 22.0878 83.0986 21.0469C82.386 19.999 82.0123 18.7031 81.9774 17.1593H86.368C86.4169 17.8788 86.6229 18.4796 86.9862 18.9616C87.3565 19.4366 87.849 19.7964 88.4637 20.0409C89.0854 20.2784 89.7875 20.3972 90.5699 20.3972C91.3384 20.3972 92.0055 20.2854 92.5714 20.0619C93.1442 19.8383 93.5878 19.5275 93.9022 19.1293C94.2166 18.7311 94.3737 18.2735 94.3737 17.7565C94.3737 17.2745 94.2305 16.8693 93.9441 16.541C93.6647 16.2127 93.2525 15.9332 92.7076 15.7027C92.1697 15.4722 91.5095 15.2626 90.7271 15.074L88.3904 14.4872C86.581 14.0471 85.1524 13.359 84.1045 12.4229C83.0567 11.4868 82.5362 10.2258 82.5432 8.64002C82.5362 7.34065 82.882 6.20546 83.5806 5.23442C84.2862 4.26339 85.2537 3.50543 86.4832 2.96053C87.7127 2.41564 89.1099 2.14319 90.6747 2.14319C92.2675 2.14319 93.6577 2.41564 94.8453 2.96053C96.0399 3.50543 96.969 4.26339 97.6326 5.23442C98.2963 6.20546 98.6386 7.33018 98.6595 8.60859H94.3109Z" fill="#C4161C"/>
<path d="M79.4153 9.94987H74.8256C74.7418 9.35607 74.5706 8.82864 74.3121 8.36757C74.0537 7.89952 73.7218 7.50133 73.3167 7.17299C72.9115 6.84466 72.4434 6.59317 71.9125 6.41852C71.3886 6.24388 70.8192 6.15656 70.2045 6.15656C69.0937 6.15656 68.1262 6.4325 67.3018 6.98438C66.4775 7.52927 65.8383 8.32566 65.3842 9.37354C64.9302 10.4144 64.7031 11.6789 64.7031 13.1668C64.7031 14.6967 64.9302 15.9821 65.3842 17.023C65.8453 18.0639 66.488 18.8498 67.3123 19.3808C68.1367 19.9117 69.0902 20.1771 70.173 20.1771C70.7808 20.1771 71.3432 20.0968 71.8601 19.9361C72.384 19.7755 72.8486 19.5414 73.2538 19.2341C73.659 18.9197 73.9943 18.539 74.2597 18.0919C74.5322 17.6448 74.7208 17.1348 74.8256 16.562L79.4153 16.5829C79.2965 17.5679 78.9996 18.518 78.5246 19.4331C78.0566 20.3413 77.4243 21.1552 76.6279 21.8747C75.8385 22.5873 74.8955 23.1531 73.7987 23.5723C72.7089 23.9844 71.4759 24.1905 70.0997 24.1905C68.1856 24.1905 66.474 23.7574 64.9651 22.8911C63.4631 22.0249 62.2755 20.7709 61.4023 19.1293C60.5361 17.4876 60.1029 15.5001 60.1029 13.1668C60.1029 10.8266 60.543 8.83563 61.4233 7.19395C62.3035 5.55228 63.4981 4.30181 65.007 3.44256C66.5159 2.57631 68.2135 2.14319 70.0997 2.14319C71.3432 2.14319 72.4958 2.31783 73.5577 2.66713C74.6265 3.01642 75.5731 3.52639 76.3974 4.19703C77.2217 4.86068 77.8924 5.67453 78.4093 6.63858C78.9333 7.60262 79.2686 8.70639 79.4153 9.94987Z" fill="#C4161C"/>
<path d="M56.7471 2.43665V23.8972H52.2098V2.43665H56.7471Z" fill="#C4161C"/>
<path d="M44.5158 8.60859C44.432 7.7633 44.0722 7.10663 43.4365 6.63858C42.8008 6.17053 41.938 5.9365 40.8482 5.9365C40.1077 5.9365 39.4825 6.04129 38.9725 6.25086C38.4626 6.45345 38.0713 6.73638 37.7989 7.09964C37.5334 7.46291 37.4007 7.87507 37.4007 8.33614C37.3867 8.72036 37.4671 9.05568 37.6417 9.3421C37.8233 9.62852 38.0713 9.87652 38.3857 10.0861C38.7001 10.2887 39.0633 10.4668 39.4755 10.6205C39.8877 10.7672 40.3278 10.893 40.7958 10.9977L42.7239 11.4588C43.66 11.6684 44.5193 11.9478 45.3017 12.2971C46.0841 12.6464 46.7617 13.076 47.3346 13.586C47.9074 14.096 48.351 14.6967 48.6654 15.3883C48.9867 16.0799 49.1509 16.8728 49.1579 17.767C49.1509 19.0804 48.8156 20.2191 48.1519 21.1831C47.4952 22.1402 46.5452 22.8842 45.3017 23.4151C44.0652 23.939 42.5737 24.201 40.8273 24.201C39.0948 24.201 37.5858 23.9355 36.3004 23.4046C35.022 22.8737 34.0231 22.0878 33.3035 21.0469C32.591 19.999 32.2172 18.7031 32.1823 17.1593H36.5729C36.6218 17.8788 36.8279 18.4796 37.1911 18.9616C37.5614 19.4366 38.0539 19.7964 38.6686 20.0409C39.2904 20.2784 39.9925 20.3972 40.7749 20.3972C41.5433 20.3972 42.2105 20.2854 42.7763 20.0619C43.3492 19.8383 43.7928 19.5275 44.1071 19.1293C44.4215 18.7311 44.5787 18.2735 44.5787 17.7565C44.5787 17.2745 44.4355 16.8693 44.149 16.541C43.8696 16.2127 43.4574 15.9332 42.9125 15.7027C42.3746 15.4722 41.7145 15.2626 40.932 15.074L38.5953 14.4872C36.786 14.0471 35.3573 13.359 34.3095 12.4229C33.2616 11.4868 32.7411 10.2258 32.7481 8.64002C32.7411 7.34065 33.0869 6.20546 33.7855 5.23442C34.4911 4.26339 35.4586 3.50543 36.6882 2.96053C37.9177 2.41564 39.3148 2.14319 40.8797 2.14319C42.4724 2.14319 43.8626 2.41564 45.0502 2.96053C46.2448 3.50543 47.1739 4.26339 47.8376 5.23442C48.5012 6.20546 48.8435 7.33018 48.8645 8.60859H44.5158Z" fill="#C4161C"/>
<path d="M118.567 35.6788V40.6147H117.665L115.518 37.5081H115.482V40.6147H114.438V35.6788H115.354L117.485 38.7831H117.528V35.6788H118.567Z" fill="#2C3135"/>
<path d="M113.665 38.1468C113.665 38.685 113.563 39.143 113.359 39.5205C113.157 39.8981 112.88 40.1865 112.53 40.3858C112.181 40.5834 111.789 40.6822 111.354 40.6822C110.915 40.6822 110.522 40.5826 110.173 40.3834C109.824 40.1841 109.549 39.8957 109.346 39.5181C109.144 39.1405 109.043 38.6834 109.043 38.1468C109.043 37.6085 109.144 37.1506 109.346 36.773C109.549 36.3954 109.824 36.1078 110.173 35.9102C110.522 35.7109 110.915 35.6113 111.354 35.6113C111.789 35.6113 112.181 35.7109 112.53 35.9102C112.88 36.1078 113.157 36.3954 113.359 36.773C113.563 37.1506 113.665 37.6085 113.665 38.1468ZM112.607 38.1468C112.607 37.7981 112.555 37.5041 112.451 37.2647C112.348 37.0253 112.202 36.8437 112.014 36.72C111.826 36.5963 111.606 36.5344 111.354 36.5344C111.102 36.5344 110.882 36.5963 110.694 36.72C110.506 36.8437 110.359 37.0253 110.255 37.2647C110.152 37.5041 110.101 37.7981 110.101 38.1468C110.101 38.4954 110.152 38.7895 110.255 39.0289C110.359 39.2683 110.506 39.4498 110.694 39.5736C110.882 39.6973 111.102 39.7591 111.354 39.7591C111.606 39.7591 111.826 39.6973 112.014 39.5736C112.202 39.4498 112.348 39.2683 112.451 39.0289C112.555 38.7895 112.607 38.4954 112.607 38.1468Z" fill="#2C3135"/>
<path d="M108.271 35.6788V40.6147H107.227V35.6788H108.271Z" fill="#2C3135"/>
<path d="M102.506 36.5392V35.6788H106.56V36.5392H105.048V40.6147H104.017V36.5392H102.506Z" fill="#2C3135"/>
<path d="M99.0707 40.6147H97.9525L99.6564 35.6788H101.001L102.703 40.6147H101.584L100.348 36.8068H100.31L99.0707 40.6147ZM99.0009 38.6746H101.642V39.4892H99.0009V38.6746Z" fill="#2C3135"/>
<path d="M94.1017 36.5392V35.6788H98.1555V36.5392H96.6444V40.6147H95.6128V36.5392H94.1017Z" fill="#2C3135"/>
<path d="M93.4275 35.6788V40.6147H92.5261L90.3787 37.5081H90.3425V40.6147H89.299V35.6788H90.2148L92.3453 38.7831H92.3887V35.6788H93.4275Z" fill="#2C3135"/>
<path d="M85.1433 40.6147V35.6788H88.4693V36.5392H86.1869V37.7154H88.2982V38.5758H86.1869V39.7543H88.4789V40.6147H85.1433Z" fill="#2C3135"/>
<path d="M78.933 35.6788H80.22L81.5793 38.9952H81.6372L82.9965 35.6788H84.2835V40.6147H83.2712V37.4021H83.2302L81.9529 40.5906H81.2636L79.9862 37.39H79.9453V40.6147H78.933V35.6788Z" fill="#2C3135"/>
<path d="M77.0309 35.6788H78.0744V38.8843C78.0744 39.2442 77.9885 39.5591 77.8165 39.8291C77.6462 40.099 77.4076 40.3095 77.1007 40.4605C76.7939 40.6099 76.4364 40.6846 76.0282 40.6846C75.6185 40.6846 75.2602 40.6099 74.9533 40.4605C74.6464 40.3095 74.4078 40.099 74.2375 39.8291C74.0672 39.5591 73.9821 39.2442 73.9821 38.8843V35.6788H75.0256V38.7951C75.0256 38.9831 75.0666 39.1502 75.1486 39.2964C75.2321 39.4426 75.3494 39.5575 75.5004 39.6411C75.6515 39.7246 75.8274 39.7664 76.0282 39.7664C76.2307 39.7664 76.4066 39.7246 76.5561 39.6411C76.7071 39.5575 76.8236 39.4426 76.9055 39.2964C76.9891 39.1502 77.0309 38.9831 77.0309 38.7951V35.6788Z" fill="#2C3135"/>
<path d="M73.2337 37.4069H72.1781C72.1588 37.2703 72.1194 37.149 72.06 37.0429C72.0005 36.9353 71.9242 36.8437 71.831 36.7682C71.7378 36.6927 71.6302 36.6348 71.5081 36.5947C71.3876 36.5545 71.2566 36.5344 71.1152 36.5344C70.8597 36.5344 70.6372 36.5979 70.4476 36.7248C70.258 36.8501 70.111 37.0333 70.0066 37.2743C69.9021 37.5137 69.8499 37.8045 69.8499 38.1468C69.8499 38.4986 69.9021 38.7943 70.0066 39.0337C70.1126 39.2731 70.2604 39.4539 70.45 39.576C70.6396 39.6981 70.8589 39.7591 71.108 39.7591C71.2478 39.7591 71.3771 39.7407 71.496 39.7037C71.6165 39.6667 71.7234 39.6129 71.8166 39.5422C71.9098 39.4699 71.9869 39.3824 72.0479 39.2795C72.1106 39.1767 72.154 39.0594 72.1781 38.9276L73.2337 38.9325C73.2064 39.159 73.1381 39.3775 73.0289 39.588C72.9212 39.7969 72.7758 39.9841 72.5926 40.1496C72.4111 40.3135 72.1942 40.4436 71.9419 40.54C71.6912 40.6348 71.4076 40.6822 71.0911 40.6822C70.6509 40.6822 70.2572 40.5826 69.9102 40.3834C69.5647 40.1841 69.2916 39.8957 69.0907 39.5181C68.8915 39.1405 68.7919 38.6834 68.7919 38.1468C68.7919 37.6085 68.8931 37.1506 69.0955 36.773C69.298 36.3954 69.5727 36.1078 69.9198 35.9102C70.2669 35.7109 70.6573 35.6113 71.0911 35.6113C71.3771 35.6113 71.6422 35.6515 71.8865 35.7318C72.1323 35.8122 72.35 35.9295 72.5396 36.0837C72.7292 36.2364 72.8834 36.4235 73.0023 36.6453C73.1228 36.867 73.2 37.1209 73.2337 37.4069Z" fill="#2C3135"/>
<path d="M68.1056 38.1468C68.1056 38.685 68.0036 39.143 67.7995 39.5205C67.5971 39.8981 67.3207 40.1865 66.9704 40.3858C66.6218 40.5834 66.2297 40.6822 65.7943 40.6822C65.3557 40.6822 64.962 40.5826 64.6133 40.3834C64.2647 40.1841 63.9891 39.8957 63.7867 39.5181C63.5842 39.1405 63.483 38.6834 63.483 38.1468C63.483 37.6085 63.5842 37.1506 63.7867 36.773C63.9891 36.3954 64.2647 36.1078 64.6133 35.9102C64.962 35.7109 65.3557 35.6113 65.7943 35.6113C66.2297 35.6113 66.6218 35.7109 66.9704 35.9102C67.3207 36.1078 67.5971 36.3954 67.7995 36.773C68.0036 37.1506 68.1056 37.6085 68.1056 38.1468ZM67.0476 38.1468C67.0476 37.7981 66.9953 37.5041 66.8909 37.2647C66.7881 37.0253 66.6427 36.8437 66.4547 36.72C66.2667 36.5963 66.0466 36.5344 65.7943 36.5344C65.542 36.5344 65.3219 36.5963 65.1339 36.72C64.9459 36.8437 64.7997 37.0253 64.6953 37.2647C64.5925 37.5041 64.541 37.7981 64.541 38.1468C64.541 38.4954 64.5925 38.7895 64.6953 39.0289C64.7997 39.2683 64.9459 39.4498 65.1339 39.5736C65.3219 39.6973 65.542 39.7591 65.7943 39.7591C66.0466 39.7591 66.2667 39.6973 66.4547 39.5736C66.6427 39.4498 66.7881 39.2683 66.8909 39.0289C66.9953 38.7895 67.0476 38.4954 67.0476 38.1468Z" fill="#2C3135"/>
<path d="M60.3818 40.6147H58.632V35.6788H60.3962C60.8927 35.6788 61.3201 35.7776 61.6784 35.9753C62.0367 36.1713 62.3123 36.4533 62.5051 36.8212C62.6995 37.1892 62.7967 37.6294 62.7967 38.142C62.7967 38.6561 62.6995 39.098 62.5051 39.4675C62.3123 39.8371 62.0351 40.1207 61.6736 40.3183C61.3137 40.5159 60.8831 40.6147 60.3818 40.6147ZM59.6756 39.7206H60.3384C60.6469 39.7206 60.9064 39.666 61.1168 39.5567C61.3289 39.4458 61.488 39.2747 61.5941 39.0434C61.7017 38.8104 61.7555 38.5099 61.7555 38.142C61.7555 37.7772 61.7017 37.4792 61.5941 37.2478C61.488 37.0164 61.3297 36.8461 61.1193 36.7369C60.9088 36.6276 60.6493 36.573 60.3408 36.573H59.6756V39.7206Z" fill="#2C3135"/>
<path d="M118.57 27.4165V32.3524H117.527V27.4165H118.57Z" fill="#2C3135"/>
<path d="M113.133 32.3524V27.4165H115.08C115.454 27.4165 115.773 27.488 116.037 27.631C116.3 27.7724 116.501 27.9692 116.639 28.2215C116.779 28.4721 116.849 28.7613 116.849 29.0891C116.849 29.4169 116.778 29.7061 116.637 29.9568C116.495 30.2074 116.291 30.4026 116.022 30.5424C115.756 30.6822 115.433 30.7521 115.053 30.7521H113.812V29.9158H114.885C115.086 29.9158 115.251 29.8812 115.381 29.8122C115.513 29.7415 115.611 29.6443 115.675 29.5205C115.741 29.3952 115.774 29.2514 115.774 29.0891C115.774 28.9252 115.741 28.7822 115.675 28.6601C115.611 28.5364 115.513 28.4408 115.381 28.3733C115.249 28.3042 115.082 28.2697 114.88 28.2697H114.176V32.3524H113.133Z" fill="#2C3135"/>
<path d="M108.906 32.3524H107.788L109.492 27.4165H110.837L112.538 32.3524H111.42L110.184 28.5444H110.145L108.906 32.3524ZM108.837 30.4123H111.478V31.2269H108.837V30.4123Z" fill="#2C3135"/>
<path d="M102.329 32.3524V27.4165H105.655V28.2769H103.373V29.4531H105.484V30.3135H103.373V31.492H105.665V32.3524H102.329Z" fill="#2C3135"/>
<path d="M98.4785 32.3524V27.4165H99.5221V31.492H101.638V32.3524H98.4785Z" fill="#2C3135"/>
<path d="M93.9914 32.3524V27.4165H95.9677C96.3309 27.4165 96.6337 27.4703 96.8763 27.578C97.119 27.6856 97.3013 27.8351 97.4234 28.0263C97.5456 28.2159 97.6066 28.4344 97.6066 28.6818C97.6066 28.8746 97.5681 29.0441 97.4909 29.1903C97.4138 29.335 97.3078 29.4539 97.1728 29.547C97.0394 29.6386 96.8868 29.7037 96.7149 29.7423V29.7905C96.9029 29.7985 97.0788 29.8515 97.2427 29.9495C97.4082 30.0475 97.5423 30.1849 97.6452 30.3617C97.748 30.5368 97.7994 30.7457 97.7994 30.9883C97.7994 31.2502 97.7344 31.484 97.6042 31.6896C97.4757 31.8937 97.2853 32.0552 97.033 32.1741C96.7807 32.293 96.4698 32.3524 96.1003 32.3524H93.9914ZM95.035 31.4992H95.8858C96.1766 31.4992 96.3887 31.4438 96.5221 31.3329C96.6554 31.2205 96.7221 31.071 96.7221 30.8847C96.7221 30.7481 96.6892 30.6276 96.6233 30.5231C96.5574 30.4187 96.4634 30.3368 96.3413 30.2773C96.2208 30.2179 96.077 30.1881 95.9099 30.1881H95.035V31.4992ZM95.035 29.482H95.8087C95.9517 29.482 96.0786 29.4571 96.1895 29.4073C96.3019 29.3558 96.3903 29.2835 96.4546 29.1903C96.5205 29.0972 96.5534 28.9855 96.5534 28.8553C96.5534 28.677 96.4899 28.5332 96.363 28.4239C96.2377 28.3147 96.0593 28.26 95.8279 28.26H95.035V29.482Z" fill="#2C3135"/>
<path d="M89.7653 32.3524H88.647L90.351 27.4165H91.6958L93.3973 32.3524H92.279L91.0427 28.5444H91.0041L89.7653 32.3524ZM89.6954 30.4123H92.3369V31.2269H89.6954V30.4123Z" fill="#2C3135"/>
<path d="M84.7962 28.2769V27.4165H88.85V28.2769H87.3389V32.3524H86.3074V28.2769H84.7962Z" fill="#2C3135"/>
<path d="M84.2955 29.4772V30.2918H82.0445V29.4772H84.2955Z" fill="#2C3135"/>
<path d="M77.8527 32.3524V27.4165H81.1787V28.2769H78.8963V29.4531H81.0075V30.3135H78.8963V31.492H81.1883V32.3524H77.8527Z" fill="#2C3135"/>
<path d="M71.6424 27.4165H72.9294L74.2887 30.7328H74.3466L75.7059 27.4165H76.9929V32.3524H75.9806V29.1397H75.9397L74.6623 32.3283H73.973L72.6956 29.1277H72.6547V32.3524H71.6424V27.4165Z" fill="#2C3135"/>
<path d="M70.7838 27.4165V32.3524H69.7403V27.4165H70.7838Z" fill="#2C3135"/>
<path d="M65.0188 28.2769V27.4165H69.0726V28.2769H67.5615V32.3524H66.53V28.2769H65.0188Z" fill="#2C3135"/>
</svg>
