<svg width="118" height="44" viewBox="0 0 118 44" fill="none" xmlns="http://www.w3.org/2000/svg">
<path fill-rule="evenodd" clip-rule="evenodd" d="M17.4496 6C15.1755 7.04128 8.42309 8.55346 0 6.2719L0.0148979 19.8047C0.894506 19.6326 1.85784 19.5198 2.69735 19.4545C2.72354 19.9179 2.78088 20.373 2.86729 20.8177C2.98955 21.4469 3.17002 22.0552 3.40287 22.637C3.48274 22.8365 3.56877 23.0329 3.66073 23.226C4.75721 25.5277 6.69641 27.3507 9.07932 28.2959C8.50213 30.0381 8.21326 31.1027 8.12391 31.5738C10.398 30.5325 17.1504 29.0203 25.5735 31.3019L25.5586 17.7691C24.6936 17.9383 23.7443 18.0503 22.9179 18.116C22.8378 17.0328 22.5875 15.997 22.1935 15.0352C22.1115 14.8351 22.0233 14.6381 21.9291 14.4446C20.8302 12.1873 18.9177 10.3991 16.573 9.46168C16.5319 9.44524 16.4907 9.42907 16.4493 9.41316C17.0565 7.59063 17.358 6.48313 17.4496 6ZM3.28048 19.3138C3.33393 20.4914 3.60083 21.6134 4.0434 22.642C4.60905 22.656 5.18502 22.6952 5.76862 22.7602C5.6074 21.7067 5.59953 20.5625 5.75836 19.3796C4.95873 19.3168 4.12599 19.2896 3.28048 19.3138ZM6.34607 19.4324C6.1821 20.6355 6.19934 21.7905 6.37828 22.8371C6.96099 22.9192 7.55026 23.0269 8.14348 23.1607C8.24768 22.1276 8.46048 20.9877 8.78171 19.7918C8.03542 19.6475 7.21426 19.5205 6.34607 19.4324ZM10.3685 15.4229C9.5752 14.9723 8.88503 14.5013 8.29946 14.0462C8.91254 13.0687 9.62329 12.2292 10.3857 11.5564C10.9025 11.8822 11.4426 12.1916 12.0041 12.482C11.4339 13.3308 10.8785 14.3232 10.3685 15.4229ZM9.36038 19.9101C9.03263 21.1233 8.82064 22.2717 8.72221 23.2993C9.37662 23.465 10.0348 23.6626 10.6932 23.8928L11.8911 20.6016C11.2983 20.3945 10.4229 20.1392 9.36038 19.9101ZM13.2886 16.762C12.4117 16.447 11.6109 16.0873 10.8869 15.7064C11.4029 14.5892 11.9643 13.5902 12.5357 12.7482C13.1506 13.0461 13.7893 13.3215 14.4498 13.5715L13.2886 16.762ZM12.4236 20.8621L11.2472 24.0942C11.8917 24.3376 12.5156 24.6053 13.1167 24.8944C13.6957 24.0523 14.2656 23.0481 14.7898 21.922C14.0769 21.5412 13.2878 21.1802 12.4236 20.8621ZM16.3367 17.69C15.3 17.4715 14.4334 17.2261 13.822 17.0201L15.0037 13.7733C15.6621 14.004 16.3202 14.2021 16.9746 14.3683C16.871 15.3795 16.659 16.5042 16.3367 17.69ZM15.3064 22.2089C14.7893 23.3151 14.2266 24.3111 13.6497 25.1593C14.209 25.4465 14.7472 25.7525 15.2624 26.0748C16.0376 25.4181 16.7632 24.5901 17.3921 23.6203C16.8064 23.1561 16.1106 22.6725 15.3064 22.2089ZM19.4365 18.1617C18.5393 18.078 17.6892 17.9515 16.9161 17.8057C17.2316 16.6376 17.4439 15.5223 17.5528 14.5072C18.1896 14.6513 18.8218 14.7653 19.4463 14.8499C19.6012 15.8739 19.6038 16.9961 19.4365 18.1617ZM17.8498 23.9976C17.2363 24.9331 16.5337 25.7454 15.7785 26.4081C16.249 26.7219 16.6987 27.0495 17.126 27.3888C17.9996 26.9455 18.7958 26.3717 19.4889 25.6931C19.4839 25.6975 19.4788 25.7019 19.4738 25.7063C19.1922 25.2989 18.649 24.6832 17.8498 23.9976ZM22.3368 18.2587C21.55 18.2828 20.774 18.2623 20.0251 18.2098C20.1865 17.0634 20.1916 15.9522 20.0524 14.9232C20.5577 14.9767 21.0571 15.0109 21.5489 15.0261C21.9897 16.0255 22.264 17.1147 22.3368 18.2587ZM7.8378 13.6731C7.06045 13.0197 6.5111 12.4229 6.1946 11.9992C6.90389 11.3161 7.71864 10.7418 8.61201 10.303C9.0135 10.6207 9.4346 10.9281 9.87408 11.2233C9.12889 11.902 8.43812 12.7272 7.8378 13.6731ZM15.7709 9.94198C15.5602 9.94505 15.2964 10.0182 14.9703 10.2034C14.4796 10.4823 13.9204 10.9776 13.3334 11.6824C13.1828 11.8631 13.0318 12.056 12.881 12.2602C13.4503 12.533 14.0411 12.7862 14.6515 13.0175L15.7709 9.94198ZM8.67702 23.8962C8.66514 24.1134 8.65885 24.324 8.65812 24.5276C8.65483 25.4447 8.76476 26.1836 8.96146 26.7127C9.09196 27.0637 9.24674 27.2891 9.4059 27.4269L9.40673 27.4273L10.4915 24.4468C9.88489 24.2349 9.2791 24.0516 8.67702 23.8962ZM9.9641 27.6196L11.0456 24.6482C11.6387 24.8724 12.2133 25.1174 12.7677 25.3809C12.6364 25.5561 12.505 25.7226 12.3739 25.88C11.7869 26.5847 11.2277 27.0801 10.737 27.3589C10.425 27.5362 10.1701 27.6108 9.9641 27.6196ZM15.2054 13.2193L16.3213 10.1532C16.4734 10.2924 16.6208 10.5134 16.7458 10.8497C16.9425 11.3787 17.0524 12.1176 17.0492 13.0348C17.0483 13.2713 17.04 13.5175 17.024 13.7724C16.4206 13.6162 15.8134 13.4321 15.2054 13.2193ZM19.3333 14.2388C18.7635 14.1561 18.1866 14.0483 17.6055 13.9145C17.699 12.5712 17.5955 11.4364 17.2947 10.6344C18.2154 11.3713 18.895 12.5121 19.2616 13.9376C19.2871 14.0368 19.311 14.1372 19.3333 14.2388ZM11.1171 10.9733C12.2824 10.1396 13.5014 9.70337 14.6529 9.70592C13.9177 10.1316 13.1232 10.9246 12.3449 11.9944C11.8324 11.7317 11.3387 11.4531 10.865 11.1606C10.9486 11.0962 11.0326 11.0337 11.1171 10.9733ZM6.50484 23.4513C7.0298 23.5308 7.56046 23.6315 8.09481 23.7542C8.02014 24.9513 8.10454 25.9774 8.34834 26.7423C7.50474 26.0043 6.87966 24.9123 6.53359 23.5664C6.52377 23.5282 6.51419 23.4899 6.50484 23.4513ZM14.6781 26.5307C13.516 27.3621 12.3004 27.7982 11.1518 27.7981C11.8415 27.3716 12.5798 26.6296 13.3056 25.6454C13.8125 25.9033 14.3012 26.1767 14.7705 26.4637C14.7397 26.4863 14.7089 26.5087 14.6781 26.5307ZM19.9522 14.3191C20.3927 14.3694 20.8284 14.4045 21.258 14.4248C20.6538 13.2805 19.8239 12.2738 18.8275 11.4641C19.3593 12.2679 19.7394 13.2396 19.9522 14.3191ZM13.1152 9.33547C13.015 9.33236 12.9144 9.33079 12.8134 9.33079C11.5427 9.33079 10.3299 9.57916 9.2211 10.03C9.57844 10.3035 9.95133 10.5687 10.3389 10.8246C11.2204 10.1141 12.1641 9.60462 13.1152 9.33547ZM5.88052 23.3666C5.35511 23.3034 4.83635 23.2618 4.32632 23.2411C5.09953 24.7406 6.25847 26.0088 7.67198 26.9145C6.80072 26.0282 6.19116 24.7973 5.88052 23.3666ZM15.3029 26.8005C14.1704 27.6764 12.9418 28.222 11.7309 28.3559C12.0862 28.396 12.4474 28.4166 12.8134 28.4166C14.1301 28.4166 15.3844 28.1499 16.5255 27.6677C16.1362 27.3684 15.7283 27.0788 15.3029 26.8005Z" fill="#C4161C"/>
<path d="M101.003 29.5119V8.05139H109.47C111.09 8.05139 112.473 8.3413 113.619 8.92113C114.772 9.49397 115.649 10.3078 116.249 11.3627C116.857 12.4106 117.161 13.6436 117.161 15.0617C117.161 16.4868 116.854 17.7128 116.239 18.7397C115.624 19.7597 114.733 20.5421 113.567 21.087C112.407 21.6319 111.003 21.9043 109.354 21.9043H103.685V18.2577H108.621C109.487 18.2577 110.207 18.1389 110.779 17.9014C111.352 17.6639 111.778 17.3076 112.058 16.8326C112.344 16.3576 112.487 15.7673 112.487 15.0617C112.487 14.3491 112.344 13.7483 112.058 13.2593C111.778 12.7703 111.349 12.4001 110.769 12.1486C110.196 11.8901 109.473 11.7609 108.6 11.7609H105.54V29.5119H101.003ZM112.592 19.7457L117.926 29.5119H112.917L107.699 19.7457H112.592Z" fill="#C4161C"/>
<path d="M93.3087 14.2233C93.2248 13.378 92.8651 12.7214 92.2294 12.2533C91.5936 11.7853 90.7309 11.5512 89.6411 11.5512C88.9006 11.5512 88.2754 11.656 87.7654 11.8656C87.2554 12.0682 86.8642 12.3511 86.5918 12.7144C86.3263 13.0777 86.1936 13.4898 86.1936 13.9509C86.1796 14.3351 86.2599 14.6704 86.4346 14.9568C86.6162 15.2433 86.8642 15.4913 87.1786 15.7008C87.4929 15.9034 87.8562 16.0816 88.2684 16.2353C88.6805 16.382 89.1207 16.5077 89.5887 16.6125L91.5168 17.0736C92.4529 17.2831 93.3122 17.5626 94.0946 17.9119C94.877 18.2611 95.5546 18.6908 96.1274 19.2007C96.7003 19.7107 97.1439 20.3115 97.4583 21.0031C97.7796 21.6947 97.9438 22.4876 97.9508 23.3818C97.9438 24.6951 97.6085 25.8338 96.9448 26.7978C96.2881 27.7549 95.3381 28.4989 94.0946 29.0298C92.8581 29.5538 91.3666 29.8157 89.6201 29.8157C87.8876 29.8157 86.3787 29.5503 85.0933 29.0193C83.8149 28.4884 82.8159 27.7025 82.0964 26.6616C81.3838 25.6137 81.0101 24.3179 80.9752 22.774H85.3658C85.4147 23.4935 85.6207 24.0943 85.984 24.5763C86.3543 25.0514 86.8468 25.4112 87.4615 25.6557C88.0833 25.8932 88.7853 26.0119 89.5677 26.0119C90.3362 26.0119 91.0033 25.9002 91.5692 25.6766C92.142 25.4531 92.5856 25.1422 92.9 24.744C93.2144 24.3458 93.3715 23.8882 93.3715 23.3713C93.3715 22.8893 93.2283 22.4841 92.9419 22.1558C92.6625 21.8274 92.2503 21.548 91.7054 21.3175C91.1675 21.0869 90.5073 20.8773 89.7249 20.6887L87.3882 20.1019C85.5788 19.6618 84.1502 18.9737 83.1023 18.0376C82.0545 17.1015 81.534 15.8406 81.541 14.2548C81.534 12.9554 81.8798 11.8202 82.5784 10.8492C83.284 9.87814 84.2515 9.12017 85.481 8.57528C86.7105 8.03038 88.1077 7.75793 89.6725 7.75793C91.2653 7.75793 92.6555 8.03038 93.8431 8.57528C95.0377 9.12017 95.9668 9.87814 96.6304 10.8492C97.2941 11.8202 97.6364 12.9449 97.6573 14.2233H93.3087Z" fill="#C4161C"/>
<path d="M78.4131 15.5646H73.8234C73.7396 14.9708 73.5684 14.4434 73.3099 13.9823C73.0515 13.5143 72.7196 13.1161 72.3145 12.7877C71.9093 12.4594 71.4412 12.2079 70.9103 12.0333C70.3864 11.8586 69.817 11.7713 69.2023 11.7713C68.0915 11.7713 67.124 12.0472 66.2997 12.5991C65.4753 13.144 64.8361 13.9404 64.382 14.9883C63.928 16.0292 63.7009 17.2936 63.7009 18.7816C63.7009 20.3115 63.928 21.5969 64.382 22.6378C64.8431 23.6787 65.4858 24.4646 66.3101 24.9955C67.1345 25.5264 68.088 25.7919 69.1708 25.7919C69.7786 25.7919 70.341 25.7115 70.8579 25.5509C71.3818 25.3902 71.8464 25.1562 72.2516 24.8488C72.6568 24.5344 72.9921 24.1537 73.2576 23.7066C73.53 23.2595 73.7186 22.7496 73.8234 22.1767L78.4131 22.1977C78.2943 23.1827 77.9974 24.1327 77.5224 25.0479C77.0544 25.9561 76.4221 26.7699 75.6257 27.4894C74.8363 28.202 73.8933 28.7679 72.7965 29.187C71.7067 29.5992 70.4737 29.8053 69.0975 29.8053C67.1834 29.8053 65.4718 29.3721 63.9629 28.5059C62.4609 27.6396 61.2733 26.3857 60.4001 24.744C59.5339 23.1023 59.1007 21.1149 59.1007 18.7816C59.1007 16.4413 59.5408 14.4504 60.4211 12.8087C61.3013 11.167 62.4959 9.91656 64.0048 9.0573C65.5137 8.19106 67.2113 7.75793 69.0975 7.75793C70.341 7.75793 71.4936 7.93258 72.5555 8.28187C73.6243 8.63117 74.5709 9.14113 75.3952 9.81177C76.2195 10.4754 76.8902 11.2893 77.4071 12.2533C77.9311 13.2174 78.2664 14.3211 78.4131 15.5646Z" fill="#C4161C"/>
<path d="M55.7449 8.05139V29.5119H51.2076V8.05139H55.7449Z" fill="#C4161C"/>
<path d="M43.5136 14.2233C43.4298 13.378 43.07 12.7214 42.4343 12.2533C41.7986 11.7853 40.9358 11.5512 39.846 11.5512C39.1055 11.5512 38.4803 11.656 37.9703 11.8656C37.4604 12.0682 37.0692 12.3511 36.7967 12.7144C36.5312 13.0777 36.3985 13.4898 36.3985 13.9509C36.3845 14.3351 36.4649 14.6704 36.6395 14.9568C36.8212 15.2433 37.0691 15.4913 37.3835 15.7008C37.6979 15.9034 38.0611 16.0816 38.4733 16.2353C38.8855 16.382 39.3256 16.5077 39.7936 16.6125L41.7217 17.0736C42.6578 17.2831 43.5171 17.5626 44.2995 17.9119C45.0819 18.2611 45.7595 18.6908 46.3324 19.2007C46.9052 19.7107 47.3488 20.3115 47.6632 21.0031C47.9845 21.6947 48.1487 22.4876 48.1557 23.3818C48.1487 24.6951 47.8134 25.8338 47.1497 26.7978C46.4931 27.7549 45.543 28.4989 44.2995 29.0298C43.063 29.5538 41.5715 29.8157 39.8251 29.8157C38.0926 29.8157 36.5836 29.5503 35.2982 29.0193C34.0198 28.4884 33.0209 27.7025 32.3013 26.6616C31.5888 25.6137 31.215 24.3179 31.1801 22.774H35.5707C35.6196 23.4935 35.8257 24.0943 36.1889 24.5763C36.5592 25.0514 37.0517 25.4112 37.6664 25.6557C38.2882 25.8932 38.9903 26.0119 39.7727 26.0119C40.5411 26.0119 41.2083 25.9002 41.7741 25.6766C42.347 25.4531 42.7906 25.1422 43.1049 24.744C43.4193 24.3458 43.5765 23.8882 43.5765 23.3713C43.5765 22.8893 43.4333 22.4841 43.1468 22.1558C42.8674 21.8274 42.4552 21.548 41.9103 21.3175C41.3724 21.0869 40.7123 20.8773 39.9299 20.6887L37.5931 20.1019C35.7838 19.6618 34.3551 18.9737 33.3073 18.0376C32.2594 17.1015 31.739 15.8406 31.7459 14.2548C31.739 12.9554 32.0848 11.8202 32.7833 10.8492C33.4889 9.87814 34.4564 9.12017 35.686 8.57528C36.9155 8.03038 38.3126 7.75793 39.8775 7.75793C41.4702 7.75793 42.8604 8.03038 44.048 8.57528C45.2426 9.12017 46.1717 9.87814 46.8354 10.8492C47.499 11.8202 47.8413 12.9449 47.8623 14.2233H43.5136Z" fill="#C4161C"/>
<path d="M0.243189 37.4614V36.5932H4.33364V37.4614H2.80884V41.5737H1.76799V37.4614H0.243189ZM6.06028 36.5932V41.5737H5.00727V36.5932H6.06028ZM6.92664 36.5932H8.22527L9.59686 39.9395H9.65523L11.0268 36.5932H12.3254V41.5737H11.3041V38.332H11.2627L9.97381 41.5494H9.27828L7.98938 38.3199H7.94804V41.5737H6.92664V36.5932ZM13.193 41.5737V36.5932H16.549V37.4614H14.246V38.6482H16.3764V39.5163H14.246V40.7055H16.5588V41.5737H13.193ZM19.6941 38.6725V39.4945H17.4227V38.6725H19.6941ZM20.1993 37.4614V36.5932H24.2898V37.4614H22.765V41.5737H21.7241V37.4614H20.1993ZM25.2133 41.5737H24.0849L25.8042 36.5932H27.1612L28.8781 41.5737H27.7497L26.5022 37.7313H26.4633L25.2133 41.5737ZM25.1427 39.6161H27.8081V40.438H25.1427V39.6161ZM29.4776 41.5737V36.5932H31.4718C31.8382 36.5932 32.1438 36.6475 32.3886 36.7561C32.6334 36.8648 32.8174 37.0155 32.9406 37.2085C33.0638 37.3998 33.1254 37.6203 33.1254 37.87C33.1254 38.0645 33.0865 38.2356 33.0087 38.3831C32.9309 38.529 32.8239 38.649 32.6877 38.743C32.5531 38.8354 32.3991 38.9011 32.2256 38.94V38.9886C32.4153 38.9967 32.5929 39.0502 32.7582 39.1491C32.9252 39.248 33.0606 39.3866 33.1644 39.565C33.2681 39.7417 33.32 39.9525 33.32 40.1973C33.32 40.4615 33.2543 40.6974 33.123 40.905C32.9933 41.1109 32.8012 41.2738 32.5467 41.3938C32.2921 41.5137 31.9784 41.5737 31.6055 41.5737H29.4776ZM30.5306 40.7128H31.3891C31.6825 40.7128 31.8965 40.6569 32.0311 40.545C32.1657 40.4316 32.2329 40.2808 32.2329 40.0927C32.2329 39.9549 32.1997 39.8333 32.1332 39.7279C32.0668 39.6225 31.9719 39.5399 31.8487 39.4799C31.7271 39.4199 31.582 39.3899 31.4134 39.3899H30.5306V40.7128ZM30.5306 38.6773H31.3112C31.4555 38.6773 31.5836 38.6522 31.6955 38.602C31.809 38.5501 31.8981 38.4771 31.963 38.3831C32.0295 38.2891 32.0627 38.1764 32.0627 38.0451C32.0627 37.8651 31.9987 37.72 31.8706 37.6097C31.7441 37.4995 31.5642 37.4444 31.3307 37.4444H30.5306V38.6773ZM34.0052 41.5737V36.5932H35.0582V40.7055H37.1934V41.5737H34.0052ZM37.8907 41.5737V36.5932H41.2468V37.4614H38.9438V38.6482H41.0741V39.5163H38.9438V40.7055H41.2565V41.5737H37.8907ZM44.5274 41.5737H43.399L45.1183 36.5932H46.4753L48.1922 41.5737H47.0638L45.8163 37.7313H45.7774L44.5274 41.5737ZM44.4569 39.6161H47.1222V40.438H44.4569V39.6161ZM48.7917 41.5737V36.5932H50.7567C51.1344 36.5932 51.4563 36.6654 51.7221 36.8096C51.988 36.9523 52.1907 37.1509 52.3301 37.4055C52.4712 37.6584 52.5417 37.9502 52.5417 38.2809C52.5417 38.6117 52.4704 38.9035 52.3277 39.1564C52.185 39.4093 51.9783 39.6063 51.7075 39.7474C51.4384 39.8884 51.1125 39.959 50.7299 39.959H49.4775V39.1151H50.5597C50.7624 39.1151 50.9293 39.0802 51.0607 39.0105C51.1936 38.9392 51.2925 38.8411 51.3574 38.7163C51.4238 38.5898 51.4571 38.4447 51.4571 38.2809C51.4571 38.1156 51.4238 37.9713 51.3574 37.8481C51.2925 37.7232 51.1936 37.6268 51.0607 37.5587C50.9277 37.489 50.7591 37.4541 50.5548 37.4541H49.8447V41.5737H48.7917ZM54.2787 36.5932V41.5737H53.2257V36.5932H54.2787ZM58.4956 41.5737H56.73V36.5932H58.5102C59.0111 36.5932 59.4424 36.6929 59.8039 36.8923C60.1655 37.0901 60.4435 37.3747 60.6381 37.7459C60.8342 38.1172 60.9323 38.5614 60.9323 39.0786C60.9323 39.5974 60.8342 40.0433 60.6381 40.4161C60.4435 40.789 60.1639 41.0752 59.7991 41.2746C59.4359 41.474 59.0014 41.5737 58.4956 41.5737ZM57.783 40.6715H58.4518C58.7631 40.6715 59.0249 40.6164 59.2373 40.5061C59.4513 40.3943 59.6118 40.2216 59.7188 39.9881C59.8274 39.7531 59.8818 39.4499 59.8818 39.0786C59.8818 38.7106 59.8274 38.4098 59.7188 38.1764C59.6118 37.9429 59.4521 37.7711 59.2397 37.6608C59.0273 37.5506 58.7655 37.4954 58.4542 37.4954H57.783V40.6715ZM66.2892 39.0835C66.2892 39.6266 66.1862 40.0887 65.9803 40.4697C65.7761 40.8506 65.4972 41.1417 65.1438 41.3427C64.792 41.5421 64.3964 41.6418 63.957 41.6418C63.5144 41.6418 63.1172 41.5413 62.7654 41.3403C62.4136 41.1392 62.1355 40.8482 61.9312 40.4672C61.727 40.0862 61.6248 39.625 61.6248 39.0835C61.6248 38.5403 61.727 38.0783 61.9312 37.6973C62.1355 37.3163 62.4136 37.0261 62.7654 36.8267C63.1172 36.6256 63.5144 36.5251 63.957 36.5251C64.3964 36.5251 64.792 36.6256 65.1438 36.8267C65.4972 37.0261 65.7761 37.3163 65.9803 37.6973C66.1862 38.0783 66.2892 38.5403 66.2892 39.0835ZM65.2216 39.0835C65.2216 38.7317 65.1689 38.435 65.0635 38.1934C64.9598 37.9518 64.813 37.7686 64.6233 37.6438C64.4337 37.519 64.2115 37.4565 63.957 37.4565C63.7025 37.4565 63.4803 37.519 63.2907 37.6438C63.101 37.7686 62.9534 37.9518 62.8481 38.1934C62.7443 38.435 62.6924 38.7317 62.6924 39.0835C62.6924 39.4353 62.7443 39.732 62.8481 39.9735C62.9534 40.2151 63.101 40.3983 63.2907 40.5232C63.4803 40.648 63.7025 40.7104 63.957 40.7104C64.2115 40.7104 64.4337 40.648 64.6233 40.5232C64.813 40.3983 64.9598 40.2151 65.0635 39.9735C65.1689 39.732 65.2216 39.4353 65.2216 39.0835ZM71.4636 38.3369H70.3985C70.379 38.1991 70.3393 38.0767 70.2793 37.9697C70.2193 37.861 70.1423 37.7686 70.0483 37.6924C69.9543 37.6162 69.8456 37.5579 69.7224 37.5173C69.6008 37.4768 69.4687 37.4565 69.326 37.4565C69.0682 37.4565 68.8437 37.5206 68.6524 37.6487C68.4611 37.7751 68.3127 37.9599 68.2073 38.2031C68.102 38.4447 68.0493 38.7381 68.0493 39.0835C68.0493 39.4385 68.102 39.7368 68.2073 39.9784C68.3143 40.22 68.4635 40.4024 68.6548 40.5256C68.8461 40.6488 69.0674 40.7104 69.3187 40.7104C69.4598 40.7104 69.5903 40.6918 69.7103 40.6545C69.8318 40.6172 69.9397 40.5629 70.0337 40.4915C70.1277 40.4186 70.2055 40.3302 70.2672 40.2265C70.3304 40.1227 70.3742 40.0043 70.3985 39.8714L71.4636 39.8763C71.4361 40.1049 71.3672 40.3254 71.2569 40.5377C71.1483 40.7485 71.0016 40.9374 70.8168 41.1044C70.6336 41.2697 70.4147 41.4011 70.1602 41.4983C69.9072 41.594 69.6211 41.6418 69.3017 41.6418C68.8575 41.6418 68.4603 41.5413 68.1101 41.3403C67.7615 41.1392 67.4859 40.8482 67.2832 40.4672C67.0822 40.0862 66.9817 39.625 66.9817 39.0835C66.9817 38.5403 67.0838 38.0783 67.2881 37.6973C67.4924 37.3163 67.7696 37.0261 68.1198 36.8267C68.47 36.6256 68.864 36.5251 69.3017 36.5251C69.5903 36.5251 69.8578 36.5656 70.1042 36.6467C70.3523 36.7278 70.572 36.8461 70.7633 37.0018C70.9546 37.1558 71.1102 37.3447 71.2302 37.5684C71.3518 37.7921 71.4296 38.0483 71.4636 38.3369ZM75.2951 36.5932H76.3481V39.8276C76.3481 40.1908 76.2614 40.5086 76.0879 40.7809C75.916 41.0533 75.6753 41.2657 75.3656 41.4181C75.056 41.5689 74.6952 41.6443 74.2834 41.6443C73.87 41.6443 73.5085 41.5689 73.1988 41.4181C72.8891 41.2657 72.6484 41.0533 72.4765 40.7809C72.3047 40.5086 72.2188 40.1908 72.2188 39.8276V36.5932H73.2718V39.7377C73.2718 39.9273 73.3131 40.0959 73.3958 40.2435C73.4801 40.391 73.5984 40.5069 73.7508 40.5912C73.9032 40.6756 74.0808 40.7177 74.2834 40.7177C74.4877 40.7177 74.6652 40.6756 74.816 40.5912C74.9684 40.5069 75.086 40.391 75.1686 40.2435C75.2529 40.0959 75.2951 39.9273 75.2951 39.7377V36.5932ZM77.2145 36.5932H78.5131L79.8847 39.9395H79.9431L81.3146 36.5932H82.6133V41.5737H81.5919V38.332H81.5505L80.2616 41.5494H79.5661L78.2772 38.3199H78.2359V41.5737H77.2145V36.5932ZM83.4809 41.5737V36.5932H86.8369V37.4614H84.5339V38.6482H86.6642V39.5163H84.5339V40.7055H86.8466V41.5737H83.4809ZM91.8399 36.5932V41.5737H90.9304L88.7635 38.439H88.7271V41.5737H87.674V36.5932H88.5982L90.748 39.7255H90.7917V36.5932H91.8399ZM92.5202 37.4614V36.5932H96.6107V37.4614H95.0859V41.5737H94.045V37.4614H92.5202ZM97.5342 41.5737H96.4058L98.1251 36.5932H99.4821L101.199 41.5737H100.071L98.8231 37.7313H98.7842L97.5342 41.5737ZM97.4636 39.6161H100.129V40.438H97.4636V39.6161ZM101 37.4614V36.5932H105.091V37.4614H103.566V41.5737H102.525V37.4614H101ZM106.817 36.5932V41.5737H105.764V36.5932H106.817ZM112.261 39.0835C112.261 39.6266 112.158 40.0887 111.952 40.4697C111.747 40.8506 111.469 41.1417 111.115 41.3427C110.763 41.5421 110.368 41.6418 109.928 41.6418C109.486 41.6418 109.089 41.5413 108.737 41.3403C108.385 41.1392 108.107 40.8482 107.903 40.4672C107.698 40.0862 107.596 39.625 107.596 39.0835C107.596 38.5403 107.698 38.0783 107.903 37.6973C108.107 37.3163 108.385 37.0261 108.737 36.8267C109.089 36.6256 109.486 36.5251 109.928 36.5251C110.368 36.5251 110.763 36.6256 111.115 36.8267C111.469 37.0261 111.747 37.3163 111.952 37.6973C112.158 38.0783 112.261 38.5403 112.261 39.0835ZM111.193 39.0835C111.193 38.7317 111.14 38.435 111.035 38.1934C110.931 37.9518 110.784 37.7686 110.595 37.6438C110.405 37.519 110.183 37.4565 109.928 37.4565C109.674 37.4565 109.452 37.519 109.262 37.6438C109.072 37.7686 108.925 37.9518 108.819 38.1934C108.716 38.435 108.664 38.7317 108.664 39.0835C108.664 39.4353 108.716 39.732 108.819 39.9735C108.925 40.2151 109.072 40.3983 109.262 40.5232C109.452 40.648 109.674 40.7104 109.928 40.7104C110.183 40.7104 110.405 40.648 110.595 40.5232C110.784 40.3983 110.931 40.2151 111.035 39.9735C111.14 39.732 111.193 39.4353 111.193 39.0835ZM117.206 36.5932V41.5737H116.297L114.13 38.439H114.094V41.5737H113.041V36.5932H113.965L116.114 39.7255H116.158V36.5932H117.206Z" fill="#445879"/>
</svg>
