<svg width="117" height="42" viewBox="0 0 117 42" fill="none" xmlns="http://www.w3.org/2000/svg">
<g clip-path="url(#clip0_8_257)">
<path fill-rule="evenodd" clip-rule="evenodd" d="M17.0556 0.816101C14.8328 1.84072 8.23306 3.32869 0.000305176 1.08365L0.0148664 14.3999C0.874599 14.2305 1.81617 14.1195 2.63671 14.0552C2.66231 14.5113 2.71835 14.9591 2.80281 15.3967C2.9223 16.0157 3.0987 16.6143 3.32628 17.1868C3.40435 17.3831 3.48843 17.5764 3.57831 17.7664C4.65003 20.0313 6.5454 21.825 8.87446 22.7551C8.31032 24.4694 8.02797 25.517 7.94064 25.9805C10.1634 24.956 16.7632 23.468 24.996 25.713L24.9814 12.3968C24.1359 12.5633 23.2081 12.6735 22.4003 12.7381C22.3221 11.6723 22.0774 10.6531 21.6923 9.70673C21.6122 9.50975 21.526 9.31593 21.4339 9.12551C20.3599 6.90435 18.4905 5.14479 16.1989 4.22238C16.1587 4.2062 16.1183 4.19028 16.0779 4.17462C16.6714 2.38127 16.966 1.2915 17.0556 0.816101ZM3.20666 13.9168C3.2589 15.0755 3.51977 16.1796 3.95234 17.1918C4.50521 17.2055 5.06816 17.244 5.63858 17.308C5.481 16.2714 5.47331 15.1455 5.62855 13.9815C4.84699 13.9198 4.03306 13.893 3.20666 13.9168ZM6.20298 14.0335C6.04271 15.2173 6.05957 16.3539 6.23446 17.3837C6.804 17.4645 7.37996 17.5705 7.95977 17.7021C8.06161 16.6856 8.26961 15.5639 8.58358 14.3872C7.85415 14.2452 7.05155 14.1202 6.20298 14.0335ZM10.1345 10.0882C9.35914 9.64483 8.68456 9.18129 8.11223 8.73348C8.71145 7.77171 9.40614 6.94561 10.1514 6.28353C10.6565 6.60414 11.1843 6.90856 11.7332 7.19439C11.1758 8.02952 10.633 9.00612 10.1345 10.0882ZM9.14917 14.5035C8.82883 15.6974 8.62164 16.8274 8.52543 17.8385C9.16505 18.0016 9.80836 18.196 10.4518 18.4225L11.6227 15.1839C11.0433 14.9802 10.1876 14.729 9.14917 14.5035ZM12.9886 11.4059C12.1315 11.0959 11.3488 10.7419 10.6412 10.3671C11.1455 9.26786 11.6943 8.28482 12.2528 7.45632C12.8537 7.74944 13.4781 8.02043 14.1236 8.26639L12.9886 11.4059ZM12.1432 15.4403L10.9934 18.6207C11.6234 18.8603 12.2331 19.1235 12.8207 19.4081C13.3866 18.5795 13.9436 17.5913 14.4559 16.4833C13.7591 16.1085 12.9878 15.7533 12.1432 15.4403ZM15.9678 12.3191C14.9546 12.104 14.1076 11.8625 13.51 11.6597L14.665 8.46498C15.3085 8.69198 15.9518 8.88688 16.5914 9.05047C16.4901 10.0455 16.2829 11.1521 15.9678 12.3191ZM14.9609 16.7655C14.4555 17.8541 13.9055 18.8341 13.3416 19.6687C13.8883 19.9513 14.4142 20.2524 14.9178 20.5696C15.6755 19.9234 16.3847 19.1086 16.9994 18.1543C16.427 17.6976 15.7469 17.2218 14.9609 16.7655ZM18.9976 12.7831C18.1208 12.7008 17.2898 12.5763 16.5342 12.4329C16.8426 11.2834 17.0501 10.186 17.1565 9.18711C17.7789 9.32892 18.3969 9.4411 19.0072 9.52439C19.1586 10.532 19.1612 11.6361 18.9976 12.7831ZM17.4468 18.5256C16.8471 19.4462 16.1604 20.2455 15.4223 20.8976C15.8822 21.2064 16.3217 21.5287 16.7393 21.8626C17.5931 21.4264 18.3714 20.8617 19.0489 20.194C19.0439 20.1983 19.039 20.2027 19.0341 20.2069C18.7588 19.8062 18.2279 19.2003 17.4468 18.5256ZM21.8324 12.8786C21.0633 12.9023 20.3049 12.8821 19.5729 12.8305C19.7307 11.7024 19.7356 10.609 19.5995 9.59644C20.0934 9.64916 20.5816 9.6828 21.0623 9.69777C21.4931 10.6811 21.7612 11.7529 21.8324 12.8786ZM7.661 8.36641C6.90122 7.72346 6.36429 7.13617 6.05492 6.71928C6.74819 6.04714 7.54452 5.48199 8.41772 5.05025C8.81013 5.36289 9.22172 5.66528 9.65127 5.95582C8.92291 6.6236 8.24776 7.43559 7.661 8.36641ZM15.4148 4.69499C15.2089 4.69801 14.9511 4.76996 14.6324 4.95227C14.1527 5.22662 13.6062 5.71407 13.0325 6.4075C12.8853 6.58538 12.7376 6.77515 12.5902 6.97611C13.1467 7.24449 13.7241 7.49372 14.3207 7.72124L15.4148 4.69499ZM8.48126 18.4258C8.46964 18.6396 8.4635 18.8468 8.46278 19.0472C8.45957 19.9496 8.56702 20.6766 8.75927 21.1973C8.88682 21.5426 9.03811 21.7644 9.19367 21.9L9.19447 21.9004L10.2547 18.9677C9.66185 18.7591 9.06973 18.5788 8.48126 18.4258ZM9.73924 22.0896L10.7963 19.1658C11.376 19.3865 11.9376 19.6276 12.4796 19.8868C12.3511 20.0592 12.2227 20.223 12.0946 20.3779C11.5209 21.0713 10.9743 21.5588 10.4947 21.8331C10.1897 22.0076 9.94055 22.0809 9.73924 22.0896ZM14.8621 7.91984L15.9528 4.90283C16.1015 5.03975 16.2455 5.25723 16.3678 5.58816C16.5599 6.10871 16.6674 6.83578 16.6643 7.73829C16.6634 7.97105 16.6552 8.21331 16.6396 8.46411C16.0498 8.31044 15.4564 8.12927 14.8621 7.91984ZM18.8968 8.92305C18.3398 8.84169 17.776 8.73556 17.2079 8.60395C17.2993 7.28216 17.1983 6.16551 16.9042 5.37627C17.8042 6.10145 18.4684 7.22394 18.8266 8.62668C18.8516 8.72428 18.875 8.82309 18.8968 8.92305ZM10.8662 5.70977C12.0051 4.88948 13.1967 4.46019 14.322 4.4627C13.6035 4.88155 12.8269 5.66192 12.0662 6.71459C11.5654 6.45605 11.0828 6.18189 10.6198 5.89407C10.7015 5.83069 10.7836 5.76925 10.8662 5.70977ZM6.35816 17.9881C6.87125 18.0663 7.38992 18.1654 7.9122 18.2861C7.83922 19.4641 7.92171 20.4738 8.16 21.2264C7.33546 20.5002 6.72451 19.4257 6.38625 18.1014C6.37667 18.0638 6.36729 18.0261 6.35816 17.9881ZM14.3467 21.0182C13.2109 21.8362 12.0228 22.2654 10.9001 22.2653C11.5742 21.8456 12.2958 21.1155 13.0052 20.1471C13.5006 20.4008 13.9784 20.6699 14.437 20.9522C14.407 20.9745 14.3768 20.9965 14.3467 21.0182ZM19.5017 9.00201C19.9322 9.05149 20.358 9.08606 20.7779 9.10605C20.1874 7.98004 19.3763 6.98947 18.4024 6.1927C18.9222 6.98369 19.2936 7.93982 19.5017 9.00201ZM12.8192 4.09818C12.7213 4.09511 12.6229 4.09358 12.5242 4.09358C11.2822 4.09358 10.0968 4.33798 9.01304 4.78162C9.36231 5.05068 9.72674 5.31171 10.1056 5.56353C10.9671 4.86435 11.8896 4.36302 12.8192 4.09818ZM5.74794 17.9047C5.23441 17.8426 4.72737 17.8016 4.22887 17.7813C4.9846 19.2568 6.11736 20.5047 7.49893 21.3959C6.64735 20.5237 6.05158 19.3125 5.74794 17.9047ZM14.9574 21.2836C13.8505 22.1456 12.6496 22.6824 11.4661 22.8142C11.8133 22.8536 12.1664 22.8739 12.5242 22.8739C13.8111 22.8739 15.0371 22.6115 16.1523 22.137C15.7718 21.8424 15.3732 21.5575 14.9574 21.2836Z" fill="#C4161C"/>
<path d="M43.6776 8.90423C43.5957 8.07247 43.2441 7.42631 42.6227 6.96574C42.0014 6.50518 41.1581 6.27491 40.093 6.27491C39.3692 6.27491 38.7582 6.37801 38.2597 6.58424C37.7612 6.78358 37.3789 7.06199 37.1126 7.41943C36.8531 7.77688 36.7234 8.18245 36.7234 8.63614C36.7097 9.01421 36.7883 9.34416 36.9589 9.626C37.1365 9.90784 37.3789 10.1519 37.6861 10.3581C37.9934 10.5575 38.3484 10.7327 38.7513 10.8839C39.1541 11.0283 39.5843 11.152 40.0418 11.2552L41.9263 11.7088C42.8412 11.9151 43.6811 12.1901 44.4458 12.5337C45.2106 12.8774 45.8728 13.3002 46.4328 13.8019C46.9927 14.3038 47.4262 14.8949 47.7335 15.5755C48.0476 16.2561 48.208 17.0363 48.2149 17.9161C48.208 19.2084 47.8803 20.3289 47.2317 21.2775C46.5898 22.2193 45.6612 22.9514 44.4458 23.4737C43.2372 23.9893 41.7795 24.247 40.0725 24.247C38.3792 24.247 36.9043 23.9859 35.648 23.4635C34.3985 22.941 33.422 22.1677 32.7188 21.1435C32.0223 20.1123 31.657 18.8373 31.6229 17.3181H35.9143C35.9621 18.0261 36.1635 18.6173 36.5185 19.0915C36.8804 19.559 37.3618 19.913 37.9626 20.1536C38.5703 20.3873 39.2565 20.5042 40.0213 20.5042C40.7723 20.5042 41.4244 20.3942 41.9775 20.1743C42.5374 19.9543 42.971 19.6483 43.2783 19.2565C43.5855 18.8647 43.7392 18.4145 43.7392 17.9058C43.7392 17.4314 43.5992 17.0328 43.3192 16.7097C43.0461 16.3866 42.6433 16.1117 42.1107 15.8848C41.5849 15.658 40.9396 15.4518 40.1749 15.2661L37.891 14.6887C36.1225 14.2557 34.7262 13.5786 33.702 12.6574C32.6778 11.7363 32.1691 10.4956 32.176 8.93516C32.1691 7.65658 32.5071 6.53955 33.1899 5.58407C33.8795 4.62857 34.8252 3.88274 36.0269 3.34656C37.2286 2.81039 38.5942 2.5423 40.1237 2.5423C41.6805 2.5423 43.0393 2.81039 44.2 3.34656C45.3676 3.88274 46.2758 4.62857 46.9244 5.58407C47.573 6.53955 47.9076 7.64628 47.9281 8.90423H43.6776ZM55.6326 2.83101V23.9481H51.1978V2.83101H55.6326ZM77.7885 10.224H73.3025C73.2206 9.63975 73.0534 9.12076 72.8007 8.66707C72.5481 8.20651 72.2238 7.8147 71.8277 7.49161C71.4317 7.16853 70.9743 6.92107 70.4553 6.74921C69.9432 6.57737 69.3868 6.49144 68.7859 6.49144C67.7002 6.49144 66.7546 6.76296 65.9489 7.30601C65.1431 7.84218 64.5184 8.62582 64.0746 9.65694C63.6308 10.6812 63.4088 11.9253 63.4088 13.3895C63.4088 14.8949 63.6308 16.1598 64.0746 17.184C64.5252 18.2082 65.1534 18.9816 65.959 19.504C66.7648 20.0265 67.6968 20.2876 68.7551 20.2876C69.3492 20.2876 69.8988 20.2086 70.4041 20.0505C70.9162 19.8924 71.3703 19.6621 71.7663 19.3596C72.1623 19.0503 72.4901 18.6757 72.7495 18.2357C73.0158 17.7958 73.2002 17.294 73.3025 16.7303L77.7885 16.7509C77.6725 17.7201 77.3823 18.655 76.918 19.5555C76.4605 20.4491 75.8426 21.25 75.0642 21.958C74.2927 22.6592 73.3709 23.216 72.2989 23.6284C71.2337 24.034 70.0286 24.2368 68.6834 24.2368C66.8126 24.2368 65.1398 23.8106 63.6649 22.9582C62.1969 22.1058 61.0361 20.8719 60.1826 19.2565C59.3359 17.6412 58.9126 15.6855 58.9126 13.3895C58.9126 11.0867 59.3427 9.12763 60.2031 7.51224C61.0634 5.89683 62.231 4.66637 63.7059 3.82088C65.1807 2.96849 66.8399 2.5423 68.6834 2.5423C69.8988 2.5423 71.0254 2.71415 72.0633 3.05785C73.108 3.40156 74.0332 3.90336 74.8388 4.56327C75.6446 5.21631 76.3 6.01713 76.8053 6.96574C77.3175 7.91437 77.6452 9.00047 77.7885 10.224ZM92.3475 8.90423C92.2656 8.07247 91.914 7.42631 91.2926 6.96574C90.6712 6.50518 89.828 6.27491 88.7629 6.27491C88.0391 6.27491 87.428 6.37801 86.9295 6.58424C86.431 6.78358 86.0487 7.06199 85.7824 7.41943C85.5229 7.77688 85.3932 8.18245 85.3932 8.63614C85.3796 9.01421 85.4581 9.34416 85.6288 9.626C85.8063 9.90784 86.0487 10.1519 86.356 10.3581C86.6632 10.5575 87.0183 10.7327 87.4212 10.8839C87.824 11.0283 88.2541 11.152 88.7116 11.2552L90.5961 11.7088C91.5111 11.9151 92.3509 12.1901 93.1156 12.5337C93.8804 12.8774 94.5427 13.3002 95.1026 13.8019C95.6625 14.3038 96.0961 14.8949 96.4033 15.5755C96.7177 16.2561 96.8783 17.0363 96.885 17.9161C96.8783 19.2084 96.5504 20.3289 95.9015 21.2775C95.2597 22.2193 94.3311 22.9514 93.1156 23.4737C91.9071 23.9893 90.4493 24.247 88.7423 24.247C87.049 24.247 85.5742 23.9859 84.3178 23.4635C83.0683 22.941 82.0919 22.1677 81.3886 21.1435C80.6922 20.1123 80.3269 18.8373 80.2927 17.3181H84.5841C84.6319 18.0261 84.8333 18.6173 85.1884 19.0915C85.5502 19.559 86.0316 19.913 86.6325 20.1536C87.2401 20.3873 87.9264 20.5042 88.6912 20.5042C89.4422 20.5042 90.0943 20.3942 90.6474 20.1743C91.2073 19.9543 91.6409 19.6483 91.9481 19.2565C92.2554 18.8647 92.409 18.4145 92.409 17.9058C92.409 17.4314 92.269 17.0328 91.9891 16.7097C91.7159 16.3866 91.3131 16.1117 90.7805 15.8848C90.2547 15.658 89.6095 15.4518 88.8448 15.2661L86.5608 14.6887C84.7924 14.2557 83.3961 13.5786 82.3718 12.6574C81.3477 11.7363 80.839 10.4956 80.8458 8.93516C80.839 7.65658 81.1769 6.53955 81.8598 5.58407C82.5494 4.62857 83.495 3.88274 84.6967 3.34656C85.8984 2.81039 87.2641 2.5423 88.7935 2.5423C90.3503 2.5423 91.7091 2.81039 92.8699 3.34656C94.0375 3.88274 94.9456 4.62857 95.5942 5.58407C96.2428 6.53955 96.5774 7.64628 96.5975 8.90423H92.3475ZM99.8682 23.9481V2.83101H108.143C109.727 2.83101 111.079 3.11628 112.199 3.68683C113.326 4.2505 114.182 5.05132 114.77 6.08931C115.364 7.12042 115.661 8.33368 115.661 9.72911C115.661 11.1314 115.361 12.3378 114.76 13.3483C114.159 14.3519 113.288 15.1218 112.148 15.658C111.014 16.1941 109.642 16.4622 108.03 16.4622H102.49V12.8739H107.314C108.16 12.8739 108.864 12.7571 109.423 12.5234C109.984 12.2896 110.4 11.9391 110.673 11.4717C110.953 11.0042 111.093 10.4234 111.093 9.72911C111.093 9.02796 110.953 8.43679 110.673 7.95561C110.4 7.47442 109.98 7.1101 109.413 6.86264C108.853 6.6083 108.147 6.48112 107.293 6.48112H104.302V23.9481H99.8682ZM111.195 14.3381L116.409 23.9481H111.512L106.412 14.3381H111.195Z" fill="#C4161C"/>
<path d="M39.091 30.8802C39.073 30.6971 38.9956 30.555 38.8589 30.4536C38.7222 30.3524 38.5367 30.3017 38.3024 30.3017C38.1431 30.3017 38.0086 30.3243 37.8991 30.3697C37.7894 30.4136 37.7052 30.4748 37.6467 30.5535C37.5896 30.6321 37.561 30.7213 37.561 30.8211C37.5581 30.9044 37.5754 30.9769 37.6129 31.0389C37.652 31.1009 37.7052 31.1546 37.7728 31.1999C37.8404 31.2438 37.9186 31.2824 38.0072 31.3157C38.0958 31.3474 38.1904 31.3746 38.2911 31.3973L38.7057 31.4972C38.907 31.5425 39.0917 31.603 39.26 31.6786C39.4282 31.7542 39.574 31.8473 39.6971 31.9576C39.8203 32.068 39.9156 32.1981 39.9833 32.3478C40.0524 32.4976 40.0876 32.6692 40.0892 32.8627C40.0876 33.1471 40.0155 33.3935 39.8729 33.6023C39.7316 33.8094 39.5273 33.9705 39.26 34.0854C38.9941 34.1989 38.6734 34.2556 38.2978 34.2556C37.9253 34.2556 37.6008 34.1981 37.3244 34.0831C37.0496 33.9682 36.8348 33.7981 36.68 33.5728C36.5268 33.3459 36.4464 33.0654 36.4389 32.7312H37.3831C37.3936 32.8869 37.4379 33.017 37.5159 33.1213C37.5956 33.2241 37.7015 33.302 37.8337 33.355C37.9674 33.4064 38.1183 33.4321 38.2866 33.4321C38.4518 33.4321 38.5953 33.4079 38.717 33.3595C38.8401 33.3111 38.9355 33.2439 39.0031 33.1576C39.0707 33.0714 39.1045 32.9724 39.1045 32.8605C39.1045 32.7561 39.0738 32.6684 39.0121 32.5973C38.9521 32.5262 38.8634 32.4657 38.7462 32.4159C38.6306 32.3659 38.4887 32.3205 38.3204 32.2798L37.8179 32.1527C37.4288 32.0575 37.1217 31.9085 36.8963 31.7058C36.671 31.5032 36.5591 31.2302 36.5606 30.8869C36.5591 30.6057 36.6335 30.3599 36.7837 30.1497C36.9354 29.9395 37.1434 29.7754 37.4078 29.6575C37.6722 29.5395 37.9726 29.4805 38.3091 29.4805C38.6516 29.4805 38.9505 29.5395 39.206 29.6575C39.4627 29.7754 39.6626 29.9395 39.8053 30.1497C39.9479 30.3599 40.0216 30.6033 40.0261 30.8802H39.091ZM40.4751 29.544H41.5679L42.6201 31.5448H42.6652L43.7174 29.544H44.8103L43.1271 32.5474V34.1898H42.1583V32.5474L40.4751 29.544ZM45.3431 29.544H46.5464L47.8172 32.6654H47.8713L49.1421 29.544H50.3454V34.1898H49.399V31.166H49.3607L48.1665 34.1671H47.5221L46.3279 31.1546H46.2895V34.1898H45.3431V29.544ZM51.1492 34.1898V29.544H52.9969C53.3363 29.544 53.6194 29.5946 53.8463 29.696C54.0731 29.7973 54.2437 29.9379 54.3578 30.118C54.472 30.2963 54.529 30.502 54.529 30.735C54.529 30.9165 54.493 31.076 54.4209 31.2136C54.3488 31.3497 54.2496 31.4616 54.1235 31.5493C53.9988 31.6355 53.856 31.6967 53.6953 31.733V31.7784C53.8711 31.786 54.0356 31.8359 54.1888 31.9282C54.3436 32.0204 54.4689 32.1497 54.5651 32.3161C54.6612 32.4809 54.7093 32.6775 54.7093 32.9058C54.7093 33.1523 54.6485 33.3724 54.5268 33.566C54.4066 33.758 54.2286 33.91 53.9928 34.0219C53.7569 34.1338 53.4663 34.1898 53.1208 34.1898H51.1492ZM52.1249 33.3867H52.9202C53.1921 33.3867 53.3905 33.3346 53.515 33.2302C53.6397 33.1243 53.7021 32.9837 53.7021 32.8083C53.7021 32.6797 53.6713 32.5664 53.6097 32.468C53.5481 32.3697 53.4602 32.2926 53.3461 32.2366C53.2335 32.1807 53.099 32.1527 52.9427 32.1527H52.1249V33.3867ZM52.1249 31.4881H52.8481C52.9819 31.4881 53.1005 31.4647 53.2041 31.4177C53.3093 31.3693 53.3919 31.3013 53.452 31.2136C53.5136 31.1259 53.5444 31.0208 53.5444 30.8983C53.5444 30.7304 53.485 30.595 53.3664 30.4922C53.2492 30.3894 53.0824 30.338 52.8661 30.338H52.1249V31.4881ZM56.3198 29.544V34.1898H55.3442V29.544H56.3198ZM61.3631 31.8669C61.3631 32.3735 61.2677 32.8045 61.077 33.1599C60.8877 33.5153 60.6293 33.7868 60.3018 33.9742C59.9759 34.1603 59.6093 34.2533 59.2023 34.2533C58.7922 34.2533 58.4241 34.1595 58.0981 33.972C57.7722 33.7844 57.5146 33.513 57.3253 33.1576C57.1361 32.8022 57.0414 32.372 57.0414 31.8669C57.0414 31.3603 57.1361 30.9292 57.3253 30.5739C57.5146 30.2185 57.7722 29.9478 58.0981 29.7618C58.4241 29.5742 58.7922 29.4805 59.2023 29.4805C59.6093 29.4805 59.9759 29.5742 60.3018 29.7618C60.6293 29.9478 60.8877 30.2185 61.077 30.5739C61.2677 30.9292 61.3631 31.3603 61.3631 31.8669ZM60.3739 31.8669C60.3739 31.5387 60.3251 31.262 60.2275 31.0367C60.1314 30.8113 59.9954 30.6404 59.8197 30.524C59.6438 30.4076 59.4381 30.3493 59.2023 30.3493C58.9665 30.3493 58.7606 30.4076 58.5849 30.524C58.4091 30.6404 58.2724 30.8113 58.1748 31.0367C58.0786 31.262 58.0306 31.5387 58.0306 31.8669C58.0306 32.1951 58.0786 32.4718 58.1748 32.6971C58.2724 32.9225 58.4091 33.0934 58.5849 33.2098C58.7606 33.3262 58.9665 33.3845 59.2023 33.3845C59.4381 33.3845 59.6438 33.3262 59.8197 33.2098C59.9954 33.0934 60.1314 32.9225 60.2275 32.6971C60.3251 32.4718 60.3739 32.1951 60.3739 31.8669ZM64.5892 30.8802C64.5711 30.6971 64.4938 30.555 64.3571 30.4536C64.2204 30.3524 64.0349 30.3017 63.8006 30.3017C63.6414 30.3017 63.5069 30.3243 63.3972 30.3697C63.2876 30.4136 63.2035 30.4748 63.1448 30.5535C63.0878 30.6321 63.0592 30.7213 63.0592 30.8211C63.0563 30.9044 63.0735 30.9769 63.1111 31.0389C63.1501 31.1009 63.2035 31.1546 63.271 31.1999C63.3386 31.2438 63.4168 31.2824 63.5053 31.3157C63.594 31.3474 63.6887 31.3746 63.7893 31.3973L64.2039 31.4972C64.4052 31.5425 64.59 31.603 64.7582 31.6786C64.9264 31.7542 65.0721 31.8473 65.1953 31.9576C65.3185 32.068 65.4139 32.1981 65.4814 32.3478C65.5506 32.4976 65.5858 32.6692 65.5874 32.8627C65.5858 33.1471 65.5137 33.3935 65.3711 33.6023C65.2299 33.8094 65.0256 33.9705 64.7582 34.0854C64.4923 34.1989 64.1716 34.2556 63.7961 34.2556C63.4235 34.2556 63.099 34.1981 62.8227 34.0831C62.5478 33.9682 62.3329 33.7981 62.1782 33.5728C62.025 33.3459 61.9446 33.0654 61.9371 32.7312H62.8812C62.8918 32.8869 62.9361 33.017 63.0142 33.1213C63.0938 33.2241 63.1997 33.302 63.3319 33.355C63.4655 33.4064 63.6166 33.4321 63.7848 33.4321C63.95 33.4321 64.0935 33.4079 64.2151 33.3595C64.3384 33.3111 64.4337 33.2439 64.5013 33.1576C64.5689 33.0714 64.6027 32.9724 64.6027 32.8605C64.6027 32.7561 64.5719 32.6684 64.5104 32.5973C64.4503 32.5262 64.3616 32.4657 64.2444 32.4159C64.1288 32.3659 63.9868 32.3205 63.8185 32.2798L63.3161 32.1527C62.9271 32.0575 62.6199 31.9085 62.3945 31.7058C62.1692 31.5032 62.0573 31.2302 62.0588 30.8869C62.0573 30.6057 62.1316 30.3599 62.2819 30.1497C62.4336 29.9395 62.6416 29.7754 62.906 29.6575C63.1704 29.5395 63.4708 29.4805 63.8073 29.4805C64.1498 29.4805 64.4487 29.5395 64.7041 29.6575C64.961 29.7754 65.1607 29.9395 65.3035 30.1497C65.4462 30.3599 65.5198 30.6033 65.5242 30.8802H64.5892ZM67.2192 29.544V34.1898H66.2436V29.544H67.2192ZM70.5253 30.8802C70.5073 30.6971 70.43 30.555 70.2932 30.4536C70.1565 30.3524 69.971 30.3017 69.7367 30.3017C69.5775 30.3017 69.443 30.3243 69.3334 30.3697C69.2237 30.4136 69.1396 30.4748 69.081 30.5535C69.0239 30.6321 68.9954 30.7213 68.9954 30.8211C68.9924 30.9044 69.0096 30.9769 69.0472 31.0389C69.0862 31.1009 69.1396 31.1546 69.2072 31.1999C69.2748 31.2438 69.3529 31.2824 69.4416 31.3157C69.5301 31.3474 69.6248 31.3746 69.7255 31.3973L70.14 31.4972C70.3413 31.5425 70.5261 31.603 70.6943 31.6786C70.8626 31.7542 71.0082 31.8473 71.1315 31.9576C71.2546 32.068 71.35 32.1981 71.4176 32.3478C71.4867 32.4976 71.522 32.6692 71.5235 32.8627C71.522 33.1471 71.4499 33.3935 71.3072 33.6023C71.166 33.8094 70.9617 33.9705 70.6943 34.0854C70.4284 34.1989 70.1077 34.2556 69.7322 34.2556C69.3596 34.2556 69.0352 34.1981 68.7588 34.0831C68.4839 33.9682 68.2691 33.7981 68.1144 33.5728C67.9611 33.3459 67.8808 33.0654 67.8733 32.7312H68.8173C68.8279 32.8869 68.8722 33.017 68.9503 33.1213C69.0299 33.2241 69.1358 33.302 69.268 33.355C69.4017 33.4064 69.5527 33.4321 69.7209 33.4321C69.8862 33.4321 70.0296 33.4079 70.1513 33.3595C70.2745 33.3111 70.3699 33.2439 70.4375 33.1576C70.505 33.0714 70.5389 32.9724 70.5389 32.8605C70.5389 32.7561 70.508 32.6684 70.4465 32.5973C70.3864 32.5262 70.2978 32.4657 70.1806 32.4159C70.0649 32.3659 69.9229 32.3205 69.7547 32.2798L69.2523 32.1527C68.8632 32.0575 68.556 31.9085 68.3307 31.7058C68.1053 31.5032 67.9934 31.2302 67.995 30.8869C67.9934 30.6057 68.0677 30.3599 68.218 30.1497C68.3697 29.9395 68.5778 29.7754 68.8421 29.6575C69.1065 29.5395 69.407 29.4805 69.7434 29.4805C70.086 29.4805 70.3849 29.5395 70.6402 29.6575C70.8971 29.7754 71.0969 29.9395 71.2396 30.1497C71.3823 30.3599 71.4559 30.6033 71.4605 30.8802H70.5253ZM74.624 29.544V34.1898H73.6483V29.544H74.624ZM79.2865 29.544V34.1898H78.4437L76.4361 31.2658H76.4023V34.1898H75.4266V29.544H76.2829L78.2747 32.4657H78.3153V29.544H79.2865ZM82.5959 30.8802C82.5779 30.6971 82.5005 30.555 82.3639 30.4536C82.2271 30.3524 82.0416 30.3017 81.8073 30.3017C81.648 30.3017 81.5136 30.3243 81.4039 30.3697C81.2943 30.4136 81.2102 30.4748 81.1516 30.5535C81.0945 30.6321 81.066 30.7213 81.066 30.8211C81.0629 30.9044 81.0802 30.9769 81.1178 31.0389C81.1569 31.1009 81.2102 31.1546 81.2778 31.1999C81.3454 31.2438 81.4234 31.2824 81.5121 31.3157C81.6007 31.3474 81.6953 31.3746 81.796 31.3973L82.2106 31.4972C82.4119 31.5425 82.5966 31.603 82.7649 31.6786C82.9331 31.7542 83.0788 31.8473 83.202 31.9576C83.3252 32.068 83.4206 32.1981 83.4882 32.3478C83.5573 32.4976 83.5926 32.6692 83.594 32.8627C83.5926 33.1471 83.5205 33.3935 83.3777 33.6023C83.2366 33.8094 83.0323 33.9705 82.7649 34.0854C82.499 34.1989 82.1783 34.2556 81.8028 34.2556C81.4303 34.2556 81.1058 34.1981 80.8294 34.0831C80.5544 33.9682 80.3397 33.7981 80.185 33.5728C80.0317 33.3459 79.9514 33.0654 79.9439 32.7312H80.888C80.8984 32.8869 80.9427 33.017 81.0209 33.1213C81.1005 33.2241 81.2065 33.302 81.3386 33.355C81.4723 33.4064 81.6232 33.4321 81.7915 33.4321C81.9567 33.4321 82.1002 33.4079 82.2219 33.3595C82.345 33.3111 82.4404 33.2439 82.5081 33.1576C82.5757 33.0714 82.6094 32.9724 82.6094 32.8605C82.6094 32.7561 82.5786 32.6684 82.517 32.5973C82.4569 32.5262 82.3683 32.4657 82.2512 32.4159C82.1355 32.3659 81.9935 32.3205 81.8253 32.2798L81.3228 32.1527C80.9338 32.0575 80.6265 31.9085 80.4013 31.7058C80.1759 31.5032 80.064 31.2302 80.0655 30.8869C80.064 30.6057 80.1384 30.3599 80.2886 30.1497C80.4403 29.9395 80.6484 29.7754 80.9128 29.6575C81.1771 29.5395 81.4776 29.4805 81.814 29.4805C82.1565 29.4805 82.4555 29.5395 82.7108 29.6575C82.9677 29.7754 83.1675 29.9395 83.3102 30.1497C83.4529 30.3599 83.5265 30.6033 83.531 30.8802H82.5959ZM84.0746 30.3538V29.544H87.8645V30.3538H86.4517V34.1898H85.4874V30.3538H84.0746ZM89.4643 29.544V34.1898H88.4887V29.544H89.4643ZM90.0913 30.3538V29.544H93.8812V30.3538H92.4685V34.1898H91.5041V30.3538H90.0913ZM97.3561 29.544H98.331V32.561C98.331 32.8998 98.2512 33.1962 98.0906 33.4502C97.931 33.7043 97.708 33.9024 97.4215 34.0446C97.134 34.1852 96.7995 34.2556 96.4188 34.2556C96.0354 34.2556 95.7003 34.1852 95.4135 34.0446C95.1266 33.9024 94.9034 33.7043 94.7442 33.4502C94.585 33.1962 94.5054 32.8998 94.5054 32.561V29.544H95.481V32.4771C95.481 32.6541 95.5193 32.8113 95.5959 32.949C95.6741 33.0866 95.7837 33.1947 95.9249 33.2733C96.0661 33.352 96.2303 33.3913 96.4188 33.3913C96.6072 33.3913 96.7725 33.352 96.9119 33.2733C97.0533 33.1947 97.1619 33.0866 97.2388 32.949C97.3167 32.8113 97.3561 32.6541 97.3561 32.4771V29.544ZM98.9587 30.3538V29.544H102.748V30.3538H101.335V34.1898H100.371V30.3538H98.9587ZM103.372 34.1898V29.544H106.482V30.3538H104.348V31.4609H106.322V32.2707H104.348V33.38H106.491V34.1898H103.372ZM112.967 31.8669C112.967 32.3735 112.871 32.8045 112.681 33.1599C112.491 33.5153 112.233 33.7868 111.906 33.9742C111.58 34.1603 111.212 34.2533 110.806 34.2533C110.395 34.2533 110.028 34.1595 109.702 33.972C109.376 33.7844 109.119 33.513 108.929 33.1576C108.74 32.8022 108.645 32.372 108.645 31.8669C108.645 31.3603 108.74 30.9292 108.929 30.5739C109.119 30.2185 109.376 29.9478 109.702 29.7618C110.028 29.5742 110.395 29.4805 110.806 29.4805C111.212 29.4805 111.58 29.5742 111.906 29.7618C112.233 29.9478 112.491 30.2185 112.681 30.5739C112.871 30.9292 112.967 31.3603 112.967 31.8669ZM111.978 31.8669C111.978 31.5387 111.929 31.262 111.831 31.0367C111.735 30.8113 111.599 30.6404 111.423 30.524C111.247 30.4076 111.041 30.3493 110.806 30.3493C110.57 30.3493 110.365 30.4076 110.189 30.524C110.013 30.6404 109.876 30.8113 109.778 31.0367C109.682 31.262 109.634 31.5387 109.634 31.8669C109.634 32.1951 109.682 32.4718 109.778 32.6971C109.876 32.9225 110.013 33.0934 110.189 33.2098C110.365 33.3262 110.57 33.3845 110.806 33.3845C111.041 33.3845 111.247 33.3262 111.423 33.2098C111.599 33.0934 111.735 32.9225 111.831 32.6971C111.929 32.4718 111.978 32.1951 111.978 31.8669ZM113.689 34.1898V29.544H116.745V30.3538H114.665V31.4609H116.542V32.2707H114.665V34.1898H113.689ZM4.50327 38.9134H3.51635C3.49833 38.7849 3.46153 38.6707 3.40594 38.5709C3.35036 38.4696 3.27901 38.3833 3.19189 38.3123C3.10476 38.2412 3.00411 38.1868 2.88995 38.1489C2.77729 38.1112 2.65486 38.0922 2.52267 38.0922C2.28384 38.0922 2.07578 38.1519 1.89852 38.2715C1.72127 38.3894 1.58383 38.5618 1.48619 38.7887C1.38855 39.014 1.33972 39.2877 1.33972 39.6098C1.33972 39.941 1.38855 40.2193 1.48619 40.4446C1.58533 40.6699 1.72352 40.8401 1.90078 40.955C2.07803 41.0699 2.28308 41.1274 2.51591 41.1274C2.6466 41.1274 2.76753 41.11 2.87869 41.0753C2.99134 41.0404 3.09124 40.9898 3.17836 40.9232C3.26549 40.8552 3.3376 40.7728 3.39467 40.676C3.45326 40.5792 3.49382 40.4688 3.51635 40.3448L4.50327 40.3494C4.47774 40.5626 4.41389 40.7682 4.31174 40.9664C4.2111 41.1629 4.07516 41.3391 3.90391 41.4949C3.73416 41.6491 3.53137 41.7716 3.29554 41.8623C3.0612 41.9516 2.79607 41.9962 2.50015 41.9962C2.08855 41.9962 1.72052 41.9024 1.39606 41.7149C1.07309 41.5273 0.817727 41.256 0.629957 40.9006C0.443689 40.5452 0.350555 40.1149 0.350555 39.6098C0.350555 39.1032 0.445192 38.6721 0.634464 38.3168C0.823735 37.9614 1.0806 37.6907 1.40507 37.5047C1.72953 37.3171 2.09456 37.2234 2.50015 37.2234C2.76753 37.2234 3.01538 37.2612 3.24371 37.3369C3.47354 37.4125 3.67708 37.5228 3.85434 37.668C4.03159 37.8117 4.17579 37.9879 4.28696 38.1965C4.39962 38.4053 4.47173 38.6442 4.50327 38.9134ZM9.44349 39.6098C9.44349 40.1164 9.3481 40.5474 9.15733 40.9028C8.96805 41.2582 8.70968 41.5297 8.38222 41.7171C8.05624 41.9032 7.68972 41.9962 7.28264 41.9962C6.87254 41.9962 6.50452 41.9024 6.17855 41.7149C5.85259 41.5273 5.59496 41.256 5.40569 40.9006C5.21642 40.5452 5.12178 40.1149 5.12178 39.6098C5.12178 39.1032 5.21642 38.6721 5.40569 38.3168C5.59496 37.9614 5.85259 37.6907 6.17855 37.5047C6.50452 37.3171 6.87254 37.2234 7.28264 37.2234C7.68972 37.2234 8.05624 37.3171 8.38222 37.5047C8.70968 37.6907 8.96805 37.9614 9.15733 38.3168C9.3481 38.6721 9.44349 39.1032 9.44349 39.6098ZM8.45432 39.6098C8.45432 39.2816 8.40549 39.0049 8.30786 38.7796C8.21172 38.5543 8.07578 38.3833 7.90002 38.2669C7.72427 38.1505 7.51848 38.0922 7.28264 38.0922C7.04679 38.0922 6.841 38.1505 6.66525 38.2669C6.4895 38.3833 6.3528 38.5543 6.25516 38.7796C6.15903 39.0049 6.11096 39.2816 6.11096 39.6098C6.11096 39.938 6.15903 40.2147 6.25516 40.44C6.3528 40.6654 6.4895 40.8363 6.66525 40.9527C6.841 41.0692 7.04679 41.1274 7.28264 41.1274C7.51848 41.1274 7.72427 41.0692 7.90002 40.9527C8.07578 40.8363 8.21172 40.6654 8.30786 40.44C8.40549 40.2147 8.45432 39.938 8.45432 39.6098ZM10.1662 37.2869H11.3695L12.6402 40.4083H12.6943L13.9652 37.2869H15.1684V41.9327H14.2221V38.9089H14.1837L12.9895 41.91H12.3451L11.1509 38.8976H11.1126V41.9327H10.1662V37.2869ZM15.9723 41.9327V37.2869H17.7928C18.1429 37.2869 18.441 37.3542 18.6874 37.4888C18.9337 37.6219 19.1215 37.8072 19.2507 38.0446C19.3814 38.2805 19.4467 38.5527 19.4467 38.8613C19.4467 39.1697 19.3807 39.442 19.2485 39.6779C19.1163 39.9138 18.9248 40.0975 18.6738 40.2291C18.4245 40.3607 18.1226 40.4264 17.768 40.4264H16.6076V39.6393H17.6104C17.7981 39.6393 17.9528 39.6068 18.0745 39.5418C18.1977 39.4752 18.2893 39.3837 18.3494 39.2673C18.411 39.1493 18.4418 39.014 18.4418 38.8613C18.4418 38.707 18.411 38.5724 18.3494 38.4575C18.2893 38.341 18.1977 38.251 18.0745 38.1875C17.9514 38.1225 17.7951 38.09 17.6058 38.09H16.9479V41.9327H15.9723ZM22.9308 37.2869H23.9064V40.304C23.9064 40.6427 23.8261 40.9391 23.6653 41.1931C23.5061 41.4472 23.2831 41.6453 22.9961 41.7875C22.7092 41.9281 22.375 41.9985 21.9935 41.9985C21.6104 41.9985 21.2754 41.9281 20.9885 41.7875C20.7016 41.6453 20.4785 41.4472 20.3192 41.1931C20.16 40.9391 20.0804 40.6427 20.0804 40.304V37.2869H21.0561V40.2201C21.0561 40.397 21.0944 40.5543 21.171 40.6919C21.2491 40.8295 21.3588 40.9376 21.5 41.0162C21.6411 41.0949 21.8056 41.1342 21.9935 41.1342C22.1827 41.1342 22.3472 41.0949 22.4869 41.0162C22.6281 40.9376 22.737 40.8295 22.8136 40.6919C22.8917 40.5543 22.9308 40.397 22.9308 40.2201V37.2869ZM24.5334 38.0968V37.2869H28.3233V38.0968H26.9106V41.9327H25.9462V38.0968H24.5334ZM28.9475 41.9327V37.2869H32.0569V38.0968H29.9232V39.2038H31.897V40.0136H29.9232V41.1229H32.066V41.9327H28.9475ZM32.8327 41.9327V37.2869H34.6532C35.0017 37.2869 35.2992 37.3497 35.5455 37.4752C35.7934 37.5993 35.9819 37.7754 36.1111 38.0037C36.2418 38.2306 36.3071 38.4975 36.3071 38.8045C36.3071 39.113 36.2411 39.3784 36.1089 39.6007C35.9767 39.8215 35.7852 39.9909 35.5342 40.1088C35.2849 40.2268 34.983 40.2858 34.6284 40.2858H33.4095V39.4964H34.4708C34.657 39.4964 34.8118 39.4706 34.9349 39.4192C35.0581 39.3678 35.1497 39.2907 35.2098 39.1879C35.2714 39.085 35.3022 38.9573 35.3022 38.8045C35.3022 38.6503 35.2714 38.5202 35.2098 38.4143C35.1497 38.3085 35.0573 38.2284 34.9326 38.1739C34.8095 38.1179 34.654 38.09 34.4663 38.09H33.8083V41.9327H32.8327ZM35.3248 39.8185L36.4716 41.9327H35.3946L34.2724 39.8185H35.3248ZM40.9685 38.6231C40.9505 38.4401 40.8731 38.2979 40.7365 38.1965C40.5998 38.0953 40.4142 38.0446 40.1798 38.0446C40.0206 38.0446 39.8862 38.0672 39.7765 38.1126C39.6669 38.1565 39.5828 38.2177 39.5242 38.2964C39.4671 38.375 39.4386 38.4642 39.4386 38.564C39.4355 38.6473 39.4528 38.7199 39.4904 38.7818C39.5295 38.8438 39.5828 38.8976 39.6504 38.9429C39.718 38.9867 39.796 39.0253 39.8847 39.0586C39.9733 39.0904 40.0679 39.1176 40.1686 39.1402L40.5832 39.2401C40.7845 39.2854 40.9692 39.3459 41.1375 39.4216C41.3057 39.4972 41.4514 39.5902 41.5746 39.7005C41.6978 39.8109 41.7932 39.941 41.8608 40.0907C41.9299 40.2405 41.9652 40.4121 41.9667 40.6056C41.9652 40.89 41.8931 41.1364 41.7503 41.3452C41.6092 41.5523 41.4049 41.7134 41.1375 41.8284C40.8716 41.9418 40.5509 41.9985 40.1754 41.9985C39.8029 41.9985 39.4784 41.941 39.202 41.826C38.9271 41.7111 38.7123 41.541 38.5575 41.3157C38.4044 41.0888 38.324 40.8083 38.3165 40.4741H39.2606C39.271 40.6298 39.3154 40.7599 39.3935 40.8643C39.4731 40.967 39.579 41.045 39.7112 41.0979C39.8449 41.1493 39.9958 41.175 40.1641 41.175C40.3293 41.175 40.4728 41.1508 40.5945 41.1025C40.7176 41.0541 40.813 40.9868 40.8807 40.9006C40.9483 40.8143 40.982 40.7153 40.982 40.6034C40.982 40.499 40.9512 40.4113 40.8896 40.3403C40.8295 40.2691 40.7409 40.2086 40.6238 40.1588C40.5081 40.1088 40.3661 40.0635 40.1979 40.0227L39.6954 39.8956C39.3064 39.8004 38.9992 39.6514 38.7738 39.4488C38.5486 39.2461 38.4367 38.9732 38.4381 38.6299C38.4367 38.3486 38.511 38.1028 38.6612 37.8926C38.8129 37.6824 39.021 37.5184 39.2854 37.4004C39.5497 37.2824 39.8502 37.2234 40.1867 37.2234C40.5291 37.2234 40.8281 37.2824 41.0834 37.4004C41.3403 37.5184 41.5401 37.6824 41.6828 37.8926C41.8255 38.1028 41.8991 38.3463 41.9036 38.6231H40.9685ZM42.4472 38.0968V37.2869H46.2371V38.0968H44.8244V41.9327H43.86V38.0968H42.4472ZM49.7116 37.2869H50.6872V40.304C50.6872 40.6427 50.6069 40.9391 50.4462 41.1931C50.2869 41.4472 50.0639 41.6453 49.777 41.7875C49.49 41.9281 49.1559 41.9985 48.7743 41.9985C48.3913 41.9985 48.0562 41.9281 47.7694 41.7875C47.4824 41.6453 47.2593 41.4472 47.1001 41.1931C46.9409 40.9391 46.8612 40.6427 46.8612 40.304V37.2869H47.8369V40.2201C47.8369 40.397 47.8752 40.5543 47.9518 40.6919C48.03 40.8295 48.1396 40.9376 48.2808 41.0162C48.422 41.0949 48.5865 41.1342 48.7743 41.1342C48.9636 41.1342 49.1281 41.0949 49.2678 41.0162C49.409 40.9376 49.5178 40.8295 49.5944 40.6919C49.6726 40.5543 49.7116 40.397 49.7116 40.2201V37.2869ZM53.1259 41.9327H51.49V37.2869H53.1393C53.6035 37.2869 54.0031 37.3799 54.3381 37.566C54.673 37.7504 54.9307 38.0158 55.1109 38.3621C55.2927 38.7084 55.3836 39.1229 55.3836 39.6053C55.3836 40.0892 55.2927 40.5051 55.1109 40.8529C54.9307 41.2007 54.6716 41.4676 54.3336 41.6537C53.9971 41.8397 53.5946 41.9327 53.1259 41.9327ZM52.4656 41.0911H53.0853C53.3737 41.0911 53.6163 41.0396 53.8131 40.9369C54.0114 40.8325 54.16 40.6715 54.2593 40.4537C54.3599 40.2344 54.4102 39.9516 54.4102 39.6053C54.4102 39.262 54.3599 38.9815 54.2593 38.7637C54.16 38.5459 54.0121 38.3857 53.8153 38.2828C53.6186 38.18 53.3759 38.1285 53.0875 38.1285H52.4656V41.0911ZM57.082 37.2869V41.9327H56.1063V37.2869H57.082ZM57.8847 41.9327V37.2869H60.9941V38.0968H58.8603V39.2038H60.8341V40.0136H58.8603V41.1229H61.0031V41.9327H57.8847ZM64.2732 38.6231C64.2551 38.4401 64.1778 38.2979 64.0411 38.1965C63.9044 38.0953 63.7188 38.0446 63.4846 38.0446C63.3253 38.0446 63.1909 38.0672 63.0812 38.1126C62.9716 38.1565 62.8874 38.2177 62.8288 38.2964C62.7718 38.375 62.7432 38.4642 62.7432 38.564C62.7402 38.6473 62.7575 38.7199 62.7951 38.7818C62.8341 38.8438 62.8874 38.8976 62.955 38.9429C63.0226 38.9867 63.1007 39.0253 63.1893 39.0586C63.278 39.0904 63.3727 39.1176 63.4732 39.1402L63.8879 39.2401C64.0892 39.2854 64.274 39.3459 64.4422 39.4216C64.6104 39.4972 64.7561 39.5902 64.8792 39.7005C65.0025 39.8109 65.0978 39.941 65.1654 40.0907C65.2346 40.2405 65.2698 40.4121 65.2714 40.6056C65.2698 40.89 65.1977 41.1364 65.0551 41.3452C64.9138 41.5523 64.7096 41.7134 64.4422 41.8284C64.1763 41.9418 63.8556 41.9985 63.48 41.9985C63.1075 41.9985 62.783 41.941 62.5066 41.826C62.2317 41.7111 62.0169 41.541 61.8622 41.3157C61.709 41.0888 61.6286 40.8083 61.6211 40.4741H62.5652C62.5758 40.6298 62.62 40.7599 62.6982 40.8643C62.7778 40.967 62.8837 41.045 63.0159 41.0979C63.1495 41.1493 63.3006 41.175 63.4688 41.175C63.634 41.175 63.7775 41.1508 63.8991 41.1025C64.0223 41.0541 64.1177 40.9868 64.1853 40.9006C64.2529 40.8143 64.2866 40.7153 64.2866 40.6034C64.2866 40.499 64.2559 40.4113 64.1943 40.3403C64.1342 40.2691 64.0456 40.2086 63.9284 40.1588C63.8128 40.1088 63.6708 40.0635 63.5025 40.0227L63.0001 39.8956C62.611 39.8004 62.3038 39.6514 62.0785 39.4488C61.8532 39.2461 61.7413 38.9732 61.7427 38.6299C61.7413 38.3486 61.8156 38.1028 61.9659 37.8926C62.1176 37.6824 62.3256 37.5184 62.59 37.4004C62.8544 37.2824 63.1548 37.2234 63.4913 37.2234C63.8337 37.2234 64.1327 37.2824 64.3881 37.4004C64.6449 37.5184 64.8447 37.6824 64.9874 37.8926C65.1302 38.1028 65.2037 38.3463 65.2082 38.6231H64.2732ZM68.1916 41.9327H67.1461L68.7391 37.2869H69.9964L71.5872 41.9327H70.5417L69.3857 38.3486H69.3497L68.1916 41.9327ZM68.1262 40.1066H70.5957V40.8734H68.1262V40.1066ZM76.0024 37.2869V41.9327H75.1597L73.152 39.0087H73.1183V41.9327H72.1426V37.2869H72.9989L74.9907 40.2086H75.0312V37.2869H76.0024ZM78.4443 41.9327H76.8084V37.2869H78.4579C78.922 37.2869 79.3216 37.3799 79.6565 37.566C79.9916 37.7504 80.2492 38.0158 80.4295 38.3621C80.6112 38.7084 80.702 39.1229 80.702 39.6053C80.702 40.0892 80.6112 40.5051 80.4295 40.8529C80.2492 41.2007 79.99 41.4676 79.6521 41.6537C79.3156 41.8397 78.913 41.9327 78.4443 41.9327ZM77.7841 41.0911H78.4037C78.6922 41.0911 78.9348 41.0396 79.1316 40.9369C79.3298 40.8325 79.4786 40.6715 79.5777 40.4537C79.6783 40.2344 79.7286 39.9516 79.7286 39.6053C79.7286 39.262 79.6783 38.9815 79.5777 38.7637C79.4786 38.5459 79.3306 38.3857 79.1338 38.2828C78.937 38.18 78.6945 38.1285 78.4061 38.1285H77.7841V41.0911ZM82.8933 41.9327V37.2869H84.714C85.0625 37.2869 85.3599 37.3497 85.6062 37.4752C85.8541 37.5993 86.0426 37.7754 86.1718 38.0037C86.3024 38.2306 86.3678 38.4975 86.3678 38.8045C86.3678 39.113 86.3018 39.3784 86.1696 39.6007C86.0374 39.8215 85.8458 39.9909 85.595 40.1088C85.3456 40.2268 85.0437 40.2858 84.6892 40.2858H83.4701V39.4964H84.5314C84.7177 39.4964 84.8724 39.4706 84.9956 39.4192C85.1188 39.3678 85.2104 39.2907 85.2705 39.1879C85.3321 39.085 85.3629 38.9573 85.3629 38.8045C85.3629 38.6503 85.3321 38.5202 85.2705 38.4143C85.2104 38.3085 85.118 38.2284 84.9933 38.1739C84.8702 38.1179 84.7147 38.09 84.527 38.09H83.869V41.9327H82.8933ZM85.3854 39.8185L86.5323 41.9327H85.4553L84.3332 39.8185H85.3854ZM87.0573 41.9327V37.2869H90.1668V38.0968H88.0329V39.2038H90.0068V40.0136H88.0329V41.1229H90.1758V41.9327H87.0573ZM93.4458 38.6231C93.4278 38.4401 93.3504 38.2979 93.2137 38.1965C93.077 38.0953 92.8915 38.0446 92.6572 38.0446C92.498 38.0446 92.3635 38.0672 92.2539 38.1126C92.1442 38.1565 92.0601 38.2177 92.0015 38.2964C91.9444 38.375 91.9158 38.4642 91.9158 38.564C91.9129 38.6473 91.9301 38.7199 91.9677 38.7818C92.0067 38.8438 92.0601 38.8976 92.1276 38.9429C92.1952 38.9867 92.2734 39.0253 92.362 39.0586C92.4507 39.0904 92.5453 39.1176 92.6459 39.1402L93.0605 39.2401C93.2618 39.2854 93.4466 39.3459 93.6148 39.4216C93.7831 39.4972 93.9288 39.5902 94.0519 39.7005C94.1751 39.8109 94.2705 39.941 94.3381 40.0907C94.4072 40.2405 94.4425 40.4121 94.444 40.6056C94.4425 40.89 94.3704 41.1364 94.2277 41.3452C94.0865 41.5523 93.8822 41.7134 93.6148 41.8284C93.3489 41.9418 93.0282 41.9985 92.6526 41.9985C92.2801 41.9985 91.9557 41.941 91.6793 41.826C91.4044 41.7111 91.1895 41.541 91.0348 41.3157C90.8816 41.0888 90.8012 40.8083 90.7937 40.4741H91.7378C91.7484 40.6298 91.7927 40.7599 91.8708 40.8643C91.9504 40.967 92.0563 41.045 92.1885 41.0979C92.3222 41.1493 92.4732 41.175 92.6414 41.175C92.8067 41.175 92.9501 41.1508 93.0717 41.1025C93.195 41.0541 93.2903 40.9868 93.3579 40.9006C93.4255 40.8143 93.4594 40.7153 93.4594 40.6034C93.4594 40.499 93.4285 40.4113 93.367 40.3403C93.3069 40.2691 93.2182 40.2086 93.101 40.1588C92.9854 40.1088 92.8434 40.0635 92.6751 40.0227L92.1727 39.8956C91.7837 39.8004 91.4765 39.6514 91.2512 39.4488C91.0258 39.2461 90.9139 38.9732 90.9154 38.6299C90.9139 38.3486 90.9883 38.1028 91.1385 37.8926C91.2902 37.6824 91.4982 37.5184 91.7626 37.4004C92.027 37.2824 92.3274 37.2234 92.6639 37.2234C93.0064 37.2234 93.3053 37.2824 93.5607 37.4004C93.8176 37.5184 94.0173 37.6824 94.1601 37.8926C94.3028 38.1028 94.3764 38.3463 94.3809 38.6231H93.4458ZM95.1002 41.9327V37.2869H98.2098V38.0968H96.0759V39.2038H98.0493V40.0136H96.0759V41.1229H98.2185V41.9327H95.1002ZM99.7807 41.9327H98.7357L100.329 37.2869H101.585L103.176 41.9327H102.131L100.975 38.3486H100.939L99.7807 41.9327ZM99.7153 40.1066H102.185V40.8734H99.7153V40.1066ZM103.732 41.9327V37.2869H105.553C105.901 37.2869 106.198 37.3497 106.445 37.4752C106.693 37.5993 106.881 37.7754 107.01 38.0037C107.141 38.2306 107.206 38.4975 107.206 38.8045C107.206 39.113 107.14 39.3784 107.008 39.6007C106.876 39.8215 106.684 39.9909 106.433 40.1088C106.184 40.2268 105.883 40.2858 105.528 40.2858H104.309V39.4964H105.37C105.556 39.4964 105.711 39.4706 105.835 39.4192C105.958 39.3678 106.049 39.2907 106.109 39.1879C106.171 39.085 106.202 38.9573 106.202 38.8045C106.202 38.6503 106.171 38.5202 106.109 38.4143C106.049 38.3085 105.957 38.2284 105.832 38.1739C105.709 38.1179 105.553 38.09 105.365 38.09H104.708V41.9327H103.732ZM106.224 39.8185L107.371 41.9327H106.294L105.171 39.8185H106.224ZM111.967 38.9134H110.981C110.963 38.7849 110.926 38.6707 110.87 38.5709C110.814 38.4696 110.743 38.3833 110.656 38.3123C110.569 38.2412 110.468 38.1868 110.354 38.1489C110.241 38.1112 110.119 38.0922 109.987 38.0922C109.748 38.0922 109.54 38.1519 109.363 38.2715C109.185 38.3894 109.048 38.5618 108.95 38.7887C108.852 39.014 108.804 39.2877 108.804 39.6098C108.804 39.941 108.852 40.2193 108.95 40.4446C109.049 40.6699 109.188 40.8401 109.365 40.955C109.543 41.0699 109.747 41.1274 109.98 41.1274C110.111 41.1274 110.232 41.11 110.342 41.0753C110.456 41.0404 110.555 40.9898 110.642 40.9232C110.73 40.8552 110.802 40.7728 110.859 40.676C110.917 40.5792 110.958 40.4688 110.981 40.3448L111.967 40.3494C111.942 40.5626 111.878 40.7682 111.776 40.9664C111.675 41.1629 111.539 41.3391 111.368 41.4949C111.198 41.6491 110.995 41.7716 110.76 41.8623C110.525 41.9516 110.26 41.9962 109.965 41.9962C109.553 41.9962 109.185 41.9024 108.86 41.7149C108.537 41.5273 108.282 41.256 108.094 40.9006C107.908 40.5452 107.815 40.1149 107.815 39.6098C107.815 39.1032 107.909 38.6721 108.099 38.3168C108.288 37.9614 108.545 37.6907 108.87 37.5047C109.194 37.3171 109.559 37.2234 109.965 37.2234C110.232 37.2234 110.48 37.2612 110.708 37.3369C110.938 37.4125 111.141 37.5228 111.318 37.668C111.496 37.8117 111.64 37.9879 111.751 38.1965C111.863 38.4053 111.935 38.6442 111.967 38.9134ZM112.667 41.9327V37.2869H113.643V39.2038H115.623V37.2869H116.596V41.9327H115.623V40.0136H113.643V41.9327H112.667Z" fill="#DC3848"/>
</g>
<defs>
<clipPath id="clip0_8_257">
<rect width="117" height="42" fill="white"/>
</clipPath>
</defs>
</svg>
