<svg width="1258" height="304" viewBox="0 0 1258 304" fill="none" xmlns="http://www.w3.org/2000/svg">
<rect x="151.999" width="214.96" height="214.96" rx="40" transform="rotate(45 151.999 0)" fill="url(#paint0_linear_333_1106)"/>
<path d="M134.004 28.8624C149.625 13.2414 174.951 13.2414 190.572 28.8624L284.293 122.583C299.914 138.204 299.914 163.53 284.293 179.151L191.151 272.293C175.53 287.914 150.203 287.914 134.582 272.293L40.8618 178.573C25.2409 162.952 25.2409 137.625 40.8619 122.004L134.004 28.8624Z" fill="url(#paint1_linear_333_1106)"/>
<rect x="153.419" y="10.5781" width="200" height="200" rx="40" transform="rotate(45 153.419 10.5781)" fill="#2C3135"/>
<rect opacity="0.4" x="152.578" y="21.7344" width="183.03" height="183.03" rx="32" transform="rotate(45 152.578 21.7344)" fill="#445879"/>
<path fill-rule="evenodd" clip-rule="evenodd" d="M113 241L108 236L108 104.578L175.917 104.578C183.324 104.578 190.269 106.528 196.75 110.426C203.232 114.279 208.394 119.454 212.236 125.952C216.079 132.449 218 139.388 218 146.768C218 153.359 216.866 159.439 214.597 165.009C212.329 170.532 209.273 175.127 205.431 178.793C201.588 182.46 197.121 185.314 192.028 187.357C186.935 189.352 181.565 190.35 175.917 190.35H146.889V185.338H175.917C180.871 185.338 185.616 184.363 190.153 182.414C194.69 180.418 198.625 177.749 201.959 174.407C205.338 171.019 208.023 166.935 210.014 162.154C212.005 157.327 213 152.198 213 146.768C213 140.27 211.31 134.167 207.931 128.458C204.551 122.703 199.991 118.131 194.25 114.743C188.556 111.308 182.445 109.591 175.917 109.591L113 109.591L113 241ZM123 251L118 246L118 114.603L175.917 114.603C181.519 114.603 186.797 116.089 191.75 119.059C196.704 122.03 200.639 125.998 203.556 130.964C206.519 135.93 208 141.198 208 146.768C208 153.08 206.519 158.836 203.556 164.034C200.593 169.186 196.658 173.2 191.75 176.078C186.889 178.909 181.611 180.325 175.917 180.325H146.889V175.312H175.917C180.732 175.312 185.176 174.152 189.25 171.831C193.371 169.464 196.681 166.076 199.181 161.667C201.727 157.257 203 152.291 203 146.768C203 139.62 200.269 133.308 194.806 127.831C189.389 122.355 183.093 119.616 175.917 119.616L123 119.616L123 251ZM133 260.64C131.942 259.819 130.923 258.923 129.951 257.951L128 256L128 124.629L175.917 124.629C181.75 124.629 186.889 126.88 191.334 131.382C195.778 135.884 198 141.013 198 146.768C198 153.869 195.847 159.578 191.542 163.895C187.236 168.165 182.028 170.3 175.917 170.3H146.889V165.287L175.917 165.287C180.685 165.287 184.713 163.686 188 160.483C191.334 157.234 193 152.663 193 146.768C193 142.359 191.264 138.414 187.792 134.933C184.32 131.405 180.361 129.641 175.917 129.641L133 129.641L133 260.64ZM143 265.863C141.291 265.329 139.618 264.647 138 263.819L138 134.654L175.917 134.654C179.204 134.654 182.028 135.861 184.389 138.274C186.797 140.688 188 143.519 188 146.768C188 155.772 183.972 160.274 175.917 160.274L146.889 160.274V155.262L175.917 155.262C178.139 155.262 179.875 154.635 181.125 153.382C182.375 152.129 183 149.924 183 146.768C183 144.726 182.306 143.032 180.917 141.686C179.574 140.34 177.908 139.667 175.917 139.667L143 139.667L143 265.863Z" fill="#F3E9DD"/>
<path d="M1221.52 216.712V191.752C1216.74 191.069 1212.48 189.49 1208.72 187.016C1205.05 184.456 1202.15 181.17 1200.02 177.16C1197.89 173.064 1196.82 168.413 1196.82 163.208V125.448H1208.72V163.08C1208.72 167.005 1209.58 170.418 1211.28 173.32C1212.99 176.136 1215.25 178.312 1218.07 179.848C1220.97 181.384 1224.04 182.152 1227.28 182.152C1230.61 182.152 1233.68 181.384 1236.5 179.848C1239.4 178.312 1241.7 176.136 1243.41 173.32C1245.2 170.418 1246.1 167.005 1246.1 163.08V125.448H1257.87V163.208C1257.87 168.413 1256.81 173.021 1254.67 177.032C1252.63 181.042 1249.73 184.328 1245.97 186.888C1242.3 189.362 1238.08 190.984 1233.3 191.752V216.712H1221.52Z" fill="white"/>
<path d="M1141.2 192.263C1134.89 192.263 1129.43 190.77 1124.82 187.784C1120.21 184.712 1116.67 180.573 1114.2 175.368C1111.72 170.162 1110.48 164.402 1110.48 158.088C1110.48 151.688 1111.85 145.928 1114.58 140.808C1117.31 135.602 1121.24 131.506 1126.36 128.519C1131.48 125.447 1137.62 123.911 1144.79 123.911C1151.7 123.911 1157.63 125.405 1162.58 128.392C1167.53 131.378 1171.33 135.431 1173.97 140.551C1176.7 145.671 1178.07 151.389 1178.07 157.703V190.728H1166.16V177.416H1165.91C1164.63 179.89 1162.88 182.28 1160.66 184.584C1158.53 186.802 1155.84 188.637 1152.6 190.088C1149.35 191.538 1145.56 192.263 1141.2 192.263ZM1144.28 182.151C1148.54 182.151 1152.3 181.128 1155.54 179.08C1158.87 176.946 1161.43 174.045 1163.22 170.375C1165.1 166.621 1166.04 162.44 1166.04 157.832C1166.04 153.309 1165.14 149.256 1163.35 145.672C1161.64 142.088 1159.17 139.272 1155.92 137.224C1152.68 135.09 1148.88 134.023 1144.53 134.023C1139.92 134.023 1135.96 135.09 1132.63 137.224C1129.39 139.357 1126.87 142.258 1125.08 145.927C1123.37 149.511 1122.52 153.607 1122.52 158.215C1122.52 162.653 1123.37 166.706 1125.08 170.375C1126.78 173.959 1129.26 176.818 1132.5 178.951C1135.74 181.085 1139.67 182.151 1144.28 182.151Z" fill="white"/>
<path d="M1062.4 192.263C1057.45 192.263 1052.93 191.495 1048.83 189.959C1044.73 188.338 1041.19 185.991 1038.21 182.919C1035.22 179.847 1032.87 176.178 1031.17 171.911C1029.55 167.559 1028.73 162.695 1028.73 157.319C1028.73 150.493 1030.1 144.605 1032.83 139.655C1035.65 134.621 1039.44 130.738 1044.22 128.007C1049.09 125.277 1054.51 123.911 1060.48 123.911C1063.81 123.911 1066.96 124.466 1069.95 125.575C1073.02 126.685 1075.75 128.221 1078.14 130.183C1080.53 132.146 1082.41 134.45 1083.77 137.095H1084.03V97.2875H1095.81V157.703C1095.81 164.957 1094.31 171.186 1091.33 176.391C1088.43 181.511 1084.46 185.437 1079.42 188.167C1074.47 190.898 1068.8 192.263 1062.4 192.263ZM1062.4 182.151C1066.41 182.151 1070.04 181.17 1073.28 179.207C1076.52 177.245 1079.08 174.471 1080.96 170.887C1082.92 167.303 1083.9 163.079 1083.9 158.215C1083.9 153.266 1082.92 148.999 1080.96 145.415C1079.08 141.746 1076.52 138.93 1073.28 136.967C1070.04 135.005 1066.37 134.023 1062.27 134.023C1058.26 134.023 1054.59 135.047 1051.26 137.095C1048.02 139.143 1045.42 141.959 1043.45 145.543C1041.58 149.127 1040.64 153.309 1040.64 158.087C1040.64 163.037 1041.62 167.303 1043.58 170.887C1045.55 174.471 1048.15 177.245 1051.39 179.207C1054.72 181.17 1058.39 182.151 1062.4 182.151Z" fill="white"/>
<path d="M982.914 192.263C976.258 192.263 970.37 190.77 965.25 187.784C960.13 184.712 956.076 180.616 953.09 175.496C950.103 170.29 948.61 164.488 948.61 158.088C948.61 151.688 950.103 145.928 953.09 140.808C956.076 135.602 960.13 131.506 965.25 128.519C970.37 125.447 976.258 123.911 982.914 123.911C989.57 123.911 995.458 125.447 1000.58 128.519C1005.78 131.506 1009.84 135.559 1012.74 140.679C1015.72 145.799 1017.22 151.602 1017.22 158.088C1017.22 164.488 1015.72 170.29 1012.74 175.496C1009.84 180.616 1005.78 184.712 1000.58 187.784C995.458 190.77 989.57 192.263 982.914 192.263ZM982.914 182.151C987.436 182.151 991.362 181.085 994.69 178.951C998.018 176.818 1000.62 173.959 1002.5 170.375C1004.37 166.706 1005.31 162.61 1005.31 158.088C1005.31 153.565 1004.37 149.511 1002.5 145.927C1000.62 142.258 998.018 139.357 994.69 137.224C991.362 135.09 987.436 134.023 982.914 134.023C978.476 134.023 974.551 135.09 971.138 137.224C967.81 139.357 965.207 142.258 963.33 145.927C961.452 149.511 960.514 153.565 960.514 158.088C960.514 162.61 961.452 166.706 963.33 170.375C965.207 173.959 967.81 176.818 971.138 178.951C974.551 181.085 978.476 182.151 982.914 182.151Z" fill="white"/>
<path d="M924.341 190.727C918.538 190.727 913.973 189.063 910.645 185.735C907.402 182.407 905.781 177.885 905.781 172.167V109.063H917.557V171.399C917.557 174.215 918.325 176.477 919.861 178.183C921.482 179.805 923.701 180.615 926.517 180.615H939.701V190.727H924.341ZM894.517 135.559V125.447H939.957V135.559H894.517Z" fill="white"/>
<path d="M879.412 192.007C877.108 192.007 875.102 191.197 873.396 189.575C871.774 187.869 870.964 185.863 870.964 183.559C870.964 181.255 871.774 179.293 873.396 177.671C875.102 175.965 877.108 175.111 879.412 175.111C881.716 175.111 883.678 175.965 885.3 177.671C887.006 179.293 887.86 181.255 887.86 183.559C887.86 185.095 887.476 186.503 886.708 187.783C886.025 189.063 885.044 190.087 883.764 190.855C882.484 191.623 881.033 192.007 879.412 192.007Z" fill="white"/>
<path d="M823.774 192.263C818.824 192.263 814.302 191.495 810.206 189.959C806.11 188.338 802.568 185.991 799.582 182.919C796.595 179.847 794.248 176.178 792.542 171.911C790.92 167.559 790.11 162.695 790.11 157.319C790.11 150.493 791.475 144.605 794.206 139.655C797.022 134.621 800.819 130.738 805.598 128.007C810.462 125.277 815.88 123.911 821.854 123.911C825.182 123.911 828.339 124.466 831.326 125.575C834.398 126.685 837.128 128.221 839.518 130.183C841.907 132.146 843.784 134.45 845.15 137.095H845.406V97.2875H857.182V157.703C857.182 164.957 855.688 171.186 852.702 176.391C849.8 181.511 845.832 185.437 840.798 188.167C835.848 190.898 830.174 192.263 823.774 192.263ZM823.774 182.151C827.784 182.151 831.411 181.17 834.654 179.207C837.896 177.245 840.456 174.471 842.334 170.887C844.296 167.303 845.278 163.079 845.278 158.215C845.278 153.266 844.296 148.999 842.334 145.415C840.456 141.746 837.896 138.93 834.654 136.967C831.411 135.005 827.742 134.023 823.646 134.023C819.635 134.023 815.966 135.047 812.638 137.095C809.395 139.143 806.792 141.959 804.83 145.543C802.952 149.127 802.014 153.309 802.014 158.087C802.014 163.037 802.995 167.303 804.958 170.887C806.92 174.471 809.523 177.245 812.766 179.207C816.094 181.17 819.763 182.151 823.774 182.151Z" fill="white"/>
<path d="M753.846 190.728C746.678 190.728 740.32 189.405 734.774 186.759C729.227 184.029 724.875 180.232 721.718 175.368C718.646 170.418 717.11 164.658 717.11 158.088C717.11 151.602 718.432 145.799 721.078 140.679C723.723 135.474 727.392 131.378 732.086 128.392C736.779 125.405 742.24 123.911 748.47 123.911C755.211 123.911 760.8 125.362 765.238 128.263C769.76 131.165 773.131 135.09 775.35 140.039C777.568 144.903 778.678 150.365 778.678 156.424C778.678 157.362 778.635 158.344 778.55 159.368C778.55 160.391 778.464 161.288 778.294 162.056H729.654C730.08 166.066 731.403 169.479 733.622 172.295C735.84 175.026 738.656 177.117 742.07 178.567C745.568 179.933 749.408 180.616 753.59 180.616H770.614V190.728H753.846ZM729.526 153.735H766.774C766.774 152.114 766.603 150.408 766.262 148.616C765.92 146.738 765.323 144.946 764.47 143.239C763.616 141.447 762.464 139.869 761.014 138.504C759.648 137.053 757.899 135.901 755.766 135.047C753.718 134.194 751.286 133.767 748.47 133.767C745.483 133.767 742.838 134.365 740.534 135.56C738.315 136.669 736.395 138.205 734.774 140.168C733.152 142.045 731.915 144.178 731.062 146.567C730.208 148.957 729.696 151.346 729.526 153.735Z" fill="white"/>
<path d="M641.069 190.728V152.967C641.069 147.165 642.349 142.087 644.909 137.735C647.554 133.383 651.181 130.013 655.789 127.623C660.397 125.149 665.645 123.911 671.533 123.911C677.506 123.911 682.754 125.149 687.277 127.623C691.885 130.013 695.469 133.383 698.029 137.735C700.674 142.087 701.997 147.165 701.997 152.967V190.728H690.221V153.095C690.221 149.17 689.325 145.799 687.533 142.983C685.826 140.082 683.522 137.863 680.621 136.327C677.805 134.791 674.775 134.023 671.533 134.023C668.29 134.023 665.218 134.791 662.317 136.327C659.501 137.863 657.197 140.082 655.405 142.983C653.698 145.799 652.845 149.17 652.845 153.095V190.728H641.069Z" fill="white"/>
<path d="M561.444 190.728V152.967C561.444 147.165 562.724 142.087 565.284 137.735C567.929 133.383 571.556 130.013 576.164 127.623C580.772 125.149 586.02 123.911 591.908 123.911C597.881 123.911 603.129 125.149 607.652 127.623C612.26 130.013 615.844 133.383 618.404 137.735C621.049 142.087 622.372 147.165 622.372 152.967V190.728H610.596V153.095C610.596 149.17 609.7 145.799 607.908 142.983C606.201 140.082 603.897 137.863 600.996 136.327C598.18 134.791 595.15 134.023 591.908 134.023C588.665 134.023 585.593 134.791 582.692 136.327C579.876 137.863 577.572 140.082 575.78 142.983C574.073 145.799 573.22 149.17 573.22 153.095V190.728H561.444Z" fill="white"/>
<path d="M505.83 192.263C499.515 192.263 494.054 190.77 489.446 187.784C484.838 184.712 481.296 180.573 478.822 175.368C476.347 170.162 475.11 164.402 475.11 158.088C475.11 151.688 476.475 145.928 479.206 140.808C481.936 135.602 485.862 131.506 490.982 128.519C496.102 125.447 502.246 123.911 509.414 123.911C516.326 123.911 522.256 125.405 527.206 128.392C532.155 131.378 535.952 135.431 538.598 140.551C541.328 145.671 542.694 151.389 542.694 157.703V190.728H530.79V177.416H530.534C529.254 179.89 527.504 182.28 525.286 184.584C523.152 186.802 520.464 188.637 517.222 190.088C513.979 191.538 510.182 192.263 505.83 192.263ZM508.902 182.151C513.168 182.151 516.923 181.128 520.166 179.08C523.494 176.946 526.054 174.045 527.846 170.375C529.723 166.621 530.662 162.44 530.662 157.832C530.662 153.309 529.766 149.256 527.974 145.672C526.267 142.088 523.792 139.272 520.55 137.224C517.307 135.09 513.51 134.023 509.158 134.023C504.55 134.023 500.582 135.09 497.254 137.224C494.011 139.357 491.494 142.258 489.702 145.927C487.995 149.511 487.142 153.607 487.142 158.215C487.142 162.653 487.995 166.706 489.702 170.375C491.408 173.959 493.883 176.818 497.126 178.951C500.368 181.085 504.294 182.151 508.902 182.151Z" fill="white"/>
<path d="M448.194 190.727V97.2875H459.97V190.727H448.194Z" fill="white"/>
<path d="M365.578 190.727V101.127H403.338C408.97 101.127 414.09 102.407 418.698 104.967C423.306 107.442 426.975 110.941 429.706 115.463C432.436 119.986 433.802 125.277 433.802 131.335C433.802 137.138 432.436 142.343 429.706 146.951C427.06 151.474 423.434 155.015 418.826 157.575C414.218 160.135 408.97 161.415 403.082 161.415H377.866V190.727H365.578ZM377.866 150.535H401.674C405.343 150.535 408.671 149.81 411.658 148.359C414.73 146.823 417.119 144.605 418.826 141.703C420.618 138.802 421.514 135.346 421.514 131.335C421.514 127.239 420.618 123.783 418.826 120.967C417.034 118.066 414.644 115.847 411.658 114.311C408.671 112.775 405.386 112.007 401.802 112.007H377.866V150.535Z" fill="white"/>
<defs>
<linearGradient id="paint0_linear_333_1106" x1="147.14" y1="132.283" x2="281.337" y2="133.443" gradientUnits="userSpaceOnUse">
<stop stop-color="#C64C58"/>
<stop offset="1" stop-color="#445879"/>
</linearGradient>
<linearGradient id="paint1_linear_333_1106" x1="66.7615" y1="89.3102" x2="159.771" y2="183.948" gradientUnits="userSpaceOnUse">
<stop stop-color="#445879"/>
<stop offset="1" stop-color="#C64C58"/>
</linearGradient>
</defs>
</svg>
