<svg width="1397" height="424" viewBox="0 0 1397 424" fill="none" xmlns="http://www.w3.org/2000/svg">
<rect x="0.5" y="0.5" width="1395.6" height="422.999" rx="14.5" fill="url(#paint0_linear_325_987)"/>
<rect x="0.5" y="0.5" width="1395.6" height="422.999" rx="14.5" stroke="#445879"/>
<rect x="197" y="60" width="214.96" height="214.96" rx="40" transform="rotate(45 197 60)" fill="url(#paint1_linear_325_987)"/>
<path d="M179.004 88.8624C194.625 73.2414 219.951 73.2414 235.572 88.8624L329.293 182.583C344.914 198.204 344.914 223.53 329.293 239.151L236.151 332.293C220.53 347.914 195.203 347.914 179.582 332.293L85.8619 238.573C70.2409 222.952 70.2409 197.625 85.8619 182.004L179.004 88.8624Z" fill="url(#paint2_linear_325_987)"/>
<rect x="198.419" y="70.5781" width="200" height="200" rx="40" transform="rotate(45 198.419 70.5781)" fill="#2C3135"/>
<rect opacity="0.4" x="197.578" y="81.7344" width="183.03" height="183.03" rx="32" transform="rotate(45 197.578 81.7344)" fill="#445879"/>
<path fill-rule="evenodd" clip-rule="evenodd" d="M158 301L153 296L153 164.578L220.917 164.578C228.324 164.578 235.269 166.528 241.75 170.426C248.232 174.279 253.394 179.454 257.236 185.952C261.079 192.449 263 199.388 263 206.768C263 213.359 261.866 219.439 259.598 225.009C257.329 230.532 254.273 235.127 250.431 238.793C246.588 242.46 242.121 245.314 237.028 247.357C231.935 249.352 226.565 250.35 220.917 250.35H191.889V245.338H220.917C225.871 245.338 230.616 244.363 235.153 242.414C239.69 240.418 243.625 237.749 246.959 234.407C250.338 231.019 253.023 226.935 255.014 222.154C257.005 217.327 258 212.198 258 206.768C258 200.27 256.31 194.167 252.931 188.458C249.551 182.703 244.991 178.131 239.25 174.743C233.556 171.308 227.445 169.591 220.917 169.591L158 169.591L158 301ZM168 311L163 306L163 174.603L220.917 174.603C226.519 174.603 231.797 176.089 236.75 179.059C241.704 182.03 245.639 185.998 248.556 190.964C251.519 195.93 253 201.198 253 206.768C253 213.08 251.519 218.836 248.556 224.034C245.593 229.186 241.658 233.2 236.75 236.078C231.889 238.909 226.611 240.325 220.917 240.325H191.889V235.312H220.917C225.732 235.312 230.176 234.152 234.25 231.831C238.371 229.464 241.681 226.076 244.181 221.667C246.727 217.257 248 212.291 248 206.768C248 199.62 245.269 193.308 239.806 187.831C234.389 182.355 228.093 179.616 220.917 179.616L168 179.616L168 311ZM178 320.64C176.942 319.819 175.923 318.923 174.951 317.951L173 316L173 184.629L220.917 184.629C226.75 184.629 231.889 186.88 236.334 191.382C240.778 195.884 243 201.013 243 206.768C243 213.869 240.847 219.578 236.542 223.895C232.236 228.165 227.028 230.3 220.917 230.3H191.889V225.287L220.917 225.287C225.685 225.287 229.713 223.686 233 220.483C236.334 217.234 238 212.663 238 206.768C238 202.359 236.264 198.414 232.792 194.933C229.32 191.405 225.361 189.641 220.917 189.641L178 189.641L178 320.64ZM188 325.863C186.291 325.329 184.618 324.647 183 323.819L183 194.654L220.917 194.654C224.204 194.654 227.028 195.861 229.389 198.274C231.797 200.688 233 203.519 233 206.768C233 215.772 228.972 220.274 220.917 220.274L191.889 220.274V215.262L220.917 215.262C223.139 215.262 224.875 214.635 226.125 213.382C227.375 212.129 228 209.924 228 206.768C228 204.726 227.306 203.032 225.917 201.686C224.574 200.34 222.908 199.667 220.917 199.667L188 199.667L188 325.863Z" fill="#F3E9DD"/>
<path d="M1255.25 266.984V242.024C1250.47 241.341 1246.21 239.763 1242.45 237.288C1238.78 234.728 1235.88 231.443 1233.75 227.432C1231.61 223.336 1230.55 218.685 1230.55 213.48V175.72H1242.45V213.352C1242.45 217.277 1243.3 220.691 1245.01 223.592C1246.72 226.408 1248.98 228.584 1251.79 230.12C1254.7 231.656 1257.77 232.424 1261.01 232.424C1264.34 232.424 1267.41 231.656 1270.23 230.12C1273.13 228.584 1275.43 226.408 1277.14 223.592C1278.93 220.691 1279.83 217.277 1279.83 213.352V175.72H1291.6V213.48C1291.6 218.685 1290.54 223.293 1288.4 227.304C1286.35 231.315 1283.45 234.6 1279.7 237.16C1276.03 239.635 1271.81 241.256 1267.03 242.024V266.984H1255.25Z" fill="white"/>
<path d="M1174.93 242.536C1168.62 242.536 1163.16 241.043 1158.55 238.056C1153.94 234.984 1150.4 230.845 1147.92 225.64C1145.45 220.435 1144.21 214.675 1144.21 208.36C1144.21 201.96 1145.58 196.2 1148.31 191.08C1151.04 185.875 1154.96 181.779 1160.08 178.792C1165.2 175.72 1171.35 174.184 1178.52 174.184C1185.43 174.184 1191.36 175.677 1196.31 178.664C1201.26 181.651 1205.06 185.704 1207.7 190.824C1210.43 195.944 1211.8 201.661 1211.8 207.976V241H1199.89V227.688H1199.64C1198.36 230.163 1196.61 232.552 1194.39 234.856C1192.26 237.075 1189.57 238.909 1186.32 240.36C1183.08 241.811 1179.28 242.536 1174.93 242.536ZM1178 232.424C1182.27 232.424 1186.03 231.4 1189.27 229.352C1192.6 227.219 1195.16 224.317 1196.95 220.648C1198.83 216.893 1199.76 212.712 1199.76 208.104C1199.76 203.581 1198.87 199.528 1197.08 195.944C1195.37 192.36 1192.9 189.544 1189.65 187.496C1186.41 185.363 1182.61 184.296 1178.26 184.296C1173.65 184.296 1169.68 185.363 1166.36 187.496C1163.11 189.629 1160.6 192.531 1158.8 196.2C1157.1 199.784 1156.24 203.88 1156.24 208.488C1156.24 212.925 1157.1 216.979 1158.8 220.648C1160.51 224.232 1162.99 227.091 1166.23 229.224C1169.47 231.357 1173.4 232.424 1178 232.424Z" fill="white"/>
<path d="M1096.13 242.536C1091.18 242.536 1086.65 241.768 1082.56 240.232C1078.46 238.611 1074.92 236.264 1071.93 233.192C1068.95 230.12 1066.6 226.451 1064.89 222.184C1063.27 217.832 1062.46 212.968 1062.46 207.592C1062.46 200.765 1063.83 194.877 1066.56 189.928C1069.37 184.893 1073.17 181.011 1077.95 178.28C1082.81 175.549 1088.23 174.184 1094.21 174.184C1097.53 174.184 1100.69 174.739 1103.68 175.848C1106.75 176.957 1109.48 178.493 1111.87 180.456C1114.26 182.419 1116.14 184.723 1117.5 187.368H1117.76V147.56H1129.53V207.976C1129.53 215.229 1128.04 221.459 1125.05 226.664C1122.15 231.784 1118.19 235.709 1113.15 238.44C1108.2 241.171 1102.53 242.536 1096.13 242.536ZM1096.13 232.424C1100.14 232.424 1103.76 231.443 1107.01 229.48C1110.25 227.517 1112.81 224.744 1114.69 221.16C1116.65 217.576 1117.63 213.352 1117.63 208.488C1117.63 203.539 1116.65 199.272 1114.69 195.688C1112.81 192.019 1110.25 189.203 1107.01 187.24C1103.76 185.277 1100.09 184.296 1096 184.296C1091.99 184.296 1088.32 185.32 1084.99 187.368C1081.75 189.416 1079.15 192.232 1077.18 195.816C1075.31 199.4 1074.37 203.581 1074.37 208.36C1074.37 213.309 1075.35 217.576 1077.31 221.16C1079.27 224.744 1081.88 227.517 1085.12 229.48C1088.45 231.443 1092.12 232.424 1096.13 232.424Z" fill="white"/>
<path d="M1016.64 242.536C1009.99 242.536 1004.1 241.043 998.978 238.056C993.858 234.984 989.804 230.888 986.818 225.768C983.831 220.563 982.338 214.76 982.338 208.36C982.338 201.96 983.831 196.2 986.818 191.08C989.804 185.875 993.858 181.779 998.978 178.792C1004.1 175.72 1009.99 174.184 1016.64 174.184C1023.3 174.184 1029.19 175.72 1034.31 178.792C1039.51 181.779 1043.56 185.832 1046.47 190.952C1049.45 196.072 1050.95 201.875 1050.95 208.36C1050.95 214.76 1049.45 220.563 1046.47 225.768C1043.56 230.888 1039.51 234.984 1034.31 238.056C1029.19 241.043 1023.3 242.536 1016.64 242.536ZM1016.64 232.424C1021.16 232.424 1025.09 231.357 1028.42 229.224C1031.75 227.091 1034.35 224.232 1036.23 220.648C1038.1 216.979 1039.04 212.883 1039.04 208.36C1039.04 203.837 1038.1 199.784 1036.23 196.2C1034.35 192.531 1031.75 189.629 1028.42 187.496C1025.09 185.363 1021.16 184.296 1016.64 184.296C1012.2 184.296 1008.28 185.363 1004.87 187.496C1001.54 189.629 998.935 192.531 997.058 196.2C995.18 199.784 994.242 203.837 994.242 208.36C994.242 212.883 995.18 216.979 997.058 220.648C998.935 224.232 1001.54 227.091 1004.87 229.224C1008.28 231.357 1012.2 232.424 1016.64 232.424Z" fill="white"/>
<path d="M958.069 241C952.266 241 947.701 239.336 944.373 236.008C941.13 232.68 939.509 228.157 939.509 222.44V159.336H951.285V221.672C951.285 224.488 952.053 226.749 953.589 228.456C955.21 230.077 957.429 230.888 960.245 230.888H973.429V241H958.069ZM928.245 185.832V175.72H973.685V185.832H928.245Z" fill="white"/>
<path d="M913.14 242.28C910.836 242.28 908.83 241.469 907.124 239.848C905.502 238.141 904.692 236.136 904.692 233.832C904.692 231.528 905.502 229.565 907.124 227.944C908.83 226.237 910.836 225.384 913.14 225.384C915.444 225.384 917.406 226.237 919.028 227.944C920.734 229.565 921.588 231.528 921.588 233.832C921.588 235.368 921.204 236.776 920.436 238.056C919.753 239.336 918.772 240.36 917.492 241.128C916.212 241.896 914.761 242.28 913.14 242.28Z" fill="white"/>
<path d="M857.502 242.536C852.552 242.536 848.03 241.768 843.934 240.232C839.838 238.611 836.296 236.264 833.31 233.192C830.323 230.12 827.976 226.451 826.27 222.184C824.648 217.832 823.838 212.968 823.838 207.592C823.838 200.765 825.203 194.877 827.934 189.928C830.75 184.893 834.547 181.011 839.326 178.28C844.19 175.549 849.608 174.184 855.582 174.184C858.91 174.184 862.067 174.739 865.054 175.848C868.126 176.957 870.856 178.493 873.246 180.456C875.635 182.419 877.512 184.723 878.878 187.368H879.134V147.56H890.91V207.976C890.91 215.229 889.416 221.459 886.43 226.664C883.528 231.784 879.56 235.709 874.526 238.44C869.576 241.171 863.902 242.536 857.502 242.536ZM857.502 232.424C861.512 232.424 865.139 231.443 868.382 229.48C871.624 227.517 874.184 224.744 876.062 221.16C878.024 217.576 879.006 213.352 879.006 208.488C879.006 203.539 878.024 199.272 876.062 195.688C874.184 192.019 871.624 189.203 868.382 187.24C865.139 185.277 861.47 184.296 857.374 184.296C853.363 184.296 849.694 185.32 846.366 187.368C843.123 189.416 840.52 192.232 838.558 195.816C836.68 199.4 835.742 203.581 835.742 208.36C835.742 213.309 836.723 217.576 838.686 221.16C840.648 224.744 843.251 227.517 846.494 229.48C849.822 231.443 853.491 232.424 857.502 232.424Z" fill="white"/>
<path d="M787.574 241C780.406 241 774.048 239.677 768.502 237.032C762.955 234.301 758.603 230.504 755.446 225.64C752.374 220.691 750.838 214.931 750.838 208.36C750.838 201.875 752.16 196.072 754.806 190.952C757.451 185.747 761.12 181.651 765.814 178.664C770.507 175.677 775.968 174.184 782.198 174.184C788.939 174.184 794.528 175.635 798.966 178.536C803.488 181.437 806.859 185.363 809.078 190.312C811.296 195.176 812.406 200.637 812.406 206.696C812.406 207.635 812.363 208.616 812.278 209.64C812.278 210.664 812.192 211.56 812.022 212.328H763.382C763.808 216.339 765.131 219.752 767.35 222.568C769.568 225.299 772.384 227.389 775.798 228.84C779.296 230.205 783.136 230.888 787.318 230.888H804.342V241H787.574ZM763.254 204.008H800.502C800.502 202.387 800.331 200.68 799.99 198.888C799.648 197.011 799.051 195.219 798.198 193.512C797.344 191.72 796.192 190.141 794.742 188.776C793.376 187.325 791.627 186.173 789.494 185.32C787.446 184.467 785.014 184.04 782.198 184.04C779.211 184.04 776.566 184.637 774.262 185.832C772.043 186.941 770.123 188.477 768.502 190.44C766.88 192.317 765.643 194.451 764.79 196.84C763.936 199.229 763.424 201.619 763.254 204.008Z" fill="white"/>
<path d="M674.797 241V203.24C674.797 197.437 676.077 192.36 678.637 188.008C681.282 183.656 684.909 180.285 689.517 177.896C694.125 175.421 699.373 174.184 705.261 174.184C711.234 174.184 716.482 175.421 721.005 177.896C725.613 180.285 729.197 183.656 731.757 188.008C734.402 192.36 735.725 197.437 735.725 203.24V241H723.949V203.368C723.949 199.443 723.053 196.072 721.261 193.256C719.554 190.355 717.25 188.136 714.349 186.6C711.533 185.064 708.503 184.296 705.261 184.296C702.018 184.296 698.946 185.064 696.045 186.6C693.229 188.136 690.925 190.355 689.133 193.256C687.426 196.072 686.573 199.443 686.573 203.368V241H674.797Z" fill="white"/>
<path d="M595.172 241V203.24C595.172 197.437 596.452 192.36 599.012 188.008C601.657 183.656 605.284 180.285 609.892 177.896C614.5 175.421 619.748 174.184 625.636 174.184C631.609 174.184 636.857 175.421 641.38 177.896C645.988 180.285 649.572 183.656 652.132 188.008C654.777 192.36 656.1 197.437 656.1 203.24V241H644.324V203.368C644.324 199.443 643.428 196.072 641.636 193.256C639.929 190.355 637.625 188.136 634.724 186.6C631.908 185.064 628.878 184.296 625.636 184.296C622.393 184.296 619.321 185.064 616.42 186.6C613.604 188.136 611.3 190.355 609.508 193.256C607.801 196.072 606.948 199.443 606.948 203.368V241H595.172Z" fill="white"/>
<path d="M539.558 242.536C533.243 242.536 527.782 241.043 523.174 238.056C518.566 234.984 515.024 230.845 512.55 225.64C510.075 220.435 508.838 214.675 508.838 208.36C508.838 201.96 510.203 196.2 512.934 191.08C515.664 185.875 519.59 181.779 524.71 178.792C529.83 175.72 535.974 174.184 543.142 174.184C550.054 174.184 555.984 175.677 560.934 178.664C565.883 181.651 569.68 185.704 572.326 190.824C575.056 195.944 576.422 201.661 576.422 207.976V241H564.518V227.688H564.262C562.982 230.163 561.232 232.552 559.014 234.856C556.88 237.075 554.192 238.909 550.95 240.36C547.707 241.811 543.91 242.536 539.558 242.536ZM542.63 232.424C546.896 232.424 550.651 231.4 553.894 229.352C557.222 227.219 559.782 224.317 561.574 220.648C563.451 216.893 564.39 212.712 564.39 208.104C564.39 203.581 563.494 199.528 561.702 195.944C559.995 192.36 557.52 189.544 554.278 187.496C551.035 185.363 547.238 184.296 542.886 184.296C538.278 184.296 534.31 185.363 530.982 187.496C527.739 189.629 525.222 192.531 523.43 196.2C521.723 199.784 520.87 203.88 520.87 208.488C520.87 212.925 521.723 216.979 523.43 220.648C525.136 224.232 527.611 227.091 530.854 229.224C534.096 231.357 538.022 232.424 542.63 232.424Z" fill="white"/>
<path d="M481.922 241V147.56H493.698V241H481.922Z" fill="white"/>
<path d="M399.306 241V151.4H437.066C442.698 151.4 447.818 152.68 452.426 155.24C457.034 157.715 460.703 161.213 463.434 165.736C466.164 170.259 467.53 175.549 467.53 181.608C467.53 187.411 466.164 192.616 463.434 197.224C460.788 201.747 457.162 205.288 452.554 207.848C447.946 210.408 442.698 211.688 436.81 211.688H411.594V241H399.306ZM411.594 200.808H435.402C439.071 200.808 442.399 200.083 445.386 198.632C448.458 197.096 450.847 194.877 452.554 191.976C454.346 189.075 455.242 185.619 455.242 181.608C455.242 177.512 454.346 174.056 452.554 171.24C450.762 168.339 448.372 166.12 445.386 164.584C442.399 163.048 439.114 162.28 435.53 162.28H411.594V200.808Z" fill="white"/>
<path d="M1187.63 272.04C1188.99 272.04 1190.18 272.307 1191.18 272.84C1192.2 273.352 1192.99 274.141 1193.55 275.208C1194.12 276.275 1194.41 277.619 1194.41 279.24V289H1192.14V279.464C1192.14 277.693 1191.71 276.36 1190.86 275.464C1190.03 274.547 1188.84 274.088 1187.31 274.088C1186.16 274.088 1185.15 274.333 1184.3 274.824C1183.47 275.293 1182.82 275.987 1182.35 276.904C1181.9 277.8 1181.68 278.888 1181.68 280.168V289H1179.4V279.464C1179.4 277.693 1178.98 276.36 1178.12 275.464C1177.27 274.547 1176.08 274.088 1174.54 274.088C1173.41 274.088 1172.42 274.333 1171.56 274.824C1170.71 275.293 1170.05 275.987 1169.58 276.904C1169.13 277.8 1168.91 278.888 1168.91 280.168V289H1166.64V272.2H1168.81V276.744L1168.46 275.944C1168.97 274.728 1169.79 273.779 1170.92 273.096C1172.08 272.392 1173.43 272.04 1174.99 272.04C1176.63 272.04 1178.03 272.456 1179.18 273.288C1180.33 274.099 1181.08 275.325 1181.42 276.968L1180.52 276.616C1181.02 275.251 1181.88 274.152 1183.12 273.32C1184.38 272.467 1185.88 272.04 1187.63 272.04Z" fill="white"/>
<path d="M1154.46 289.16C1152.71 289.16 1151.17 288.797 1149.85 288.072C1148.53 287.325 1147.49 286.312 1146.75 285.032C1146 283.731 1145.63 282.248 1145.63 280.584C1145.63 278.92 1145.98 277.448 1146.68 276.168C1147.41 274.888 1148.39 273.885 1149.63 273.16C1150.89 272.413 1152.29 272.04 1153.85 272.04C1155.43 272.04 1156.83 272.403 1158.04 273.128C1159.28 273.832 1160.25 274.835 1160.96 276.136C1161.66 277.416 1162.01 278.899 1162.01 280.584C1162.01 280.691 1162 280.808 1161.98 280.936C1161.98 281.043 1161.98 281.16 1161.98 281.288H1147.36V279.592H1160.76L1159.87 280.264C1159.87 279.048 1159.6 277.971 1159.07 277.032C1158.56 276.072 1157.85 275.325 1156.96 274.792C1156.06 274.259 1155.03 273.992 1153.85 273.992C1152.7 273.992 1151.67 274.259 1150.75 274.792C1149.83 275.325 1149.12 276.072 1148.6 277.032C1148.09 277.992 1147.84 279.091 1147.84 280.328V280.68C1147.84 281.96 1148.11 283.091 1148.67 284.072C1149.24 285.032 1150.03 285.789 1151.04 286.344C1152.06 286.877 1153.22 287.144 1154.52 287.144C1155.55 287.144 1156.5 286.963 1157.37 286.6C1158.27 286.237 1159.04 285.683 1159.68 284.936L1160.96 286.408C1160.21 287.304 1159.27 287.987 1158.14 288.456C1157.03 288.925 1155.8 289.16 1154.46 289.16Z" fill="white"/>
<path d="M1140.23 289.16C1138.65 289.16 1137.44 288.733 1136.58 287.88C1135.73 287.027 1135.3 285.821 1135.3 284.264V268.488H1137.57V284.136C1137.57 285.117 1137.82 285.875 1138.31 286.408C1138.82 286.941 1139.55 287.208 1140.49 287.208C1141.49 287.208 1142.32 286.92 1142.98 286.344L1143.78 287.976C1143.33 288.381 1142.79 288.68 1142.15 288.872C1141.53 289.064 1140.89 289.16 1140.23 289.16ZM1132.29 274.088V272.2H1142.69V274.088H1132.29Z" fill="white"/>
<path d="M1123.8 289.16C1122.42 289.16 1121.11 288.968 1119.87 288.584C1118.63 288.179 1117.66 287.677 1116.96 287.08L1117.98 285.288C1118.66 285.8 1119.54 286.248 1120.6 286.632C1121.67 286.995 1122.79 287.176 1123.96 287.176C1125.56 287.176 1126.72 286.931 1127.42 286.44C1128.12 285.928 1128.48 285.256 1128.48 284.424C1128.48 283.805 1128.27 283.325 1127.87 282.984C1127.48 282.621 1126.97 282.355 1126.33 282.184C1125.69 281.992 1124.98 281.832 1124.19 281.704C1123.4 281.576 1122.61 281.427 1121.82 281.256C1121.05 281.085 1120.35 280.84 1119.71 280.52C1119.07 280.179 1118.55 279.72 1118.14 279.144C1117.76 278.568 1117.56 277.8 1117.56 276.84C1117.56 275.923 1117.82 275.101 1118.33 274.376C1118.84 273.651 1119.59 273.085 1120.57 272.68C1121.58 272.253 1122.79 272.04 1124.22 272.04C1125.31 272.04 1126.4 272.189 1127.48 272.488C1128.57 272.765 1129.47 273.139 1130.17 273.608L1129.18 275.432C1128.43 274.92 1127.63 274.557 1126.78 274.344C1125.93 274.109 1125.07 273.992 1124.22 273.992C1122.71 273.992 1121.59 274.259 1120.86 274.792C1120.16 275.304 1119.8 275.965 1119.8 276.776C1119.8 277.416 1120 277.917 1120.38 278.28C1120.79 278.643 1121.31 278.931 1121.95 279.144C1122.61 279.336 1123.32 279.496 1124.09 279.624C1124.88 279.752 1125.66 279.912 1126.43 280.104C1127.22 280.275 1127.93 280.52 1128.57 280.84C1129.23 281.139 1129.76 281.576 1130.14 282.152C1130.55 282.707 1130.75 283.443 1130.75 284.36C1130.75 285.341 1130.47 286.195 1129.92 286.92C1129.38 287.624 1128.59 288.179 1127.55 288.584C1126.52 288.968 1125.28 289.16 1123.8 289.16Z" fill="white"/>
<path d="M1102.26 295.368C1101.48 295.368 1100.72 295.24 1099.99 294.984C1099.29 294.728 1098.68 294.344 1098.17 293.832L1099.22 292.136C1099.65 292.541 1100.11 292.851 1100.6 293.064C1101.11 293.299 1101.68 293.416 1102.3 293.416C1103.04 293.416 1103.68 293.203 1104.22 292.776C1104.77 292.371 1105.29 291.645 1105.78 290.6L1106.87 288.136L1107.13 287.784L1114.04 272.2H1116.28L1107.86 291.016C1107.4 292.104 1106.87 292.968 1106.3 293.608C1105.74 294.248 1105.13 294.696 1104.47 294.952C1103.81 295.229 1103.08 295.368 1102.26 295.368ZM1106.74 289.48L1099 272.2H1101.37L1108.22 287.624L1106.74 289.48Z" fill="white"/>
<path d="M1091.34 289.16C1089.95 289.16 1088.64 288.968 1087.4 288.584C1086.16 288.179 1085.19 287.677 1084.49 287.08L1085.51 285.288C1086.19 285.8 1087.07 286.248 1088.14 286.632C1089.2 286.995 1090.32 287.176 1091.5 287.176C1093.1 287.176 1094.25 286.931 1094.95 286.44C1095.66 285.928 1096.01 285.256 1096.01 284.424C1096.01 283.805 1095.81 283.325 1095.4 282.984C1095.02 282.621 1094.5 282.355 1093.86 282.184C1093.22 281.992 1092.51 281.832 1091.72 281.704C1090.93 281.576 1090.14 281.427 1089.35 281.256C1088.58 281.085 1087.88 280.84 1087.24 280.52C1086.6 280.179 1086.08 279.72 1085.67 279.144C1085.29 278.568 1085.1 277.8 1085.1 276.84C1085.1 275.923 1085.35 275.101 1085.86 274.376C1086.38 273.651 1087.12 273.085 1088.1 272.68C1089.11 272.253 1090.32 272.04 1091.75 272.04C1092.84 272.04 1093.93 272.189 1095.02 272.488C1096.1 272.765 1097 273.139 1097.7 273.608L1096.71 275.432C1095.97 274.92 1095.17 274.557 1094.31 274.344C1093.46 274.109 1092.61 273.992 1091.75 273.992C1090.24 273.992 1089.12 274.259 1088.39 274.792C1087.69 275.304 1087.34 275.965 1087.34 276.776C1087.34 277.416 1087.53 277.917 1087.91 278.28C1088.32 278.643 1088.84 278.931 1089.48 279.144C1090.14 279.336 1090.86 279.496 1091.62 279.624C1092.41 279.752 1093.19 279.912 1093.96 280.104C1094.75 280.275 1095.46 280.52 1096.1 280.84C1096.77 281.139 1097.29 281.576 1097.67 282.152C1098.08 282.707 1098.28 283.443 1098.28 284.36C1098.28 285.341 1098 286.195 1097.45 286.92C1096.91 287.624 1096.13 288.179 1095.08 288.584C1094.06 288.968 1092.81 289.16 1091.34 289.16Z" fill="white"/>
<path d="M1065.4 272.04C1066.77 272.04 1067.96 272.307 1068.98 272.84C1070.03 273.352 1070.84 274.141 1071.42 275.208C1072.01 276.275 1072.31 277.619 1072.31 279.24V289H1070.04V279.464C1070.04 277.693 1069.59 276.36 1068.7 275.464C1067.82 274.547 1066.58 274.088 1064.98 274.088C1063.79 274.088 1062.74 274.333 1061.85 274.824C1060.97 275.293 1060.29 275.987 1059.8 276.904C1059.33 277.8 1059.1 278.888 1059.1 280.168V289H1056.82V272.2H1059V276.808L1058.65 275.944C1059.18 274.728 1060.03 273.779 1061.21 273.096C1062.38 272.392 1063.78 272.04 1065.4 272.04Z" fill="white"/>
<path d="M1043.61 289.16C1041.99 289.16 1040.53 288.797 1039.23 288.072C1037.95 287.325 1036.93 286.312 1036.19 285.032C1035.44 283.731 1035.07 282.248 1035.07 280.584C1035.07 278.899 1035.44 277.416 1036.19 276.136C1036.93 274.856 1037.95 273.853 1039.23 273.128C1040.51 272.403 1041.97 272.04 1043.61 272.04C1045.27 272.04 1046.75 272.403 1048.03 273.128C1049.33 273.853 1050.34 274.856 1051.07 276.136C1051.81 277.416 1052.19 278.899 1052.19 280.584C1052.19 282.248 1051.81 283.731 1051.07 285.032C1050.34 286.312 1049.33 287.325 1048.03 288.072C1046.72 288.797 1045.25 289.16 1043.61 289.16ZM1043.61 287.144C1044.83 287.144 1045.9 286.877 1046.84 286.344C1047.78 285.789 1048.52 285.021 1049.05 284.04C1049.6 283.037 1049.88 281.885 1049.88 280.584C1049.88 279.261 1049.6 278.109 1049.05 277.128C1048.52 276.147 1047.78 275.389 1046.84 274.856C1045.9 274.301 1044.84 274.024 1043.64 274.024C1042.45 274.024 1041.38 274.301 1040.44 274.856C1039.5 275.389 1038.76 276.147 1038.2 277.128C1037.65 278.109 1037.37 279.261 1037.37 280.584C1037.37 281.885 1037.65 283.037 1038.2 284.04C1038.76 285.021 1039.5 285.789 1040.44 286.344C1041.38 286.877 1042.44 287.144 1043.61 287.144Z" fill="white"/>
<path d="M1028.17 289V272.2H1030.44V289H1028.17ZM1029.32 268.488C1028.85 268.488 1028.46 268.328 1028.14 268.008C1027.82 267.688 1027.66 267.304 1027.66 266.856C1027.66 266.408 1027.82 266.035 1028.14 265.736C1028.46 265.416 1028.85 265.256 1029.32 265.256C1029.79 265.256 1030.18 265.405 1030.5 265.704C1030.82 266.003 1030.98 266.376 1030.98 266.824C1030.98 267.293 1030.82 267.688 1030.5 268.008C1030.21 268.328 1029.81 268.488 1029.32 268.488Z" fill="white"/>
<path d="M1020.48 289.16C1018.9 289.16 1017.69 288.733 1016.83 287.88C1015.98 287.027 1015.55 285.821 1015.55 284.264V268.488H1017.82V284.136C1017.82 285.117 1018.07 285.875 1018.56 286.408C1019.07 286.941 1019.8 287.208 1020.74 287.208C1021.74 287.208 1022.57 286.92 1023.23 286.344L1024.03 287.976C1023.58 288.381 1023.04 288.68 1022.4 288.872C1021.78 289.064 1021.14 289.16 1020.48 289.16ZM1012.54 274.088V272.2H1022.94V274.088H1012.54Z" fill="white"/>
<path d="M1006.82 289V285.288L1006.72 284.68V278.472C1006.72 277.043 1006.32 275.944 1005.51 275.176C1004.72 274.408 1003.54 274.024 1001.96 274.024C1000.87 274.024 999.834 274.205 998.853 274.568C997.872 274.931 997.04 275.411 996.357 276.008L995.333 274.312C996.186 273.587 997.21 273.032 998.405 272.648C999.6 272.243 1000.86 272.04 1002.18 272.04C1004.36 272.04 1006.03 272.584 1007.21 273.672C1008.4 274.739 1009 276.371 1009 278.568V289H1006.82ZM1001.03 289.16C999.77 289.16 998.672 288.957 997.733 288.552C996.816 288.125 996.112 287.549 995.621 286.824C995.13 286.077 994.885 285.224 994.885 284.264C994.885 283.389 995.088 282.6 995.493 281.896C995.92 281.171 996.602 280.595 997.541 280.168C998.501 279.72 999.781 279.496 1001.38 279.496H1007.17V281.192H1001.45C999.824 281.192 998.693 281.48 998.053 282.056C997.434 282.632 997.125 283.347 997.125 284.2C997.125 285.16 997.498 285.928 998.245 286.504C998.992 287.08 1000.04 287.368 1001.38 287.368C1002.66 287.368 1003.76 287.08 1004.68 286.504C1005.62 285.907 1006.3 285.053 1006.72 283.944L1007.24 285.512C1006.81 286.621 1006.06 287.507 1005 288.168C1003.95 288.829 1002.63 289.16 1001.03 289.16Z" fill="white"/>
<path d="M983.769 289L976.313 272.2H978.681L985.529 287.784H984.409L991.353 272.2H993.593L986.105 289H983.769Z" fill="white"/>
<path d="M966.137 289V272.2H968.313V276.776L968.089 275.976C968.558 274.696 969.347 273.725 970.457 273.064C971.566 272.381 972.942 272.04 974.585 272.04V274.248C974.499 274.248 974.414 274.248 974.329 274.248C974.243 274.227 974.158 274.216 974.073 274.216C972.302 274.216 970.915 274.76 969.913 275.848C968.91 276.915 968.409 278.44 968.409 280.424V289H966.137Z" fill="white"/>
<path d="M953.96 289.16C952.211 289.16 950.675 288.797 949.352 288.072C948.03 287.325 946.995 286.312 946.248 285.032C945.502 283.731 945.128 282.248 945.128 280.584C945.128 278.92 945.48 277.448 946.184 276.168C946.91 274.888 947.891 273.885 949.128 273.16C950.387 272.413 951.795 272.04 953.352 272.04C954.931 272.04 956.328 272.403 957.544 273.128C958.782 273.832 959.752 274.835 960.456 276.136C961.16 277.416 961.512 278.899 961.512 280.584C961.512 280.691 961.501 280.808 961.48 280.936C961.48 281.043 961.48 281.16 961.48 281.288H946.856V279.592H960.264L959.368 280.264C959.368 279.048 959.102 277.971 958.568 277.032C958.056 276.072 957.352 275.325 956.456 274.792C955.56 274.259 954.526 273.992 953.352 273.992C952.2 273.992 951.166 274.259 950.248 274.792C949.331 275.325 948.616 276.072 948.104 277.032C947.592 277.992 947.336 279.091 947.336 280.328V280.68C947.336 281.96 947.614 283.091 948.168 284.072C948.744 285.032 949.534 285.789 950.536 286.344C951.56 286.877 952.723 287.144 954.024 287.144C955.048 287.144 955.998 286.963 956.872 286.6C957.768 286.237 958.536 285.683 959.176 284.936L960.456 286.408C959.71 287.304 958.771 287.987 957.64 288.456C956.531 288.925 955.304 289.16 953.96 289.16Z" fill="white"/>
<path d="M935.711 289.16C934.325 289.16 933.013 288.968 931.775 288.584C930.538 288.179 929.567 287.677 928.863 287.08L929.887 285.288C930.57 285.8 931.445 286.248 932.511 286.632C933.578 286.995 934.698 287.176 935.871 287.176C937.471 287.176 938.623 286.931 939.327 286.44C940.031 285.928 940.383 285.256 940.383 284.424C940.383 283.805 940.181 283.325 939.775 282.984C939.391 282.621 938.879 282.355 938.239 282.184C937.599 281.992 936.885 281.832 936.095 281.704C935.306 281.576 934.517 281.427 933.727 281.256C932.959 281.085 932.255 280.84 931.615 280.52C930.975 280.179 930.453 279.72 930.047 279.144C929.663 278.568 929.471 277.8 929.471 276.84C929.471 275.923 929.727 275.101 930.239 274.376C930.751 273.651 931.498 273.085 932.479 272.68C933.482 272.253 934.698 272.04 936.127 272.04C937.215 272.04 938.303 272.189 939.391 272.488C940.479 272.765 941.375 273.139 942.079 273.608L941.087 275.432C940.341 274.92 939.541 274.557 938.687 274.344C937.834 274.109 936.981 273.992 936.127 273.992C934.613 273.992 933.493 274.259 932.767 274.792C932.063 275.304 931.711 275.965 931.711 276.776C931.711 277.416 931.903 277.917 932.287 278.28C932.693 278.643 933.215 278.931 933.855 279.144C934.516 279.336 935.231 279.496 935.999 279.624C936.789 279.752 937.567 279.912 938.335 280.104C939.125 280.275 939.839 280.52 940.479 280.84C941.141 281.139 941.663 281.576 942.047 282.152C942.453 282.707 942.655 283.443 942.655 284.36C942.655 285.341 942.378 286.195 941.823 286.92C941.29 287.624 940.501 288.179 939.455 288.584C938.431 288.968 937.183 289.16 935.711 289.16Z" fill="white"/>
<path d="M919.023 289.16C917.273 289.16 915.737 288.797 914.415 288.072C913.092 287.325 912.057 286.312 911.311 285.032C910.564 283.731 910.191 282.248 910.191 280.584C910.191 278.92 910.543 277.448 911.247 276.168C911.972 274.888 912.953 273.885 914.191 273.16C915.449 272.413 916.857 272.04 918.415 272.04C919.993 272.04 921.391 272.403 922.607 273.128C923.844 273.832 924.815 274.835 925.519 276.136C926.223 277.416 926.575 278.899 926.575 280.584C926.575 280.691 926.564 280.808 926.543 280.936C926.543 281.043 926.543 281.16 926.543 281.288H911.919V279.592H925.327L924.431 280.264C924.431 279.048 924.164 277.971 923.631 277.032C923.119 276.072 922.415 275.325 921.519 274.792C920.623 274.259 919.588 273.992 918.415 273.992C917.263 273.992 916.228 274.259 915.311 274.792C914.393 275.325 913.679 276.072 913.167 277.032C912.655 277.992 912.399 279.091 912.399 280.328V280.68C912.399 281.96 912.676 283.091 913.231 284.072C913.807 285.032 914.596 285.789 915.599 286.344C916.623 286.877 917.785 287.144 919.087 287.144C920.111 287.144 921.06 286.963 921.935 286.6C922.831 286.237 923.599 285.683 924.239 284.936L925.519 286.408C924.772 287.304 923.833 287.987 922.703 288.456C921.593 288.925 920.367 289.16 919.023 289.16Z" fill="white"/>
<path d="M899.449 289V272.2H901.625V276.776L901.401 275.976C901.871 274.696 902.66 273.725 903.769 273.064C904.879 272.381 906.255 272.04 907.897 272.04V274.248C907.812 274.248 907.727 274.248 907.641 274.248C907.556 274.227 907.471 274.216 907.385 274.216C905.615 274.216 904.228 274.76 903.225 275.848C902.223 276.915 901.721 278.44 901.721 280.424V289H899.449Z" fill="white"/>
<path d="M878.129 272.04C879.494 272.04 880.678 272.307 881.681 272.84C882.705 273.352 883.494 274.141 884.049 275.208C884.625 276.275 884.913 277.619 884.913 279.24V289H882.641V279.464C882.641 277.693 882.214 276.36 881.361 275.464C880.529 274.547 879.345 274.088 877.809 274.088C876.657 274.088 875.654 274.333 874.801 274.824C873.969 275.293 873.318 275.987 872.849 276.904C872.401 277.8 872.177 278.888 872.177 280.168V289H869.905V279.464C869.905 277.693 869.478 276.36 868.625 275.464C867.771 274.547 866.577 274.088 865.041 274.088C863.91 274.088 862.918 274.333 862.065 274.824C861.211 275.293 860.55 275.987 860.081 276.904C859.633 277.8 859.409 278.888 859.409 280.168V289H857.137V272.2H859.313V276.744L858.961 275.944C859.473 274.728 860.294 273.779 861.425 273.096C862.577 272.392 863.931 272.04 865.489 272.04C867.131 272.04 868.529 272.456 869.681 273.288C870.833 274.099 871.579 275.325 871.921 276.968L871.025 276.616C871.515 275.251 872.379 274.152 873.617 273.32C874.875 272.467 876.379 272.04 878.129 272.04Z" fill="white"/>
<path d="M843.922 289.16C842.301 289.16 840.84 288.797 839.538 288.072C838.258 287.325 837.245 286.312 836.498 285.032C835.752 283.731 835.378 282.248 835.378 280.584C835.378 278.899 835.752 277.416 836.498 276.136C837.245 274.856 838.258 273.853 839.538 273.128C840.818 272.403 842.28 272.04 843.922 272.04C845.586 272.04 847.058 272.403 848.338 273.128C849.64 273.853 850.653 274.856 851.378 276.136C852.125 277.416 852.498 278.899 852.498 280.584C852.498 282.248 852.125 283.731 851.378 285.032C850.653 286.312 849.64 287.325 848.338 288.072C847.037 288.797 845.565 289.16 843.922 289.16ZM843.922 287.144C845.138 287.144 846.216 286.877 847.154 286.344C848.093 285.789 848.829 285.021 849.362 284.04C849.917 283.037 850.194 281.885 850.194 280.584C850.194 279.261 849.917 278.109 849.362 277.128C848.829 276.147 848.093 275.389 847.154 274.856C846.216 274.301 845.149 274.024 843.954 274.024C842.76 274.024 841.693 274.301 840.754 274.856C839.816 275.389 839.069 276.147 838.514 277.128C837.96 278.109 837.682 279.261 837.682 280.584C837.682 281.885 837.96 283.037 838.514 284.04C839.069 285.021 839.816 285.789 840.754 286.344C841.693 286.877 842.749 287.144 843.922 287.144Z" fill="white"/>
<path d="M823.86 289.16C822.238 289.16 820.777 288.797 819.476 288.072C818.196 287.325 817.182 286.312 816.436 285.032C815.689 283.731 815.316 282.248 815.316 280.584C815.316 278.899 815.689 277.416 816.436 276.136C817.182 274.856 818.196 273.853 819.476 273.128C820.756 272.403 822.217 272.04 823.86 272.04C825.524 272.04 826.996 272.403 828.276 273.128C829.577 273.853 830.59 274.856 831.316 276.136C832.062 277.416 832.436 278.899 832.436 280.584C832.436 282.248 832.062 283.731 831.316 285.032C830.59 286.312 829.577 287.325 828.276 288.072C826.974 288.797 825.502 289.16 823.86 289.16ZM823.86 287.144C825.076 287.144 826.153 286.877 827.092 286.344C828.03 285.789 828.766 285.021 829.3 284.04C829.854 283.037 830.132 281.885 830.132 280.584C830.132 279.261 829.854 278.109 829.3 277.128C828.766 276.147 828.03 275.389 827.092 274.856C826.153 274.301 825.086 274.024 823.892 274.024C822.697 274.024 821.63 274.301 820.692 274.856C819.753 275.389 819.006 276.147 818.452 277.128C817.897 278.109 817.62 279.261 817.62 280.584C817.62 281.885 817.897 283.037 818.452 284.04C819.006 285.021 819.753 285.789 820.692 286.344C821.63 286.877 822.686 287.144 823.86 287.144Z" fill="white"/>
<path d="M804.574 289V272.2H806.75V276.776L806.526 275.976C806.996 274.696 807.785 273.725 808.894 273.064C810.004 272.381 811.38 272.04 813.022 272.04V274.248C812.937 274.248 812.852 274.248 812.766 274.248C812.681 274.227 812.596 274.216 812.51 274.216C810.74 274.216 809.353 274.76 808.35 275.848C807.348 276.915 806.846 278.44 806.846 280.424V289H804.574Z" fill="white"/>
<path d="M784.023 289.16C782.273 289.16 780.737 288.797 779.415 288.072C778.092 287.325 777.057 286.312 776.311 285.032C775.564 283.731 775.191 282.248 775.191 280.584C775.191 278.92 775.543 277.448 776.247 276.168C776.972 274.888 777.953 273.885 779.191 273.16C780.449 272.413 781.857 272.04 783.415 272.04C784.993 272.04 786.391 272.403 787.607 273.128C788.844 273.832 789.815 274.835 790.519 276.136C791.223 277.416 791.575 278.899 791.575 280.584C791.575 280.691 791.564 280.808 791.543 280.936C791.543 281.043 791.543 281.16 791.543 281.288H776.919V279.592H790.327L789.431 280.264C789.431 279.048 789.164 277.971 788.631 277.032C788.119 276.072 787.415 275.325 786.519 274.792C785.623 274.259 784.588 273.992 783.415 273.992C782.263 273.992 781.228 274.259 780.311 274.792C779.393 275.325 778.679 276.072 778.167 277.032C777.655 277.992 777.399 279.091 777.399 280.328V280.68C777.399 281.96 777.676 283.091 778.231 284.072C778.807 285.032 779.596 285.789 780.599 286.344C781.623 286.877 782.785 287.144 784.087 287.144C785.111 287.144 786.06 286.963 786.935 286.6C787.831 286.237 788.599 285.683 789.239 284.936L790.519 286.408C789.772 287.304 788.833 287.987 787.703 288.456C786.593 288.925 785.367 289.16 784.023 289.16Z" fill="white"/>
<path d="M765.774 289.16C764.387 289.16 763.075 288.968 761.838 288.584C760.6 288.179 759.63 287.677 758.926 287.08L759.95 285.288C760.632 285.8 761.507 286.248 762.574 286.632C763.64 286.995 764.76 287.176 765.934 287.176C767.534 287.176 768.686 286.931 769.39 286.44C770.094 285.928 770.446 285.256 770.446 284.424C770.446 283.805 770.243 283.325 769.838 282.984C769.454 282.621 768.942 282.355 768.302 282.184C767.662 281.992 766.947 281.832 766.158 281.704C765.368 281.576 764.579 281.427 763.79 281.256C763.022 281.085 762.318 280.84 761.678 280.52C761.038 280.179 760.515 279.72 760.11 279.144C759.726 278.568 759.534 277.8 759.534 276.84C759.534 275.923 759.79 275.101 760.302 274.376C760.814 273.651 761.56 273.085 762.542 272.68C763.544 272.253 764.76 272.04 766.19 272.04C767.278 272.04 768.366 272.189 769.454 272.488C770.542 272.765 771.438 273.139 772.142 273.608L771.15 275.432C770.403 274.92 769.603 274.557 768.75 274.344C767.896 274.109 767.043 273.992 766.19 273.992C764.675 273.992 763.555 274.259 762.83 274.792C762.126 275.304 761.774 275.965 761.774 276.776C761.774 277.416 761.966 277.917 762.35 278.28C762.755 278.643 763.278 278.931 763.918 279.144C764.579 279.336 765.294 279.496 766.062 279.624C766.851 279.752 767.63 279.912 768.398 280.104C769.187 280.275 769.902 280.52 770.542 280.84C771.203 281.139 771.726 281.576 772.11 282.152C772.515 282.707 772.718 283.443 772.718 284.36C772.718 285.341 772.44 286.195 771.886 286.92C771.352 287.624 770.563 288.179 769.518 288.584C768.494 288.968 767.246 289.16 765.774 289.16Z" fill="white"/>
<path d="M746.706 289.16C745.276 289.16 744.028 288.893 742.962 288.36C741.895 287.827 741.063 287.027 740.466 285.96C739.89 284.893 739.602 283.56 739.602 281.96V272.2H741.874V281.704C741.874 283.496 742.311 284.851 743.186 285.768C744.082 286.664 745.33 287.112 746.93 287.112C748.103 287.112 749.116 286.877 749.97 286.408C750.844 285.917 751.506 285.213 751.954 284.296C752.423 283.379 752.658 282.28 752.658 281V272.2H754.93V289H752.754V284.392L753.106 285.224C752.572 286.461 751.74 287.432 750.61 288.136C749.5 288.819 748.199 289.16 746.706 289.16Z" fill="white"/>
<path d="M718.172 289.16C716.551 289.16 715.09 288.797 713.788 288.072C712.508 287.325 711.495 286.312 710.748 285.032C710.002 283.731 709.628 282.248 709.628 280.584C709.628 278.899 710.002 277.416 710.748 276.136C711.495 274.856 712.508 273.853 713.788 273.128C715.068 272.403 716.53 272.04 718.172 272.04C719.836 272.04 721.308 272.403 722.588 273.128C723.89 273.853 724.903 274.856 725.628 276.136C726.375 277.416 726.748 278.899 726.748 280.584C726.748 282.248 726.375 283.731 725.628 285.032C724.903 286.312 723.89 287.325 722.588 288.072C721.287 288.797 719.815 289.16 718.172 289.16ZM718.172 287.144C719.388 287.144 720.466 286.877 721.404 286.344C722.343 285.789 723.079 285.021 723.612 284.04C724.167 283.037 724.444 281.885 724.444 280.584C724.444 279.261 724.167 278.109 723.612 277.128C723.079 276.147 722.343 275.389 721.404 274.856C720.466 274.301 719.399 274.024 718.204 274.024C717.01 274.024 715.943 274.301 715.004 274.856C714.066 275.389 713.319 276.147 712.764 277.128C712.21 278.109 711.932 279.261 711.932 280.584C711.932 281.885 712.21 283.037 712.764 284.04C713.319 285.021 714.066 285.789 715.004 286.344C715.943 286.877 716.999 287.144 718.172 287.144Z" fill="white"/>
<path d="M704.23 289.16C702.651 289.16 701.435 288.733 700.582 287.88C699.729 287.027 699.302 285.821 699.302 284.264V268.488H701.574V284.136C701.574 285.117 701.819 285.875 702.31 286.408C702.822 286.941 703.547 287.208 704.486 287.208C705.489 287.208 706.321 286.92 706.982 286.344L707.782 287.976C707.334 288.381 706.79 288.68 706.15 288.872C705.531 289.064 704.891 289.16 704.23 289.16ZM696.294 274.088V272.2H706.694V274.088H696.294Z" fill="white"/>
<path d="M673.327 295.368C672.538 295.368 671.781 295.24 671.055 294.984C670.351 294.728 669.743 294.344 669.231 293.832L670.287 292.136C670.714 292.541 671.173 292.851 671.663 293.064C672.175 293.299 672.741 293.416 673.359 293.416C674.106 293.416 674.746 293.203 675.279 292.776C675.834 292.371 676.357 291.645 676.847 290.6L677.935 288.136L678.191 287.784L685.103 272.2H687.343L678.927 291.016C678.458 292.104 677.935 292.968 677.359 293.608C676.805 294.248 676.197 294.696 675.535 294.952C674.874 295.229 674.138 295.368 673.327 295.368ZM677.807 289.48L670.063 272.2H672.431L679.279 287.624L677.807 289.48Z" fill="white"/>
<path d="M662.399 289.16C661.012 289.16 659.7 288.968 658.463 288.584C657.225 288.179 656.255 287.677 655.551 287.08L656.575 285.288C657.257 285.8 658.132 286.248 659.199 286.632C660.265 286.995 661.385 287.176 662.559 287.176C664.159 287.176 665.311 286.931 666.015 286.44C666.719 285.928 667.071 285.256 667.071 284.424C667.071 283.805 666.868 283.325 666.463 282.984C666.079 282.621 665.567 282.355 664.927 282.184C664.287 281.992 663.572 281.832 662.783 281.704C661.993 281.576 661.204 281.427 660.415 281.256C659.647 281.085 658.943 280.84 658.303 280.52C657.663 280.179 657.14 279.72 656.735 279.144C656.351 278.568 656.159 277.8 656.159 276.84C656.159 275.923 656.415 275.101 656.927 274.376C657.439 273.651 658.185 273.085 659.167 272.68C660.169 272.253 661.385 272.04 662.815 272.04C663.903 272.04 664.991 272.189 666.079 272.488C667.167 272.765 668.063 273.139 668.767 273.608L667.775 275.432C667.028 274.92 666.228 274.557 665.375 274.344C664.521 274.109 663.668 273.992 662.815 273.992C661.3 273.992 660.18 274.259 659.455 274.792C658.751 275.304 658.399 275.965 658.399 276.776C658.399 277.416 658.591 277.917 658.975 278.28C659.38 278.643 659.903 278.931 660.543 279.144C661.204 279.336 661.919 279.496 662.687 279.624C663.476 279.752 664.255 279.912 665.023 280.104C665.812 280.275 666.527 280.52 667.167 280.84C667.828 281.139 668.351 281.576 668.735 282.152C669.14 282.707 669.343 283.443 669.343 284.36C669.343 285.341 669.065 286.195 668.511 286.92C667.977 287.624 667.188 288.179 666.143 288.584C665.119 288.968 663.871 289.16 662.399 289.16Z" fill="white"/>
<path d="M649.54 289V285.288L649.444 284.68V278.472C649.444 277.043 649.038 275.944 648.228 275.176C647.438 274.408 646.254 274.024 644.676 274.024C643.588 274.024 642.553 274.205 641.572 274.568C640.59 274.931 639.758 275.411 639.076 276.008L638.052 274.312C638.905 273.587 639.929 273.032 641.124 272.648C642.318 272.243 643.577 272.04 644.9 272.04C647.076 272.04 648.75 272.584 649.924 273.672C651.118 274.739 651.716 276.371 651.716 278.568V289H649.54ZM643.748 289.16C642.489 289.16 641.39 288.957 640.452 288.552C639.534 288.125 638.83 287.549 638.34 286.824C637.849 286.077 637.604 285.224 637.604 284.264C637.604 283.389 637.806 282.6 638.212 281.896C638.638 281.171 639.321 280.595 640.26 280.168C641.22 279.72 642.5 279.496 644.1 279.496H649.892V281.192H644.164C642.542 281.192 641.412 281.48 640.772 282.056C640.153 282.632 639.844 283.347 639.844 284.2C639.844 285.16 640.217 285.928 640.964 286.504C641.71 287.08 642.756 287.368 644.1 287.368C645.38 287.368 646.478 287.08 647.396 286.504C648.334 285.907 649.017 285.053 649.444 283.944L649.956 285.512C649.529 286.621 648.782 287.507 647.716 288.168C646.67 288.829 645.348 289.16 643.748 289.16Z" fill="white"/>
<path d="M627.304 289.16C625.555 289.16 624.019 288.797 622.696 288.072C621.373 287.325 620.339 286.312 619.592 285.032C618.845 283.731 618.472 282.248 618.472 280.584C618.472 278.92 618.824 277.448 619.528 276.168C620.253 274.888 621.235 273.885 622.472 273.16C623.731 272.413 625.139 272.04 626.696 272.04C628.275 272.04 629.672 272.403 630.888 273.128C632.125 273.832 633.096 274.835 633.8 276.136C634.504 277.416 634.856 278.899 634.856 280.584C634.856 280.691 634.845 280.808 634.824 280.936C634.824 281.043 634.824 281.16 634.824 281.288H620.2V279.592H633.608L632.712 280.264C632.712 279.048 632.445 277.971 631.912 277.032C631.4 276.072 630.696 275.325 629.8 274.792C628.904 274.259 627.869 273.992 626.696 273.992C625.544 273.992 624.509 274.259 623.592 274.792C622.675 275.325 621.96 276.072 621.448 277.032C620.936 277.992 620.68 279.091 620.68 280.328V280.68C620.68 281.96 620.957 283.091 621.512 284.072C622.088 285.032 622.877 285.789 623.88 286.344C624.904 286.877 626.067 287.144 627.368 287.144C628.392 287.144 629.341 286.963 630.216 286.6C631.112 286.237 631.88 285.683 632.52 284.936L633.8 286.408C633.053 287.304 632.115 287.987 630.984 288.456C629.875 288.925 628.648 289.16 627.304 289.16Z" fill="white"/>
<path d="M596.793 289.16C595.193 289.16 593.753 288.797 592.473 288.072C591.215 287.347 590.223 286.344 589.497 285.064C588.772 283.763 588.409 282.269 588.409 280.584C588.409 278.877 588.772 277.384 589.497 276.104C590.223 274.824 591.215 273.832 592.473 273.128C593.753 272.403 595.193 272.04 596.793 272.04C598.265 272.04 599.577 272.371 600.729 273.032C601.903 273.693 602.831 274.664 603.513 275.944C604.217 277.203 604.569 278.749 604.569 280.584C604.569 282.397 604.228 283.944 603.545 285.224C602.863 286.504 601.935 287.485 600.761 288.168C599.609 288.829 598.287 289.16 596.793 289.16ZM596.953 287.144C598.148 287.144 599.215 286.877 600.153 286.344C601.113 285.789 601.86 285.021 602.393 284.04C602.948 283.037 603.225 281.885 603.225 280.584C603.225 279.261 602.948 278.109 602.393 277.128C601.86 276.147 601.113 275.389 600.153 274.856C599.215 274.301 598.148 274.024 596.953 274.024C595.78 274.024 594.724 274.301 593.785 274.856C592.847 275.389 592.1 276.147 591.545 277.128C590.991 278.109 590.713 279.261 590.713 280.584C590.713 281.885 590.991 283.037 591.545 284.04C592.1 285.021 592.847 285.789 593.785 286.344C594.724 286.877 595.78 287.144 596.953 287.144ZM603.289 289V283.944L603.513 280.552L603.193 277.16V265.256H605.465V289H603.289Z" fill="white"/>
<path d="M577.056 272.04C578.422 272.04 579.616 272.307 580.64 272.84C581.686 273.352 582.496 274.141 583.072 275.208C583.67 276.275 583.968 277.619 583.968 279.24V289H581.696V279.464C581.696 277.693 581.248 276.36 580.352 275.464C579.478 274.547 578.24 274.088 576.64 274.088C575.446 274.088 574.4 274.333 573.504 274.824C572.63 275.293 571.947 275.987 571.456 276.904C570.987 277.8 570.752 278.888 570.752 280.168V289H568.48V272.2H570.656V276.808L570.304 275.944C570.838 274.728 571.691 273.779 572.864 273.096C574.038 272.392 575.435 272.04 577.056 272.04Z" fill="white"/>
<path d="M560.134 289V285.288L560.038 284.68V278.472C560.038 277.043 559.632 275.944 558.822 275.176C558.032 274.408 556.848 274.024 555.27 274.024C554.182 274.024 553.147 274.205 552.166 274.568C551.184 274.931 550.352 275.411 549.67 276.008L548.646 274.312C549.499 273.587 550.523 273.032 551.718 272.648C552.912 272.243 554.171 272.04 555.494 272.04C557.67 272.04 559.344 272.584 560.518 273.672C561.712 274.739 562.31 276.371 562.31 278.568V289H560.134ZM554.342 289.16C553.083 289.16 551.984 288.957 551.046 288.552C550.128 288.125 549.424 287.549 548.934 286.824C548.443 286.077 548.198 285.224 548.198 284.264C548.198 283.389 548.4 282.6 548.806 281.896C549.232 281.171 549.915 280.595 550.854 280.168C551.814 279.72 553.094 279.496 554.694 279.496H560.486V281.192H554.758C553.136 281.192 552.006 281.48 551.366 282.056C550.747 282.632 550.438 283.347 550.438 284.2C550.438 285.16 550.811 285.928 551.558 286.504C552.304 287.08 553.35 287.368 554.694 287.368C555.974 287.368 557.072 287.08 557.99 286.504C558.928 285.907 559.611 285.053 560.038 283.944L560.55 285.512C560.123 286.621 559.376 287.507 558.31 288.168C557.264 288.829 555.942 289.16 554.342 289.16Z" fill="white"/>
<path d="M529.054 289.16C527.305 289.16 525.769 288.797 524.446 288.072C523.123 287.325 522.089 286.312 521.342 285.032C520.595 283.731 520.222 282.248 520.222 280.584C520.222 278.92 520.574 277.448 521.278 276.168C522.003 274.888 522.985 273.885 524.222 273.16C525.481 272.413 526.889 272.04 528.446 272.04C530.025 272.04 531.422 272.403 532.638 273.128C533.875 273.832 534.846 274.835 535.55 276.136C536.254 277.416 536.606 278.899 536.606 280.584C536.606 280.691 536.595 280.808 536.574 280.936C536.574 281.043 536.574 281.16 536.574 281.288H521.95V279.592H535.358L534.462 280.264C534.462 279.048 534.195 277.971 533.662 277.032C533.15 276.072 532.446 275.325 531.55 274.792C530.654 274.259 529.619 273.992 528.446 273.992C527.294 273.992 526.259 274.259 525.342 274.792C524.425 275.325 523.71 276.072 523.198 277.032C522.686 277.992 522.43 279.091 522.43 280.328V280.68C522.43 281.96 522.707 283.091 523.262 284.072C523.838 285.032 524.627 285.789 525.63 286.344C526.654 286.877 527.817 287.144 529.118 287.144C530.142 287.144 531.091 286.963 531.966 286.6C532.862 286.237 533.63 285.683 534.27 284.936L535.55 286.408C534.803 287.304 533.865 287.987 532.734 288.456C531.625 288.925 530.398 289.16 529.054 289.16Z" fill="white"/>
<path d="M513.324 289V265.256H515.596V289H513.324Z" fill="white"/>
<path d="M500.309 289.16C498.858 289.16 497.546 288.829 496.373 288.168C495.199 287.485 494.261 286.515 493.557 285.256C492.874 283.976 492.533 282.419 492.533 280.584C492.533 278.749 492.874 277.203 493.557 275.944C494.239 274.664 495.167 273.693 496.341 273.032C497.514 272.371 498.837 272.04 500.309 272.04C501.909 272.04 503.338 272.403 504.597 273.128C505.877 273.832 506.879 274.835 507.605 276.136C508.33 277.416 508.693 278.899 508.693 280.584C508.693 282.291 508.33 283.784 507.605 285.064C506.879 286.344 505.877 287.347 504.597 288.072C503.338 288.797 501.909 289.16 500.309 289.16ZM491.637 295.208V272.2H493.813V277.256L493.589 280.616L493.909 284.008V295.208H491.637ZM500.149 287.144C501.343 287.144 502.41 286.877 503.349 286.344C504.287 285.789 505.034 285.021 505.589 284.04C506.143 283.037 506.421 281.885 506.421 280.584C506.421 279.283 506.143 278.141 505.589 277.16C505.034 276.179 504.287 275.411 503.349 274.856C502.41 274.301 501.343 274.024 500.149 274.024C498.954 274.024 497.877 274.301 496.917 274.856C495.978 275.411 495.231 276.179 494.677 277.16C494.143 278.141 493.877 279.283 493.877 280.584C493.877 281.885 494.143 283.037 494.677 284.04C495.231 285.021 495.978 285.789 496.917 286.344C497.877 286.877 498.954 287.144 500.149 287.144Z" fill="white"/>
<path d="M478.691 272.04C480.057 272.04 481.241 272.307 482.243 272.84C483.267 273.352 484.057 274.141 484.611 275.208C485.187 276.275 485.475 277.619 485.475 279.24V289H483.203V279.464C483.203 277.693 482.777 276.36 481.923 275.464C481.091 274.547 479.907 274.088 478.371 274.088C477.219 274.088 476.217 274.333 475.363 274.824C474.531 275.293 473.881 275.987 473.411 276.904C472.963 277.8 472.739 278.888 472.739 280.168V289H470.467V279.464C470.467 277.693 470.041 276.36 469.187 275.464C468.334 274.547 467.139 274.088 465.603 274.088C464.473 274.088 463.481 274.333 462.627 274.824C461.774 275.293 461.113 275.987 460.643 276.904C460.195 277.8 459.971 278.888 459.971 280.168V289H457.699V272.2H459.875V276.744L459.523 275.944C460.035 274.728 460.857 273.779 461.987 273.096C463.139 272.392 464.494 272.04 466.051 272.04C467.694 272.04 469.091 272.456 470.243 273.288C471.395 274.099 472.142 275.325 472.483 276.968L471.587 276.616C472.078 275.251 472.942 274.152 474.179 273.32C475.438 272.467 476.942 272.04 478.691 272.04Z" fill="white"/>
<path d="M449.106 289V272.2H451.378V289H449.106ZM450.258 268.488C449.788 268.488 449.394 268.328 449.074 268.008C448.754 267.688 448.594 267.304 448.594 266.856C448.594 266.408 448.754 266.035 449.074 265.736C449.394 265.416 449.788 265.256 450.258 265.256C450.727 265.256 451.122 265.405 451.442 265.704C451.762 266.003 451.922 266.376 451.922 266.824C451.922 267.293 451.762 267.688 451.442 268.008C451.143 268.328 450.748 268.488 450.258 268.488Z" fill="white"/>
<path d="M437.993 289.16C436.606 289.16 435.294 288.968 434.057 288.584C432.819 288.179 431.849 287.677 431.145 287.08L432.169 285.288C432.851 285.8 433.726 286.248 434.793 286.632C435.859 286.995 436.979 287.176 438.153 287.176C439.753 287.176 440.905 286.931 441.609 286.44C442.313 285.928 442.665 285.256 442.665 284.424C442.665 283.805 442.462 283.325 442.057 282.984C441.673 282.621 441.161 282.355 440.521 282.184C439.881 281.992 439.166 281.832 438.377 281.704C437.587 281.576 436.798 281.427 436.009 281.256C435.241 281.085 434.537 280.84 433.897 280.52C433.257 280.179 432.734 279.72 432.329 279.144C431.945 278.568 431.753 277.8 431.753 276.84C431.753 275.923 432.009 275.101 432.521 274.376C433.033 273.651 433.779 273.085 434.761 272.68C435.763 272.253 436.979 272.04 438.409 272.04C439.497 272.04 440.585 272.189 441.673 272.488C442.761 272.765 443.657 273.139 444.361 273.608L443.369 275.432C442.622 274.92 441.822 274.557 440.969 274.344C440.115 274.109 439.262 273.992 438.409 273.992C436.894 273.992 435.774 274.259 435.049 274.792C434.345 275.304 433.993 275.965 433.993 276.776C433.993 277.416 434.185 277.917 434.569 278.28C434.974 278.643 435.497 278.931 436.137 279.144C436.798 279.336 437.513 279.496 438.281 279.624C439.07 279.752 439.849 279.912 440.617 280.104C441.406 280.275 442.121 280.52 442.761 280.84C443.422 281.139 443.945 281.576 444.329 282.152C444.734 282.707 444.937 283.443 444.937 284.36C444.937 285.341 444.659 286.195 444.105 286.92C443.571 287.624 442.782 288.179 441.737 288.584C440.713 288.968 439.465 289.16 437.993 289.16Z" fill="white"/>
<path d="M399.064 289L409.304 266.6H411.64L421.88 289H419.384L409.976 267.976H410.936L401.528 289H399.064ZM403.096 283.016L403.8 281.096H416.824L417.528 283.016H403.096Z" fill="white"/>
<path d="M624.949 147.606L624.62 147.459L605.082 138.786V146.752C605.082 150.285 613.977 155.535 624.949 155.535C635.922 155.535 644.817 150.283 644.817 146.752V138.786L624.949 147.606Z" fill="url(#paint3_linear_325_987)"/>
<path d="M624.949 110.467L586 127.756L624.949 145.044L663.895 127.756L624.949 110.467Z" fill="url(#paint4_linear_325_987)"/>
<path d="M703.949 147.606L703.62 147.459L684.082 138.786V146.752C684.082 150.285 692.977 155.535 703.949 155.535C714.922 155.535 723.817 150.283 723.817 146.752V138.786L703.949 147.606Z" fill="url(#paint5_linear_325_987)"/>
<path d="M703.949 110.467L665 127.756L703.949 145.044L742.895 127.756L703.949 110.467Z" fill="url(#paint6_linear_325_987)"/>
<path d="M742.194 141.699L742.191 141.51C743.012 141.001 743.643 140.016 743.643 138.991C743.643 137.557 742.685 136.308 741.228 136.083V127.756H740.454V136.129C739.092 136.45 737.962 137.56 737.962 138.898C737.962 139.923 738.36 140.815 739.182 141.324L739.098 141.697L736.217 153.382H740.609H745L742.194 141.699Z" fill="url(#paint7_linear_325_987)"/>
<defs>
<linearGradient id="paint0_linear_325_987" x1="272" y1="-726.5" x2="1709.5" y2="959.5" gradientUnits="userSpaceOnUse">
<stop stop-color="#0D1117"/>
<stop offset="0.49305" stop-color="#253145"/>
<stop offset="1" stop-color="#0D1117"/>
</linearGradient>
<linearGradient id="paint1_linear_325_987" x1="192.14" y1="192.283" x2="326.337" y2="193.443" gradientUnits="userSpaceOnUse">
<stop stop-color="#C64C58"/>
<stop offset="1" stop-color="#445879"/>
</linearGradient>
<linearGradient id="paint2_linear_325_987" x1="111.762" y1="149.31" x2="204.771" y2="243.948" gradientUnits="userSpaceOnUse">
<stop stop-color="#445879"/>
<stop offset="1" stop-color="#C64C58"/>
</linearGradient>
<linearGradient id="paint3_linear_325_987" x1="604.183" y1="149.093" x2="628.981" y2="149.601" gradientUnits="userSpaceOnUse">
<stop stop-color="#C64C58"/>
<stop offset="1" stop-color="#445879"/>
</linearGradient>
<linearGradient id="paint4_linear_325_987" x1="584.239" y1="131.745" x2="632.853" y2="132.692" gradientUnits="userSpaceOnUse">
<stop stop-color="#C64C58"/>
<stop offset="1" stop-color="#445879"/>
</linearGradient>
<linearGradient id="paint5_linear_325_987" x1="683.183" y1="149.093" x2="707.981" y2="149.601" gradientUnits="userSpaceOnUse">
<stop stop-color="#C64C58"/>
<stop offset="1" stop-color="#445879"/>
</linearGradient>
<linearGradient id="paint6_linear_325_987" x1="663.239" y1="131.745" x2="711.853" y2="132.692" gradientUnits="userSpaceOnUse">
<stop stop-color="#C64C58"/>
<stop offset="1" stop-color="#445879"/>
</linearGradient>
<linearGradient id="paint7_linear_325_987" x1="736.018" y1="143.526" x2="741.502" y2="143.542" gradientUnits="userSpaceOnUse">
<stop stop-color="#C64C58"/>
<stop offset="1" stop-color="#445879"/>
</linearGradient>
</defs>
</svg>
