<svg width="1470" height="424" viewBox="0 0 1470 424" fill="none" xmlns="http://www.w3.org/2000/svg">
<rect x="0.5" y="0.5" width="1468.31" height="422.999" rx="14.5" fill="url(#paint0_linear_392_738)"/>
<rect x="0.5" y="0.5" width="1468.31" height="422.999" rx="14.5" stroke="#445879"/>
<path d="M401.78 289V263.8H411.608C413.816 263.8 415.7 264.148 417.26 264.844C418.82 265.54 420.02 266.548 420.86 267.868C421.7 269.188 422.12 270.76 422.12 272.584C422.12 274.408 421.7 275.98 420.86 277.3C420.02 278.596 418.82 279.592 417.26 280.288C415.7 280.984 413.816 281.332 411.608 281.332H403.76L405.38 279.676V289H401.78ZM418.628 289L412.22 279.856H416.072L422.552 289H418.628ZM405.38 280.036L403.76 278.272H411.5C413.804 278.272 415.544 277.78 416.72 276.796C417.92 275.788 418.52 274.384 418.52 272.584C418.52 270.784 417.92 269.392 416.72 268.408C415.544 267.424 413.804 266.932 411.5 266.932H403.76L405.38 265.132V280.036ZM435.604 289.216C433.684 289.216 431.98 288.796 430.492 287.956C429.004 287.116 427.828 285.964 426.964 284.5C426.1 283.012 425.668 281.332 425.668 279.46C425.668 277.564 426.1 275.884 426.964 274.42C427.828 272.956 429.004 271.816 430.492 271C431.98 270.16 433.684 269.74 435.604 269.74C437.5 269.74 439.192 270.16 440.68 271C442.192 271.816 443.368 272.956 444.208 274.42C445.072 275.86 445.504 277.54 445.504 279.46C445.504 281.356 445.072 283.036 444.208 284.5C443.368 285.964 442.192 287.116 440.68 287.956C439.192 288.796 437.5 289.216 435.604 289.216ZM435.604 286.192C436.828 286.192 437.92 285.916 438.88 285.364C439.864 284.812 440.632 284.032 441.184 283.024C441.736 281.992 442.012 280.804 442.012 279.46C442.012 278.092 441.736 276.916 441.184 275.932C440.632 274.924 439.864 274.144 438.88 273.592C437.92 273.04 436.828 272.764 435.604 272.764C434.38 272.764 433.288 273.04 432.328 273.592C431.368 274.144 430.6 274.924 430.024 275.932C429.448 276.916 429.16 278.092 429.16 279.46C429.16 280.804 429.448 281.992 430.024 283.024C430.6 284.032 431.368 284.812 432.328 285.364C433.288 285.916 434.38 286.192 435.604 286.192ZM458.456 289.216C456.536 289.216 454.832 288.796 453.344 287.956C451.856 287.116 450.68 285.964 449.816 284.5C448.952 283.012 448.52 281.332 448.52 279.46C448.52 277.564 448.952 275.884 449.816 274.42C450.68 272.956 451.856 271.816 453.344 271C454.832 270.16 456.536 269.74 458.456 269.74C460.352 269.74 462.044 270.16 463.532 271C465.044 271.816 466.22 272.956 467.06 274.42C467.924 275.86 468.356 277.54 468.356 279.46C468.356 281.356 467.924 283.036 467.06 284.5C466.22 285.964 465.044 287.116 463.532 287.956C462.044 288.796 460.352 289.216 458.456 289.216ZM458.456 286.192C459.68 286.192 460.772 285.916 461.732 285.364C462.716 284.812 463.484 284.032 464.036 283.024C464.588 281.992 464.864 280.804 464.864 279.46C464.864 278.092 464.588 276.916 464.036 275.932C463.484 274.924 462.716 274.144 461.732 273.592C460.772 273.04 459.68 272.764 458.456 272.764C457.232 272.764 456.14 273.04 455.18 273.592C454.22 274.144 453.452 274.924 452.876 275.932C452.3 276.916 452.012 278.092 452.012 279.46C452.012 280.804 452.3 281.992 452.876 283.024C453.452 284.032 454.22 284.812 455.18 285.364C456.14 285.916 457.232 286.192 458.456 286.192ZM497.003 269.74C498.539 269.74 499.895 270.04 501.071 270.64C502.247 271.24 503.159 272.152 503.807 273.376C504.479 274.6 504.815 276.148 504.815 278.02V289H501.359V278.416C501.359 276.568 500.927 275.176 500.063 274.24C499.199 273.304 497.987 272.836 496.427 272.836C495.275 272.836 494.267 273.076 493.403 273.556C492.539 274.036 491.867 274.744 491.387 275.68C490.931 276.616 490.703 277.78 490.703 279.172V289H487.247V278.416C487.247 276.568 486.815 275.176 485.951 274.24C485.111 273.304 483.899 272.836 482.315 272.836C481.187 272.836 480.191 273.076 479.327 273.556C478.463 274.036 477.791 274.744 477.311 275.68C476.831 276.616 476.591 277.78 476.591 279.172V289H473.135V269.92H476.447V274.996L475.907 273.7C476.507 272.452 477.431 271.48 478.679 270.784C479.927 270.088 481.379 269.74 483.035 269.74C484.859 269.74 486.431 270.196 487.751 271.108C489.071 271.996 489.935 273.352 490.343 275.176L488.939 274.6C489.515 273.136 490.523 271.96 491.963 271.072C493.403 270.184 495.083 269.74 497.003 269.74ZM520.842 289V269.92H524.154V275.104L523.83 273.808C524.358 272.488 525.246 271.48 526.494 270.784C527.742 270.088 529.278 269.74 531.102 269.74V273.088C530.958 273.064 530.814 273.052 530.67 273.052C530.55 273.052 530.43 273.052 530.31 273.052C528.462 273.052 526.998 273.604 525.918 274.708C524.838 275.812 524.298 277.408 524.298 279.496V289H520.842ZM543.682 289.216C541.642 289.216 539.842 288.796 538.282 287.956C536.746 287.116 535.546 285.964 534.682 284.5C533.842 283.036 533.422 281.356 533.422 279.46C533.422 277.564 533.83 275.884 534.646 274.42C535.486 272.956 536.626 271.816 538.066 271C539.53 270.16 541.174 269.74 542.998 269.74C544.846 269.74 546.478 270.148 547.894 270.964C549.31 271.78 550.414 272.932 551.206 274.42C552.022 275.884 552.43 277.6 552.43 279.568C552.43 279.712 552.418 279.88 552.394 280.072C552.394 280.264 552.382 280.444 552.358 280.612H536.122V278.128H550.558L549.154 278.992C549.178 277.768 548.926 276.676 548.398 275.716C547.87 274.756 547.138 274.012 546.202 273.484C545.29 272.932 544.222 272.656 542.998 272.656C541.798 272.656 540.73 272.932 539.794 273.484C538.858 274.012 538.126 274.768 537.598 275.752C537.07 276.712 536.806 277.816 536.806 279.064V279.64C536.806 280.912 537.094 282.052 537.67 283.06C538.27 284.044 539.098 284.812 540.154 285.364C541.21 285.916 542.422 286.192 543.79 286.192C544.918 286.192 545.938 286 546.85 285.616C547.786 285.232 548.602 284.656 549.298 283.888L551.206 286.12C550.342 287.128 549.262 287.896 547.966 288.424C546.694 288.952 545.266 289.216 543.682 289.216ZM562.701 289.216C561.117 289.216 559.605 289 558.165 288.568C556.749 288.136 555.633 287.608 554.817 286.984L556.257 284.248C557.073 284.8 558.081 285.268 559.281 285.652C560.481 286.036 561.705 286.228 562.953 286.228C564.561 286.228 565.713 286 566.409 285.544C567.129 285.088 567.489 284.452 567.489 283.636C567.489 283.036 567.273 282.568 566.841 282.232C566.409 281.896 565.833 281.644 565.113 281.476C564.417 281.308 563.637 281.164 562.773 281.044C561.909 280.9 561.045 280.732 560.181 280.54C559.317 280.324 558.525 280.036 557.805 279.676C557.085 279.292 556.509 278.776 556.077 278.128C555.645 277.456 555.429 276.568 555.429 275.464C555.429 274.312 555.753 273.304 556.401 272.44C557.049 271.576 557.961 270.916 559.137 270.46C560.337 269.98 561.753 269.74 563.385 269.74C564.633 269.74 565.893 269.896 567.165 270.208C568.461 270.496 569.517 270.916 570.333 271.468L568.857 274.204C567.993 273.628 567.093 273.232 566.157 273.016C565.221 272.8 564.285 272.692 563.349 272.692C561.837 272.692 560.709 272.944 559.965 273.448C559.221 273.928 558.849 274.552 558.849 275.32C558.849 275.968 559.065 276.472 559.497 276.832C559.953 277.168 560.529 277.432 561.225 277.624C561.945 277.816 562.737 277.984 563.601 278.128C564.465 278.248 565.329 278.416 566.193 278.632C567.057 278.824 567.837 279.1 568.533 279.46C569.253 279.82 569.829 280.324 570.261 280.972C570.717 281.62 570.945 282.484 570.945 283.564C570.945 284.716 570.609 285.712 569.937 286.552C569.265 287.392 568.317 288.052 567.093 288.532C565.869 288.988 564.405 289.216 562.701 289.216ZM583.76 289.216C581.72 289.216 579.92 288.796 578.36 287.956C576.824 287.116 575.624 285.964 574.76 284.5C573.92 283.036 573.5 281.356 573.5 279.46C573.5 277.564 573.908 275.884 574.724 274.42C575.564 272.956 576.704 271.816 578.144 271C579.608 270.16 581.252 269.74 583.076 269.74C584.924 269.74 586.556 270.148 587.972 270.964C589.388 271.78 590.492 272.932 591.284 274.42C592.1 275.884 592.508 277.6 592.508 279.568C592.508 279.712 592.496 279.88 592.472 280.072C592.472 280.264 592.46 280.444 592.436 280.612H576.2V278.128H590.636L589.232 278.992C589.256 277.768 589.004 276.676 588.476 275.716C587.948 274.756 587.216 274.012 586.28 273.484C585.368 272.932 584.3 272.656 583.076 272.656C581.876 272.656 580.808 272.932 579.872 273.484C578.936 274.012 578.204 274.768 577.676 275.752C577.148 276.712 576.884 277.816 576.884 279.064V279.64C576.884 280.912 577.172 282.052 577.748 283.06C578.348 284.044 579.176 284.812 580.232 285.364C581.288 285.916 582.5 286.192 583.868 286.192C584.996 286.192 586.016 286 586.928 285.616C587.864 285.232 588.68 284.656 589.376 283.888L591.284 286.12C590.42 287.128 589.34 287.896 588.044 288.424C586.772 288.952 585.344 289.216 583.76 289.216ZM597.307 289V269.92H600.619V275.104L600.295 273.808C600.823 272.488 601.711 271.48 602.959 270.784C604.207 270.088 605.743 269.74 607.567 269.74V273.088C607.423 273.064 607.279 273.052 607.135 273.052C607.015 273.052 606.895 273.052 606.775 273.052C604.927 273.052 603.463 273.604 602.383 274.708C601.303 275.812 600.763 277.408 600.763 279.496V289H597.307ZM617.604 289L609.252 269.92H612.852L620.268 287.2H618.54L626.1 269.92H629.484L621.132 289H617.604ZM643.956 289V284.968L643.776 284.212V277.336C643.776 275.872 643.344 274.744 642.48 273.952C641.64 273.136 640.368 272.728 638.664 272.728C637.536 272.728 636.432 272.92 635.352 273.304C634.272 273.664 633.36 274.156 632.616 274.78L631.176 272.188C632.16 271.396 633.336 270.796 634.704 270.388C636.096 269.956 637.548 269.74 639.06 269.74C641.676 269.74 643.692 270.376 645.108 271.648C646.524 272.92 647.232 274.864 647.232 277.48V289H643.956ZM637.692 289.216C636.276 289.216 635.028 288.976 633.948 288.496C632.892 288.016 632.076 287.356 631.5 286.516C630.924 285.652 630.636 284.68 630.636 283.6C630.636 282.568 630.876 281.632 631.356 280.792C631.86 279.952 632.664 279.28 633.768 278.776C634.896 278.272 636.408 278.02 638.304 278.02H644.352V280.504H638.448C636.72 280.504 635.556 280.792 634.956 281.368C634.356 281.944 634.056 282.64 634.056 283.456C634.056 284.392 634.428 285.148 635.172 285.724C635.916 286.276 636.948 286.552 638.268 286.552C639.564 286.552 640.692 286.264 641.652 285.688C642.636 285.112 643.344 284.272 643.776 283.168L644.46 285.544C644.004 286.672 643.2 287.572 642.048 288.244C640.896 288.892 639.444 289.216 637.692 289.216ZM660.18 289.216C658.26 289.216 656.772 288.7 655.716 287.668C654.66 286.636 654.132 285.16 654.132 283.24V265.744H657.588V283.096C657.588 284.128 657.84 284.92 658.344 285.472C658.872 286.024 659.616 286.3 660.576 286.3C661.656 286.3 662.556 286 663.276 285.4L664.356 287.884C663.828 288.34 663.192 288.676 662.448 288.892C661.728 289.108 660.972 289.216 660.18 289.216ZM650.892 272.764V269.92H663.06V272.764H650.892ZM668.534 289V269.92H671.99V289H668.534ZM670.262 266.248C669.59 266.248 669.026 266.032 668.57 265.6C668.138 265.168 667.922 264.64 667.922 264.016C667.922 263.368 668.138 262.828 668.57 262.396C669.026 261.964 669.59 261.748 670.262 261.748C670.934 261.748 671.486 261.964 671.918 262.396C672.374 262.804 672.602 263.32 672.602 263.944C672.602 264.592 672.386 265.144 671.954 265.6C671.522 266.032 670.958 266.248 670.262 266.248ZM686.761 289.216C684.841 289.216 683.137 288.796 681.649 287.956C680.161 287.116 678.985 285.964 678.121 284.5C677.257 283.012 676.825 281.332 676.825 279.46C676.825 277.564 677.257 275.884 678.121 274.42C678.985 272.956 680.161 271.816 681.649 271C683.137 270.16 684.841 269.74 686.761 269.74C688.657 269.74 690.349 270.16 691.837 271C693.349 271.816 694.525 272.956 695.365 274.42C696.229 275.86 696.661 277.54 696.661 279.46C696.661 281.356 696.229 283.036 695.365 284.5C694.525 285.964 693.349 287.116 691.837 287.956C690.349 288.796 688.657 289.216 686.761 289.216ZM686.761 286.192C687.985 286.192 689.077 285.916 690.037 285.364C691.021 284.812 691.789 284.032 692.341 283.024C692.893 281.992 693.169 280.804 693.169 279.46C693.169 278.092 692.893 276.916 692.341 275.932C691.789 274.924 691.021 274.144 690.037 273.592C689.077 273.04 687.985 272.764 686.761 272.764C685.537 272.764 684.445 273.04 683.485 273.592C682.525 274.144 681.757 274.924 681.181 275.932C680.605 276.916 680.317 278.092 680.317 279.46C680.317 280.804 680.605 281.992 681.181 283.024C681.757 284.032 682.525 284.812 683.485 285.364C684.445 285.916 685.537 286.192 686.761 286.192ZM711.628 269.74C713.188 269.74 714.556 270.04 715.732 270.64C716.932 271.24 717.868 272.152 718.54 273.376C719.212 274.6 719.548 276.148 719.548 278.02V289H716.092V278.416C716.092 276.568 715.636 275.176 714.724 274.24C713.836 273.304 712.576 272.836 710.944 272.836C709.72 272.836 708.652 273.076 707.74 273.556C706.828 274.036 706.12 274.744 705.616 275.68C705.136 276.616 704.896 277.78 704.896 279.172V289H701.44V269.92H704.752V275.068L704.212 273.7C704.836 272.452 705.796 271.48 707.092 270.784C708.388 270.088 709.9 269.74 711.628 269.74ZM742.776 289.288C741.072 289.288 739.56 289.012 738.24 288.46C736.92 287.908 735.876 287.14 735.108 286.156C734.34 285.172 733.956 284.032 733.956 282.736C733.956 281.608 734.208 280.576 734.712 279.64C735.216 278.704 736.02 277.804 737.124 276.94C738.228 276.052 739.68 275.14 741.48 274.204C742.944 273.436 744.084 272.764 744.9 272.188C745.74 271.612 746.328 271.072 746.664 270.568C747.024 270.04 747.204 269.476 747.204 268.876C747.204 268.06 746.916 267.4 746.34 266.896C745.764 266.368 744.936 266.104 743.856 266.104C742.728 266.104 741.84 266.392 741.192 266.968C740.568 267.52 740.256 268.252 740.256 269.164C740.256 269.62 740.328 270.064 740.472 270.496C740.64 270.904 740.928 271.372 741.336 271.9C741.768 272.404 742.38 273.052 743.172 273.844L756.492 287.092L754.548 289.396L740.4 275.32C739.56 274.48 738.9 273.736 738.42 273.088C737.94 272.416 737.592 271.768 737.376 271.144C737.16 270.52 737.052 269.884 737.052 269.236C737.052 268.108 737.328 267.124 737.88 266.284C738.456 265.42 739.248 264.76 740.256 264.304C741.288 263.824 742.488 263.584 743.856 263.584C745.128 263.584 746.232 263.8 747.168 264.232C748.104 264.64 748.824 265.24 749.328 266.032C749.856 266.8 750.12 267.736 750.12 268.84C750.12 269.8 749.88 270.688 749.4 271.504C748.944 272.32 748.2 273.112 747.168 273.88C746.136 274.648 744.744 275.476 742.992 276.364C741.552 277.108 740.424 277.804 739.608 278.452C738.792 279.076 738.204 279.7 737.844 280.324C737.508 280.948 737.34 281.632 737.34 282.376C737.34 283.168 737.568 283.876 738.024 284.5C738.504 285.1 739.164 285.568 740.004 285.904C740.868 286.24 741.864 286.408 742.992 286.408C744.6 286.408 746.052 286.06 747.348 285.364C748.644 284.668 749.724 283.624 750.588 282.232C751.476 280.84 752.124 279.112 752.532 277.048L755.304 277.948C754.824 280.372 753.996 282.424 752.82 284.104C751.668 285.784 750.24 287.068 748.536 287.956C746.832 288.844 744.912 289.288 742.776 289.288ZM778.276 289.216C776.332 289.216 774.592 288.796 773.056 287.956C771.544 287.116 770.356 285.964 769.492 284.5C768.628 283.036 768.196 281.356 768.196 279.46C768.196 277.564 768.628 275.884 769.492 274.42C770.356 272.956 771.544 271.816 773.056 271C774.592 270.16 776.332 269.74 778.276 269.74C780.004 269.74 781.54 270.088 782.884 270.784C784.252 271.456 785.308 272.464 786.052 273.808L783.424 275.5C782.8 274.564 782.032 273.88 781.12 273.448C780.232 272.992 779.272 272.764 778.24 272.764C776.992 272.764 775.876 273.04 774.892 273.592C773.908 274.144 773.128 274.924 772.552 275.932C771.976 276.916 771.688 278.092 771.688 279.46C771.688 280.828 771.976 282.016 772.552 283.024C773.128 284.032 773.908 284.812 774.892 285.364C775.876 285.916 776.992 286.192 778.24 286.192C779.272 286.192 780.232 285.976 781.12 285.544C782.032 285.088 782.8 284.392 783.424 283.456L786.052 285.112C785.308 286.432 784.252 287.452 782.884 288.172C781.54 288.868 780.004 289.216 778.276 289.216ZM798.417 289.216C796.497 289.216 794.793 288.796 793.305 287.956C791.817 287.116 790.641 285.964 789.777 284.5C788.913 283.012 788.481 281.332 788.481 279.46C788.481 277.564 788.913 275.884 789.777 274.42C790.641 272.956 791.817 271.816 793.305 271C794.793 270.16 796.497 269.74 798.417 269.74C800.313 269.74 802.005 270.16 803.493 271C805.005 271.816 806.181 272.956 807.021 274.42C807.885 275.86 808.317 277.54 808.317 279.46C808.317 281.356 807.885 283.036 807.021 284.5C806.181 285.964 805.005 287.116 803.493 287.956C802.005 288.796 800.313 289.216 798.417 289.216ZM798.417 286.192C799.641 286.192 800.733 285.916 801.693 285.364C802.677 284.812 803.445 284.032 803.997 283.024C804.549 281.992 804.825 280.804 804.825 279.46C804.825 278.092 804.549 276.916 803.997 275.932C803.445 274.924 802.677 274.144 801.693 273.592C800.733 273.04 799.641 272.764 798.417 272.764C797.193 272.764 796.101 273.04 795.141 273.592C794.181 274.144 793.413 274.924 792.837 275.932C792.261 276.916 791.973 278.092 791.973 279.46C791.973 280.804 792.261 281.992 792.837 283.024C793.413 284.032 794.181 284.812 795.141 285.364C796.101 285.916 797.193 286.192 798.417 286.192ZM821.268 289.216C819.348 289.216 817.644 288.796 816.156 287.956C814.668 287.116 813.492 285.964 812.628 284.5C811.764 283.012 811.332 281.332 811.332 279.46C811.332 277.564 811.764 275.884 812.628 274.42C813.492 272.956 814.668 271.816 816.156 271C817.644 270.16 819.348 269.74 821.268 269.74C823.164 269.74 824.856 270.16 826.344 271C827.856 271.816 829.032 272.956 829.872 274.42C830.736 275.86 831.168 277.54 831.168 279.46C831.168 281.356 830.736 283.036 829.872 284.5C829.032 285.964 827.856 287.116 826.344 287.956C824.856 288.796 823.164 289.216 821.268 289.216ZM821.268 286.192C822.492 286.192 823.584 285.916 824.544 285.364C825.528 284.812 826.296 284.032 826.848 283.024C827.4 281.992 827.676 280.804 827.676 279.46C827.676 278.092 827.4 276.916 826.848 275.932C826.296 274.924 825.528 274.144 824.544 273.592C823.584 273.04 822.492 272.764 821.268 272.764C820.044 272.764 818.952 273.04 817.992 273.592C817.032 274.144 816.264 274.924 815.688 275.932C815.112 276.916 814.824 278.092 814.824 279.46C814.824 280.804 815.112 281.992 815.688 283.024C816.264 284.032 817.032 284.812 817.992 285.364C818.952 285.916 820.044 286.192 821.268 286.192ZM835.948 289V269.92H839.26V275.104L838.936 273.808C839.464 272.488 840.352 271.48 841.6 270.784C842.848 270.088 844.384 269.74 846.208 269.74V273.088C846.064 273.064 845.92 273.052 845.776 273.052C845.656 273.052 845.536 273.052 845.416 273.052C843.568 273.052 842.104 273.604 841.024 274.708C839.944 275.812 839.404 277.408 839.404 279.496V289H835.948ZM858.176 289.216C856.328 289.216 854.672 288.808 853.208 287.992C851.768 287.176 850.628 286.036 849.788 284.572C848.948 283.108 848.528 281.404 848.528 279.46C848.528 277.516 848.948 275.824 849.788 274.384C850.628 272.92 851.768 271.78 853.208 270.964C854.672 270.148 856.328 269.74 858.176 269.74C859.784 269.74 861.236 270.1 862.532 270.82C863.828 271.54 864.86 272.62 865.628 274.06C866.42 275.5 866.816 277.3 866.816 279.46C866.816 281.62 866.432 283.42 865.664 284.86C864.92 286.3 863.9 287.392 862.604 288.136C861.308 288.856 859.832 289.216 858.176 289.216ZM858.464 286.192C859.664 286.192 860.744 285.916 861.704 285.364C862.688 284.812 863.456 284.032 864.008 283.024C864.584 281.992 864.872 280.804 864.872 279.46C864.872 278.092 864.584 276.916 864.008 275.932C863.456 274.924 862.688 274.144 861.704 273.592C860.744 273.04 859.664 272.764 858.464 272.764C857.24 272.764 856.148 273.04 855.188 273.592C854.228 274.144 853.46 274.924 852.884 275.932C852.308 276.916 852.02 278.092 852.02 279.46C852.02 280.804 852.308 281.992 852.884 283.024C853.46 284.032 854.228 284.812 855.188 285.364C856.148 285.916 857.24 286.192 858.464 286.192ZM864.98 289V283.852L865.196 279.424L864.836 274.996V262.288H868.292V289H864.98ZM874.831 289V269.92H878.287V289H874.831ZM876.559 266.248C875.887 266.248 875.323 266.032 874.867 265.6C874.435 265.168 874.219 264.64 874.219 264.016C874.219 263.368 874.435 262.828 874.867 262.396C875.323 261.964 875.887 261.748 876.559 261.748C877.231 261.748 877.783 261.964 878.215 262.396C878.671 262.804 878.899 263.32 878.899 263.944C878.899 264.592 878.683 265.144 878.251 265.6C877.819 266.032 877.255 266.248 876.559 266.248ZM895.073 269.74C896.633 269.74 898.001 270.04 899.177 270.64C900.377 271.24 901.313 272.152 901.985 273.376C902.657 274.6 902.993 276.148 902.993 278.02V289H899.537V278.416C899.537 276.568 899.081 275.176 898.169 274.24C897.281 273.304 896.021 272.836 894.389 272.836C893.165 272.836 892.097 273.076 891.185 273.556C890.273 274.036 889.565 274.744 889.061 275.68C888.581 276.616 888.341 277.78 888.341 279.172V289H884.885V269.92H888.197V275.068L887.657 273.7C888.281 272.452 889.241 271.48 890.537 270.784C891.833 270.088 893.345 269.74 895.073 269.74ZM921.233 289V284.968L921.053 284.212V277.336C921.053 275.872 920.621 274.744 919.757 273.952C918.917 273.136 917.645 272.728 915.941 272.728C914.813 272.728 913.709 272.92 912.629 273.304C911.549 273.664 910.637 274.156 909.893 274.78L908.453 272.188C909.437 271.396 910.613 270.796 911.981 270.388C913.373 269.956 914.825 269.74 916.337 269.74C918.953 269.74 920.969 270.376 922.385 271.648C923.801 272.92 924.509 274.864 924.509 277.48V289H921.233ZM914.969 289.216C913.553 289.216 912.305 288.976 911.225 288.496C910.169 288.016 909.353 287.356 908.777 286.516C908.201 285.652 907.913 284.68 907.913 283.6C907.913 282.568 908.153 281.632 908.633 280.792C909.137 279.952 909.941 279.28 911.045 278.776C912.173 278.272 913.685 278.02 915.581 278.02H921.629V280.504H915.725C913.997 280.504 912.833 280.792 912.233 281.368C911.633 281.944 911.333 282.64 911.333 283.456C911.333 284.392 911.705 285.148 912.449 285.724C913.193 286.276 914.225 286.552 915.545 286.552C916.841 286.552 917.969 286.264 918.929 285.688C919.913 285.112 920.621 284.272 921.053 283.168L921.737 285.544C921.281 286.672 920.477 287.572 919.325 288.244C918.173 288.892 916.721 289.216 914.969 289.216ZM937.457 289.216C935.537 289.216 934.049 288.7 932.993 287.668C931.937 286.636 931.409 285.16 931.409 283.24V265.744H934.865V283.096C934.865 284.128 935.117 284.92 935.621 285.472C936.149 286.024 936.893 286.3 937.853 286.3C938.933 286.3 939.833 286 940.553 285.4L941.633 287.884C941.105 288.34 940.469 288.676 939.725 288.892C939.005 289.108 938.249 289.216 937.457 289.216ZM928.169 272.764V269.92H940.337V272.764H928.169ZM945.811 289V269.92H949.267V289H945.811ZM947.539 266.248C946.867 266.248 946.303 266.032 945.847 265.6C945.415 265.168 945.199 264.64 945.199 264.016C945.199 263.368 945.415 262.828 945.847 262.396C946.303 261.964 946.867 261.748 947.539 261.748C948.211 261.748 948.763 261.964 949.195 262.396C949.651 262.804 949.879 263.32 949.879 263.944C949.879 264.592 949.663 265.144 949.231 265.6C948.799 266.032 948.235 266.248 947.539 266.248ZM964.038 289.216C962.118 289.216 960.414 288.796 958.926 287.956C957.438 287.116 956.262 285.964 955.398 284.5C954.534 283.012 954.102 281.332 954.102 279.46C954.102 277.564 954.534 275.884 955.398 274.42C956.262 272.956 957.438 271.816 958.926 271C960.414 270.16 962.118 269.74 964.038 269.74C965.934 269.74 967.626 270.16 969.114 271C970.626 271.816 971.802 272.956 972.642 274.42C973.506 275.86 973.938 277.54 973.938 279.46C973.938 281.356 973.506 283.036 972.642 284.5C971.802 285.964 970.626 287.116 969.114 287.956C967.626 288.796 965.934 289.216 964.038 289.216ZM964.038 286.192C965.262 286.192 966.354 285.916 967.314 285.364C968.298 284.812 969.066 284.032 969.618 283.024C970.17 281.992 970.446 280.804 970.446 279.46C970.446 278.092 970.17 276.916 969.618 275.932C969.066 274.924 968.298 274.144 967.314 273.592C966.354 273.04 965.262 272.764 964.038 272.764C962.814 272.764 961.722 273.04 960.762 273.592C959.802 274.144 959.034 274.924 958.458 275.932C957.882 276.916 957.594 278.092 957.594 279.46C957.594 280.804 957.882 281.992 958.458 283.024C959.034 284.032 959.802 284.812 960.762 285.364C961.722 285.916 962.814 286.192 964.038 286.192ZM988.905 269.74C990.465 269.74 991.833 270.04 993.009 270.64C994.209 271.24 995.145 272.152 995.817 273.376C996.489 274.6 996.825 276.148 996.825 278.02V289H993.369V278.416C993.369 276.568 992.913 275.176 992.001 274.24C991.113 273.304 989.853 272.836 988.221 272.836C986.997 272.836 985.929 273.076 985.017 273.556C984.105 274.036 983.397 274.744 982.893 275.68C982.413 276.616 982.173 277.78 982.173 279.172V289H978.717V269.92H982.029V275.068L981.489 273.7C982.113 272.452 983.073 271.48 984.369 270.784C985.665 270.088 987.177 269.74 988.905 269.74ZM1036.76 269.74C1038.29 269.74 1039.65 270.04 1040.83 270.64C1042 271.24 1042.91 272.152 1043.56 273.376C1044.23 274.6 1044.57 276.148 1044.57 278.02V289H1041.11V278.416C1041.11 276.568 1040.68 275.176 1039.82 274.24C1038.95 273.304 1037.74 272.836 1036.18 272.836C1035.03 272.836 1034.02 273.076 1033.16 273.556C1032.29 274.036 1031.62 274.744 1031.14 275.68C1030.69 276.616 1030.46 277.78 1030.46 279.172V289H1027V278.416C1027 276.568 1026.57 275.176 1025.71 274.24C1024.87 273.304 1023.65 272.836 1022.07 272.836C1020.94 272.836 1019.95 273.076 1019.08 273.556C1018.22 274.036 1017.55 274.744 1017.07 275.68C1016.59 276.616 1016.35 277.78 1016.35 279.172V289H1012.89V269.92H1016.2V274.996L1015.66 273.7C1016.26 272.452 1017.19 271.48 1018.43 270.784C1019.68 270.088 1021.13 269.74 1022.79 269.74C1024.61 269.74 1026.19 270.196 1027.51 271.108C1028.83 271.996 1029.69 273.352 1030.1 275.176L1028.69 274.6C1029.27 273.136 1030.28 271.96 1031.72 271.072C1033.16 270.184 1034.84 269.74 1036.76 269.74ZM1062.77 289V284.968L1062.59 284.212V277.336C1062.59 275.872 1062.16 274.744 1061.3 273.952C1060.46 273.136 1059.18 272.728 1057.48 272.728C1056.35 272.728 1055.25 272.92 1054.17 273.304C1053.09 273.664 1052.18 274.156 1051.43 274.78L1049.99 272.188C1050.98 271.396 1052.15 270.796 1053.52 270.388C1054.91 269.956 1056.36 269.74 1057.88 269.74C1060.49 269.74 1062.51 270.376 1063.92 271.648C1065.34 272.92 1066.05 274.864 1066.05 277.48V289H1062.77ZM1056.51 289.216C1055.09 289.216 1053.84 288.976 1052.76 288.496C1051.71 288.016 1050.89 287.356 1050.32 286.516C1049.74 285.652 1049.45 284.68 1049.45 283.6C1049.45 282.568 1049.69 281.632 1050.17 280.792C1050.68 279.952 1051.48 279.28 1052.58 278.776C1053.71 278.272 1055.22 278.02 1057.12 278.02H1063.17V280.504H1057.26C1055.54 280.504 1054.37 280.792 1053.77 281.368C1053.17 281.944 1052.87 282.64 1052.87 283.456C1052.87 284.392 1053.24 285.148 1053.99 285.724C1054.73 286.276 1055.76 286.552 1057.08 286.552C1058.38 286.552 1059.51 286.264 1060.47 285.688C1061.45 285.112 1062.16 284.272 1062.59 283.168L1063.28 285.544C1062.82 286.672 1062.02 287.572 1060.86 288.244C1059.71 288.892 1058.26 289.216 1056.51 289.216ZM1080.33 289.216C1078.48 289.216 1076.82 288.808 1075.36 287.992C1073.92 287.176 1072.78 286.036 1071.94 284.572C1071.1 283.108 1070.68 281.404 1070.68 279.46C1070.68 277.516 1071.1 275.824 1071.94 274.384C1072.78 272.92 1073.92 271.78 1075.36 270.964C1076.82 270.148 1078.48 269.74 1080.33 269.74C1081.94 269.74 1083.39 270.1 1084.68 270.82C1085.98 271.54 1087.01 272.62 1087.78 274.06C1088.57 275.5 1088.97 277.3 1088.97 279.46C1088.97 281.62 1088.58 283.42 1087.82 284.86C1087.07 286.3 1086.05 287.392 1084.76 288.136C1083.46 288.856 1081.98 289.216 1080.33 289.216ZM1080.62 286.192C1081.82 286.192 1082.9 285.916 1083.86 285.364C1084.84 284.812 1085.61 284.032 1086.16 283.024C1086.74 281.992 1087.02 280.804 1087.02 279.46C1087.02 278.092 1086.74 276.916 1086.16 275.932C1085.61 274.924 1084.84 274.144 1083.86 273.592C1082.9 273.04 1081.82 272.764 1080.62 272.764C1079.39 272.764 1078.3 273.04 1077.34 273.592C1076.38 274.144 1075.61 274.924 1075.04 275.932C1074.46 276.916 1074.17 278.092 1074.17 279.46C1074.17 280.804 1074.46 281.992 1075.04 283.024C1075.61 284.032 1076.38 284.812 1077.34 285.364C1078.3 285.916 1079.39 286.192 1080.62 286.192ZM1087.13 289V283.852L1087.35 279.424L1086.99 274.996V262.288H1090.44V289H1087.13ZM1105.48 289.216C1103.44 289.216 1101.64 288.796 1100.08 287.956C1098.54 287.116 1097.34 285.964 1096.48 284.5C1095.64 283.036 1095.22 281.356 1095.22 279.46C1095.22 277.564 1095.63 275.884 1096.44 274.42C1097.28 272.956 1098.42 271.816 1099.86 271C1101.33 270.16 1102.97 269.74 1104.8 269.74C1106.64 269.74 1108.28 270.148 1109.69 270.964C1111.11 271.78 1112.21 272.932 1113 274.42C1113.82 275.884 1114.23 277.6 1114.23 279.568C1114.23 279.712 1114.22 279.88 1114.19 280.072C1114.19 280.264 1114.18 280.444 1114.16 280.612H1097.92V278.128H1112.36L1110.95 278.992C1110.98 277.768 1110.72 276.676 1110.2 275.716C1109.67 274.756 1108.94 274.012 1108 273.484C1107.09 272.932 1106.02 272.656 1104.8 272.656C1103.6 272.656 1102.53 272.932 1101.59 273.484C1100.66 274.012 1099.92 274.768 1099.4 275.752C1098.87 276.712 1098.6 277.816 1098.6 279.064V279.64C1098.6 280.912 1098.89 282.052 1099.47 283.06C1100.07 284.044 1100.9 284.812 1101.95 285.364C1103.01 285.916 1104.22 286.192 1105.59 286.192C1106.72 286.192 1107.74 286 1108.65 285.616C1109.58 285.232 1110.4 284.656 1111.1 283.888L1113 286.12C1112.14 287.128 1111.06 287.896 1109.76 288.424C1108.49 288.952 1107.06 289.216 1105.48 289.216ZM1134.17 289.216C1132.58 289.216 1131.07 289 1129.63 288.568C1128.21 288.136 1127.1 287.608 1126.28 286.984L1127.72 284.248C1128.54 284.8 1129.55 285.268 1130.75 285.652C1131.95 286.036 1133.17 286.228 1134.42 286.228C1136.03 286.228 1137.18 286 1137.87 285.544C1138.59 285.088 1138.95 284.452 1138.95 283.636C1138.95 283.036 1138.74 282.568 1138.31 282.232C1137.87 281.896 1137.3 281.644 1136.58 281.476C1135.88 281.308 1135.1 281.164 1134.24 281.044C1133.37 280.9 1132.51 280.732 1131.65 280.54C1130.78 280.324 1129.99 280.036 1129.27 279.676C1128.55 279.292 1127.97 278.776 1127.54 278.128C1127.11 277.456 1126.89 276.568 1126.89 275.464C1126.89 274.312 1127.22 273.304 1127.87 272.44C1128.51 271.576 1129.43 270.916 1130.6 270.46C1131.8 269.98 1133.22 269.74 1134.85 269.74C1136.1 269.74 1137.36 269.896 1138.63 270.208C1139.93 270.496 1140.98 270.916 1141.8 271.468L1140.32 274.204C1139.46 273.628 1138.56 273.232 1137.62 273.016C1136.69 272.8 1135.75 272.692 1134.81 272.692C1133.3 272.692 1132.17 272.944 1131.43 273.448C1130.69 273.928 1130.31 274.552 1130.31 275.32C1130.31 275.968 1130.53 276.472 1130.96 276.832C1131.42 277.168 1131.99 277.432 1132.69 277.624C1133.41 277.816 1134.2 277.984 1135.07 278.128C1135.93 278.248 1136.79 278.416 1137.66 278.632C1138.52 278.824 1139.3 279.1 1140 279.46C1140.72 279.82 1141.29 280.324 1141.73 280.972C1142.18 281.62 1142.41 282.484 1142.41 283.564C1142.41 284.716 1142.07 285.712 1141.4 286.552C1140.73 287.392 1139.78 288.052 1138.56 288.532C1137.33 288.988 1135.87 289.216 1134.17 289.216ZM1146.73 289V269.92H1150.19V289H1146.73ZM1148.46 266.248C1147.79 266.248 1147.22 266.032 1146.77 265.6C1146.33 265.168 1146.12 264.64 1146.12 264.016C1146.12 263.368 1146.33 262.828 1146.77 262.396C1147.22 261.964 1147.79 261.748 1148.46 261.748C1149.13 261.748 1149.68 261.964 1150.11 262.396C1150.57 262.804 1150.8 263.32 1150.8 263.944C1150.8 264.592 1150.58 265.144 1150.15 265.6C1149.72 266.032 1149.15 266.248 1148.46 266.248ZM1180.65 269.74C1182.19 269.74 1183.54 270.04 1184.72 270.64C1185.9 271.24 1186.81 272.152 1187.46 273.376C1188.13 274.6 1188.46 276.148 1188.46 278.02V289H1185.01V278.416C1185.01 276.568 1184.58 275.176 1183.71 274.24C1182.85 273.304 1181.64 272.836 1180.08 272.836C1178.92 272.836 1177.92 273.076 1177.05 273.556C1176.19 274.036 1175.52 274.744 1175.04 275.68C1174.58 276.616 1174.35 277.78 1174.35 279.172V289H1170.9V278.416C1170.9 276.568 1170.46 275.176 1169.6 274.24C1168.76 273.304 1167.55 272.836 1165.96 272.836C1164.84 272.836 1163.84 273.076 1162.98 273.556C1162.11 274.036 1161.44 274.744 1160.96 275.68C1160.48 276.616 1160.24 277.78 1160.24 279.172V289H1156.78V269.92H1160.1V274.996L1159.56 273.7C1160.16 272.452 1161.08 271.48 1162.33 270.784C1163.58 270.088 1165.03 269.74 1166.68 269.74C1168.51 269.74 1170.08 270.196 1171.4 271.108C1172.72 271.996 1173.58 273.352 1173.99 275.176L1172.59 274.6C1173.16 273.136 1174.17 271.96 1175.61 271.072C1177.05 270.184 1178.73 269.74 1180.65 269.74ZM1204.94 289.216C1203.35 289.216 1201.9 288.856 1200.58 288.136C1199.29 287.392 1198.24 286.3 1197.45 284.86C1196.68 283.42 1196.3 281.62 1196.3 279.46C1196.3 277.3 1196.67 275.5 1197.41 274.06C1198.18 272.62 1199.21 271.54 1200.51 270.82C1201.83 270.1 1203.31 269.74 1204.94 269.74C1206.81 269.74 1208.47 270.148 1209.91 270.964C1211.35 271.78 1212.49 272.92 1213.33 274.384C1214.17 275.824 1214.59 277.516 1214.59 279.46C1214.59 281.404 1214.17 283.108 1213.33 284.572C1212.49 286.036 1211.35 287.176 1209.91 287.992C1208.47 288.808 1206.81 289.216 1204.94 289.216ZM1194.82 295.984V269.92H1198.13V275.068L1197.92 279.496L1198.28 283.924V295.984H1194.82ZM1204.65 286.192C1205.87 286.192 1206.97 285.916 1207.93 285.364C1208.91 284.812 1209.68 284.032 1210.23 283.024C1210.81 281.992 1211.09 280.804 1211.09 279.46C1211.09 278.092 1210.81 276.916 1210.23 275.932C1209.68 274.924 1208.91 274.144 1207.93 273.592C1206.97 273.04 1205.87 272.764 1204.65 272.764C1203.45 272.764 1202.36 273.04 1201.37 273.592C1200.41 274.144 1199.65 274.924 1199.07 275.932C1198.52 276.916 1198.24 278.092 1198.24 279.46C1198.24 280.804 1198.52 281.992 1199.07 283.024C1199.65 284.032 1200.41 284.812 1201.37 285.364C1202.36 285.916 1203.45 286.192 1204.65 286.192ZM1219.36 289V262.288H1222.82V289H1219.36ZM1237.91 289.216C1235.87 289.216 1234.07 288.796 1232.51 287.956C1230.98 287.116 1229.78 285.964 1228.91 284.5C1228.07 283.036 1227.65 281.356 1227.65 279.46C1227.65 277.564 1228.06 275.884 1228.88 274.42C1229.72 272.956 1230.86 271.816 1232.3 271C1233.76 270.16 1235.4 269.74 1237.23 269.74C1239.08 269.74 1240.71 270.148 1242.12 270.964C1243.54 271.78 1244.64 272.932 1245.44 274.42C1246.25 275.884 1246.66 277.6 1246.66 279.568C1246.66 279.712 1246.65 279.88 1246.62 280.072C1246.62 280.264 1246.61 280.444 1246.59 280.612H1230.35V278.128H1244.79L1243.38 278.992C1243.41 277.768 1243.16 276.676 1242.63 275.716C1242.1 274.756 1241.37 274.012 1240.43 273.484C1239.52 272.932 1238.45 272.656 1237.23 272.656C1236.03 272.656 1234.96 272.932 1234.02 273.484C1233.09 274.012 1232.36 274.768 1231.83 275.752C1231.3 276.712 1231.04 277.816 1231.04 279.064V279.64C1231.04 280.912 1231.32 282.052 1231.9 283.06C1232.5 284.044 1233.33 284.812 1234.38 285.364C1235.44 285.916 1236.65 286.192 1238.02 286.192C1239.15 286.192 1240.17 286 1241.08 285.616C1242.02 285.232 1242.83 284.656 1243.53 283.888L1245.44 286.12C1244.57 287.128 1243.49 287.896 1242.2 288.424C1240.92 288.952 1239.5 289.216 1237.91 289.216Z" fill="white"/>
<rect x="197" y="60" width="214.96" height="214.96" rx="42" transform="rotate(45 197 60)" fill="url(#paint1_angular_392_738)"/>
<rect x="196.581" y="81" width="184.669" height="184.669" rx="28" transform="rotate(45 196.581 81)" fill="#2C3135"/>
<rect x="196.581" y="79.5858" width="186.669" height="186.669" rx="29" transform="rotate(45 196.581 79.5858)" stroke="#FA9E4D" stroke-opacity="0.5" stroke-width="2"/>
<rect opacity="0.4" x="196.501" y="92" width="169" height="169" rx="24" transform="rotate(45 196.501 92)" fill="#445879"/>
<path fill-rule="evenodd" clip-rule="evenodd" d="M159.957 294.458L155.34 289.841L155.34 168.493L218.051 168.493C224.89 168.493 231.302 170.293 237.287 173.893C243.272 177.45 248.038 182.229 251.586 188.228C255.134 194.228 256.908 200.635 256.908 207.449C256.908 213.535 255.861 219.149 253.766 224.291C251.671 229.391 248.85 233.634 245.302 237.02C241.754 240.405 237.629 243.041 232.927 244.926C228.224 246.769 223.266 247.691 218.051 247.691H191.248V243.062L218.051 243.062C222.625 243.062 227.006 242.162 231.195 240.362C235.385 238.52 239.018 236.055 242.096 232.97C245.217 229.841 247.696 226.07 249.534 221.656C251.372 217.199 252.291 212.463 252.291 207.449C252.291 201.449 250.731 195.814 247.61 190.543C244.49 185.229 240.279 181.007 234.979 177.879C229.721 174.707 224.078 173.122 218.051 173.122L159.957 173.122L159.957 294.458ZM169.19 303.691L164.574 299.074L164.574 177.75L218.051 177.75C223.223 177.75 228.096 179.122 232.67 181.864C237.244 184.607 240.878 188.271 243.571 192.857C246.307 197.442 247.675 202.307 247.675 207.449C247.675 213.278 246.307 218.592 243.571 223.391C240.835 228.148 237.201 231.855 232.67 234.513C228.182 237.127 223.308 238.434 218.051 238.434H191.248V233.805L218.051 233.805C222.496 233.805 226.6 232.734 230.362 230.591C234.166 228.406 237.223 225.277 239.531 221.206C241.882 217.135 243.058 212.549 243.058 207.449C243.058 200.849 240.536 195.021 235.492 189.964C230.49 184.907 224.676 182.379 218.051 182.379L169.19 182.379L169.19 303.691ZM178.424 312.925L173.807 308.308L173.807 187.007L218.051 187.007C223.437 187.007 228.182 189.086 232.285 193.243C236.389 197.4 238.441 202.135 238.441 207.449C238.441 214.006 236.453 219.277 232.478 223.263C228.502 227.206 223.693 229.177 218.051 229.177L191.248 229.177V224.549L218.051 224.549C222.454 224.549 226.173 223.07 229.208 220.113C232.285 217.113 233.824 212.892 233.824 207.449C233.824 203.378 232.221 199.735 229.015 196.521C225.809 193.264 222.154 191.635 218.051 191.635L178.424 191.635L178.424 312.925ZM187.657 319.378C186.053 318.744 184.504 317.93 183.04 316.936L183.04 196.264L218.051 196.264C221.086 196.264 223.693 197.378 225.873 199.607C228.096 201.835 229.208 204.449 229.208 207.449C229.208 215.763 225.489 219.92 218.051 219.92L191.248 219.92L191.248 215.292L218.051 215.292C220.102 215.292 221.705 214.713 222.86 213.556C224.014 212.399 224.591 210.363 224.591 207.449C224.591 205.564 223.95 203.999 222.667 202.756C221.428 201.514 219.889 200.892 218.051 200.892L187.657 200.892L187.657 319.378Z" fill="#FEFEFE"/>
<path d="M1313.46 219.55C1312.36 217.05 1311.16 214.25 1309.86 211.15C1308.66 208.05 1307.36 204.5 1305.96 200.5C1304.66 196.5 1303.26 191.95 1301.76 186.85C1300.36 181.65 1298.86 175.7 1297.26 169C1298.66 167.6 1300.51 166.4 1302.81 165.4C1305.21 164.3 1307.81 163.75 1310.61 163.75C1314.11 163.75 1317.01 164.5 1319.31 166C1321.61 167.4 1323.31 170.1 1324.41 174.1L1336.26 215.35H1336.86C1338.06 211.95 1339.21 208.25 1340.31 204.25C1341.51 200.25 1342.66 196.15 1343.76 191.95C1344.86 187.65 1345.86 183.4 1346.76 179.2C1347.76 174.9 1348.61 170.7 1349.31 166.6C1352.91 164.7 1356.86 163.75 1361.16 163.75C1364.66 163.75 1367.56 164.5 1369.86 166C1372.16 167.5 1373.31 170.1 1373.31 173.8C1373.31 176.5 1372.96 179.65 1372.26 183.25C1371.56 186.75 1370.61 190.5 1369.41 194.5C1368.31 198.5 1366.96 202.65 1365.36 206.95C1363.86 211.15 1362.26 215.3 1360.56 219.4C1358.86 223.5 1357.11 227.4 1355.31 231.1C1353.51 234.7 1351.76 237.95 1350.06 240.85C1347.26 245.75 1344.66 249.75 1342.26 252.85C1339.86 255.95 1337.56 258.35 1335.36 260.05C1333.16 261.85 1330.96 263.05 1328.76 263.65C1326.56 264.35 1324.26 264.7 1321.86 264.7C1317.66 264.7 1314.26 263.45 1311.66 260.95C1309.06 258.45 1307.51 255.2 1307.01 251.2C1310.21 248.7 1313.41 245.9 1316.61 242.8C1319.81 239.8 1322.71 236.7 1325.31 233.5C1323.61 233 1321.76 231.85 1319.76 230.05C1317.86 228.15 1315.76 224.65 1313.46 219.55Z" fill="white"/>
<path d="M1253.42 221.95C1255.12 221.95 1256.97 221.8 1258.97 221.5C1261.07 221.1 1262.62 220.6 1263.62 220V208L1252.82 208.9C1250.02 209.1 1247.72 209.7 1245.92 210.7C1244.12 211.7 1243.22 213.2 1243.22 215.2C1243.22 217.2 1243.97 218.85 1245.47 220.15C1247.07 221.35 1249.72 221.95 1253.42 221.95ZM1252.22 163C1257.62 163 1262.52 163.55 1266.92 164.65C1271.42 165.75 1275.22 167.45 1278.32 169.75C1281.52 171.95 1283.97 174.8 1285.67 178.3C1287.37 181.7 1288.22 185.75 1288.22 190.45V224.05C1288.22 226.65 1287.47 228.8 1285.97 230.5C1284.57 232.1 1282.87 233.5 1280.87 234.7C1274.37 238.6 1265.22 240.55 1253.42 240.55C1248.12 240.55 1243.32 240.05 1239.02 239.05C1234.82 238.05 1231.17 236.55 1228.07 234.55C1225.07 232.55 1222.72 230 1221.02 226.9C1219.42 223.8 1218.62 220.2 1218.62 216.1C1218.62 209.2 1220.67 203.9 1224.77 200.2C1228.87 196.5 1235.22 194.2 1243.82 193.3L1263.47 191.2V190.15C1263.47 187.25 1262.17 185.2 1259.57 184C1257.07 182.7 1253.42 182.05 1248.62 182.05C1244.82 182.05 1241.12 182.45 1237.52 183.25C1233.92 184.05 1230.67 185.05 1227.77 186.25C1226.47 185.35 1225.37 184 1224.47 182.2C1223.57 180.3 1223.12 178.35 1223.12 176.35C1223.12 173.75 1223.72 171.7 1224.92 170.2C1226.22 168.6 1228.17 167.25 1230.77 166.15C1233.67 165.05 1237.07 164.25 1240.97 163.75C1244.97 163.25 1248.72 163 1252.22 163Z" fill="white"/>
<path d="M1131.18 201.7C1131.18 195.1 1132.18 189.4 1134.18 184.6C1136.18 179.7 1138.93 175.65 1142.43 172.45C1146.03 169.25 1150.18 166.9 1154.88 165.4C1159.68 163.8 1164.83 163 1170.33 163C1172.33 163 1174.28 163.2 1176.18 163.6C1178.08 163.9 1179.63 164.3 1180.83 164.8V140.5C1181.83 140.2 1183.43 139.9 1185.63 139.6C1187.83 139.2 1190.08 139 1192.38 139C1194.58 139 1196.53 139.15 1198.23 139.45C1200.03 139.75 1201.53 140.35 1202.73 141.25C1203.93 142.15 1204.83 143.4 1205.43 145C1206.03 146.5 1206.33 148.5 1206.33 151V222.1C1206.33 226.8 1204.13 230.55 1199.73 233.35C1196.83 235.25 1193.08 236.9 1188.48 238.3C1183.88 239.8 1178.58 240.55 1172.58 240.55C1166.08 240.55 1160.23 239.65 1155.03 237.85C1149.93 236.05 1145.58 233.45 1141.98 230.05C1138.48 226.65 1135.78 222.6 1133.88 217.9C1132.08 213.1 1131.18 207.7 1131.18 201.7ZM1173.78 182.95C1168.38 182.95 1164.23 184.5 1161.33 187.6C1158.43 190.7 1156.98 195.4 1156.98 201.7C1156.98 207.9 1158.33 212.6 1161.03 215.8C1163.73 218.9 1167.63 220.45 1172.73 220.45C1174.53 220.45 1176.13 220.2 1177.53 219.7C1179.03 219.1 1180.18 218.45 1180.98 217.75V184.75C1178.98 183.55 1176.58 182.95 1173.78 182.95Z" fill="white"/>
<path d="M1121.89 201.7C1121.89 207.9 1120.94 213.45 1119.04 218.35C1117.14 223.15 1114.44 227.2 1110.94 230.5C1107.54 233.8 1103.44 236.3 1098.64 238C1093.84 239.7 1088.49 240.55 1082.59 240.55C1076.69 240.55 1071.34 239.65 1066.54 237.85C1061.74 236.05 1057.59 233.5 1054.09 230.2C1050.69 226.8 1048.04 222.7 1046.14 217.9C1044.24 213.1 1043.29 207.7 1043.29 201.7C1043.29 195.8 1044.24 190.45 1046.14 185.65C1048.04 180.85 1050.69 176.8 1054.09 173.5C1057.59 170.1 1061.74 167.5 1066.54 165.7C1071.34 163.9 1076.69 163 1082.59 163C1088.49 163 1093.84 163.95 1098.64 165.85C1103.44 167.65 1107.54 170.25 1110.94 173.65C1114.44 176.95 1117.14 181 1119.04 185.8C1120.94 190.6 1121.89 195.9 1121.89 201.7ZM1069.39 201.7C1069.39 207.8 1070.54 212.5 1072.84 215.8C1075.24 219 1078.54 220.6 1082.74 220.6C1086.94 220.6 1090.14 218.95 1092.34 215.65C1094.64 212.35 1095.79 207.7 1095.79 201.7C1095.79 195.7 1094.64 191.1 1092.34 187.9C1090.04 184.6 1086.79 182.95 1082.59 182.95C1078.39 182.95 1075.14 184.6 1072.84 187.9C1070.54 191.1 1069.39 195.7 1069.39 201.7Z" fill="white"/>
<path d="M1012.76 213.1C1012.76 215.7 1013.56 217.55 1015.16 218.65C1016.86 219.75 1019.21 220.3 1022.21 220.3C1023.71 220.3 1025.26 220.2 1026.86 220C1028.46 219.7 1029.86 219.35 1031.06 218.95C1031.96 220.05 1032.71 221.3 1033.31 222.7C1034.01 224 1034.36 225.6 1034.36 227.5C1034.36 231.3 1032.91 234.4 1030.01 236.8C1027.21 239.2 1022.21 240.4 1015.01 240.4C1006.21 240.4 999.411 238.4 994.611 234.4C989.911 230.4 987.561 223.9 987.561 214.9V150.7C988.661 150.4 990.211 150.1 992.211 149.8C994.311 149.4 996.511 149.2 998.811 149.2C1003.21 149.2 1006.61 150 1009.01 151.6C1011.51 153.1 1012.76 156.35 1012.76 161.35V170.95H1032.41C1033.01 172.05 1033.56 173.45 1034.06 175.15C1034.66 176.75 1034.96 178.55 1034.96 180.55C1034.96 184.05 1034.16 186.6 1032.56 188.2C1031.06 189.7 1029.01 190.45 1026.41 190.45H1012.76V213.1Z" fill="white"/>
<path d="M947.458 226C947.458 221.8 948.758 218.3 951.358 215.5C953.958 212.7 957.508 211.3 962.008 211.3C966.508 211.3 970.058 212.7 972.658 215.5C975.258 218.3 976.558 221.8 976.558 226C976.558 230.2 975.258 233.7 972.658 236.5C970.058 239.3 966.508 240.7 962.008 240.7C957.508 240.7 953.958 239.3 951.358 236.5C948.758 233.7 947.458 230.2 947.458 226Z" fill="white"/>
<path d="M860.918 201.7C860.918 195.1 861.918 189.4 863.918 184.6C865.918 179.7 868.668 175.65 872.168 172.45C875.768 169.25 879.918 166.9 884.618 165.4C889.418 163.8 894.568 163 900.068 163C902.068 163 904.018 163.2 905.918 163.6C907.818 163.9 909.368 164.3 910.568 164.8V140.5C911.568 140.2 913.168 139.9 915.368 139.6C917.568 139.2 919.818 139 922.118 139C924.318 139 926.268 139.15 927.968 139.45C929.768 139.75 931.268 140.35 932.468 141.25C933.668 142.15 934.568 143.4 935.168 145C935.768 146.5 936.068 148.5 936.068 151V222.1C936.068 226.8 933.868 230.55 929.468 233.35C926.568 235.25 922.818 236.9 918.218 238.3C913.618 239.8 908.318 240.55 902.318 240.55C895.818 240.55 889.968 239.65 884.768 237.85C879.668 236.05 875.318 233.45 871.718 230.05C868.218 226.65 865.518 222.6 863.618 217.9C861.818 213.1 860.918 207.7 860.918 201.7ZM903.518 182.95C898.118 182.95 893.968 184.5 891.068 187.6C888.168 190.7 886.718 195.4 886.718 201.7C886.718 207.9 888.068 212.6 890.768 215.8C893.468 218.9 897.368 220.45 902.468 220.45C904.268 220.45 905.868 220.2 907.268 219.7C908.768 219.1 909.918 218.45 910.718 217.75V184.75C908.718 183.55 906.318 182.95 903.518 182.95Z" fill="white"/>
<path d="M820.293 240.55C814.393 240.55 808.893 239.75 803.793 238.15C798.793 236.45 794.393 233.95 790.593 230.65C786.893 227.35 783.943 223.2 781.743 218.2C779.643 213.2 778.593 207.35 778.593 200.65C778.593 194.05 779.643 188.4 781.743 183.7C783.943 178.9 786.793 175 790.293 172C793.793 168.9 797.793 166.65 802.293 165.25C806.793 163.75 811.393 163 816.093 163C821.393 163 826.193 163.8 830.493 165.4C834.893 167 838.643 169.2 841.743 172C844.943 174.8 847.393 178.15 849.093 182.05C850.893 185.95 851.793 190.2 851.793 194.8C851.793 198.2 850.843 200.8 848.943 202.6C847.043 204.4 844.393 205.55 840.993 206.05L803.943 211.6C805.043 214.9 807.293 217.4 810.693 219.1C814.093 220.7 817.993 221.5 822.393 221.5C826.493 221.5 830.343 221 833.943 220C837.643 218.9 840.643 217.65 842.943 216.25C844.543 217.25 845.893 218.65 846.993 220.45C848.093 222.25 848.643 224.15 848.643 226.15C848.643 230.65 846.543 234 842.343 236.2C839.143 237.9 835.543 239.05 831.543 239.65C827.543 240.25 823.793 240.55 820.293 240.55ZM816.093 181.6C813.693 181.6 811.593 182 809.793 182.8C808.093 183.6 806.693 184.65 805.593 185.95C804.493 187.15 803.643 188.55 803.043 190.15C802.543 191.65 802.243 193.2 802.143 194.8L827.793 190.6C827.493 188.6 826.393 186.6 824.493 184.6C822.593 182.6 819.793 181.6 816.093 181.6Z" fill="white"/>
<path d="M740.492 191.95C740.492 188.85 739.592 186.6 737.792 185.2C736.092 183.7 733.742 182.95 730.742 182.95C728.742 182.95 726.742 183.2 724.742 183.7C722.842 184.2 721.192 184.95 719.792 185.95V238C718.792 238.3 717.192 238.6 714.992 238.9C712.892 239.2 710.692 239.35 708.392 239.35C706.192 239.35 704.192 239.2 702.392 238.9C700.692 238.6 699.242 238 698.042 237.1C696.842 236.2 695.892 235 695.192 233.5C694.592 231.9 694.292 229.85 694.292 227.35V182.35C694.292 179.65 694.842 177.45 695.942 175.75C697.142 174.05 698.742 172.5 700.742 171.1C704.142 168.7 708.392 166.75 713.492 165.25C718.692 163.75 724.442 163 730.742 163C742.042 163 750.742 165.5 756.842 170.5C762.942 175.4 765.992 182.25 765.992 191.05V238C764.992 238.3 763.392 238.6 761.192 238.9C759.092 239.2 756.892 239.35 754.592 239.35C752.392 239.35 750.392 239.2 748.592 238.9C746.892 238.6 745.442 238 744.242 237.1C743.042 236.2 742.092 235 741.392 233.5C740.792 231.9 740.492 229.85 740.492 227.35V191.95Z" fill="white"/>
<path d="M653.041 191.95C653.041 188.85 652.141 186.6 650.341 185.2C648.641 183.7 646.291 182.95 643.291 182.95C641.291 182.95 639.291 183.2 637.291 183.7C635.391 184.2 633.741 184.95 632.341 185.95V238C631.341 238.3 629.741 238.6 627.541 238.9C625.441 239.2 623.241 239.35 620.941 239.35C618.741 239.35 616.741 239.2 614.941 238.9C613.241 238.6 611.791 238 610.591 237.1C609.391 236.2 608.441 235 607.741 233.5C607.141 231.9 606.841 229.85 606.841 227.35V182.35C606.841 179.65 607.391 177.45 608.491 175.75C609.691 174.05 611.291 172.5 613.291 171.1C616.691 168.7 620.941 166.75 626.041 165.25C631.241 163.75 636.991 163 643.291 163C654.591 163 663.291 165.5 669.391 170.5C675.491 175.4 678.541 182.25 678.541 191.05V238C677.541 238.3 675.941 238.6 673.741 238.9C671.641 239.2 669.441 239.35 667.141 239.35C664.941 239.35 662.941 239.2 661.141 238.9C659.441 238.6 657.991 238 656.791 237.1C655.591 236.2 654.641 235 653.941 233.5C653.341 231.9 653.041 229.85 653.041 227.35V191.95Z" fill="white"/>
<path d="M556.449 221.95C558.149 221.95 559.999 221.8 561.999 221.5C564.099 221.1 565.649 220.6 566.649 220V208L555.849 208.9C553.049 209.1 550.749 209.7 548.949 210.7C547.149 211.7 546.249 213.2 546.249 215.2C546.249 217.2 546.999 218.85 548.499 220.15C550.099 221.35 552.749 221.95 556.449 221.95ZM555.249 163C560.649 163 565.549 163.55 569.949 164.65C574.449 165.75 578.249 167.45 581.349 169.75C584.549 171.95 586.999 174.8 588.699 178.3C590.399 181.7 591.249 185.75 591.249 190.45V224.05C591.249 226.65 590.499 228.8 588.999 230.5C587.599 232.1 585.899 233.5 583.899 234.7C577.399 238.6 568.249 240.55 556.449 240.55C551.149 240.55 546.349 240.05 542.049 239.05C537.849 238.05 534.199 236.55 531.099 234.55C528.099 232.55 525.749 230 524.049 226.9C522.449 223.8 521.649 220.2 521.649 216.1C521.649 209.2 523.699 203.9 527.799 200.2C531.899 196.5 538.249 194.2 546.849 193.3L566.499 191.2V190.15C566.499 187.25 565.199 185.2 562.599 184C560.099 182.7 556.449 182.05 551.649 182.05C547.849 182.05 544.149 182.45 540.549 183.25C536.949 184.05 533.699 185.05 530.799 186.25C529.499 185.35 528.399 184 527.499 182.2C526.599 180.3 526.149 178.35 526.149 176.35C526.149 173.75 526.749 171.7 527.949 170.2C529.249 168.6 531.199 167.25 533.799 166.15C536.699 165.05 540.099 164.25 543.999 163.75C547.999 163.25 551.749 163 555.249 163Z" fill="white"/>
<path d="M509.158 238C508.058 238.2 506.408 238.45 504.208 238.75C502.108 239.15 499.958 239.35 497.758 239.35C495.558 239.35 493.558 239.2 491.758 238.9C490.058 238.6 488.608 238 487.408 237.1C486.208 236.2 485.258 235 484.558 233.5C483.958 231.9 483.658 229.85 483.658 227.35V140.35C484.758 140.15 486.358 139.9 488.458 139.6C490.658 139.2 492.858 139 495.058 139C497.258 139 499.208 139.15 500.908 139.45C502.708 139.75 504.208 140.35 505.408 141.25C506.608 142.15 507.508 143.4 508.108 145C508.808 146.5 509.158 148.5 509.158 151V238Z" fill="white"/>
<path d="M432.05 189.4C436.25 189.4 439.45 188.45 441.65 186.55C443.95 184.55 445.1 181.55 445.1 177.55C445.1 173.75 443.9 170.85 441.5 168.85C439.2 166.75 435.8 165.7 431.3 165.7C429.7 165.7 428.35 165.75 427.25 165.85C426.25 165.85 425.2 165.95 424.1 166.15V189.4H432.05ZM424.25 237.55C423.15 237.85 421.4 238.15 419 238.45C416.7 238.75 414.4 238.9 412.1 238.9C409.8 238.9 407.75 238.7 405.95 238.3C404.25 238 402.8 237.4 401.6 236.5C400.4 235.6 399.5 234.35 398.9 232.75C398.3 231.15 398 229.05 398 226.45V155.8C398 153.7 398.55 152.1 399.65 151C400.85 149.8 402.45 148.85 404.45 148.15C407.85 146.95 411.7 146.1 416 145.6C420.4 145 424.8 144.7 429.2 144.7C443 144.7 453.55 147.65 460.85 153.55C468.15 159.45 471.8 167.45 471.8 177.55C471.8 182.45 471 186.9 469.4 190.9C467.9 194.8 465.6 198.2 462.5 201.1C459.5 203.9 455.65 206.1 450.95 207.7C446.35 209.2 441 209.95 434.9 209.95H424.25V237.55Z" fill="white"/>
<path d="M642.264 142.346L642.034 142.242L628.357 136.098V141.741C628.357 144.243 634.584 147.962 642.264 147.962C649.945 147.962 656.172 144.242 656.172 141.741V136.098L642.264 142.346Z" fill="url(#paint2_linear_392_738)"/>
<path d="M642.264 116.039L615 128.285L642.264 140.531L669.527 128.285L642.264 116.039Z" fill="url(#paint3_linear_392_738)"/>
<path d="M728.949 139.605L728.62 139.458L709.082 130.785V138.752C709.082 142.284 717.977 147.534 728.949 147.534C739.922 147.534 748.817 142.283 748.817 138.752V130.785L728.949 139.605Z" fill="url(#paint4_linear_392_738)"/>
<path d="M728.949 102.467L690 119.756L728.949 137.044L767.895 119.756L728.949 102.467Z" fill="url(#paint5_linear_392_738)"/>
<path d="M767.194 133.699L767.191 133.51C768.012 133.001 768.643 132.016 768.643 130.991C768.643 129.557 767.685 128.308 766.228 128.083V119.756H765.454V128.129C764.092 128.45 762.962 129.56 762.962 130.898C762.962 131.923 763.36 132.815 764.182 133.324L764.098 133.697L761.217 145.382H765.609H770L767.194 133.699Z" fill="url(#paint6_linear_392_738)"/>
<defs>
<linearGradient id="paint0_linear_392_738" x1="286.16" y1="-726.5" x2="1710.39" y2="1030.9" gradientUnits="userSpaceOnUse">
<stop stop-color="#0D1117"/>
<stop offset="0.503337" stop-color="#253145"/>
<stop offset="1" stop-color="#0D1117"/>
</linearGradient>
<radialGradient id="paint1_angular_392_738" cx="0" cy="0" r="1" gradientUnits="userSpaceOnUse" gradientTransform="translate(304.479 167.48) rotate(-135) scale(186.999)">
<stop offset="0.07" stop-color="#445879"/>
<stop offset="0.105" stop-color="#445879"/>
<stop offset="0.325" stop-color="#DC3545"/>
<stop offset="0.365" stop-color="#DC3545"/>
<stop offset="0.615" stop-color="#445879"/>
<stop offset="0.915" stop-color="#DC3545"/>
<stop offset="0.99" stop-color="#DC3545"/>
</radialGradient>
<linearGradient id="paint2_linear_392_738" x1="627.728" y1="143.399" x2="645.087" y2="143.751" gradientUnits="userSpaceOnUse">
<stop stop-color="#445879"/>
<stop offset="1" stop-color="#C64C58"/>
</linearGradient>
<linearGradient id="paint3_linear_392_738" x1="613.767" y1="131.111" x2="647.798" y2="131.766" gradientUnits="userSpaceOnUse">
<stop stop-color="#445879"/>
<stop offset="1" stop-color="#C64C58"/>
</linearGradient>
<linearGradient id="paint4_linear_392_738" x1="708.183" y1="141.092" x2="732.981" y2="141.601" gradientUnits="userSpaceOnUse">
<stop stop-color="#C64C58"/>
<stop offset="1" stop-color="#445879"/>
</linearGradient>
<linearGradient id="paint5_linear_392_738" x1="688.239" y1="123.745" x2="736.853" y2="124.692" gradientUnits="userSpaceOnUse">
<stop stop-color="#C64C58"/>
<stop offset="1" stop-color="#445879"/>
</linearGradient>
<linearGradient id="paint6_linear_392_738" x1="761.018" y1="135.526" x2="766.502" y2="135.542" gradientUnits="userSpaceOnUse">
<stop stop-color="#C64C58"/>
<stop offset="1" stop-color="#445879"/>
</linearGradient>
</defs>
</svg>
