<svg width="1397" height="424" viewBox="0 0 1397 424" fill="none" xmlns="http://www.w3.org/2000/svg">
<rect x="0.5" y="0.5" width="1395.6" height="422.999" rx="14.5" fill="#2C3135"/>
<rect x="0.5" y="0.5" width="1395.6" height="422.999" rx="14.5" stroke="#445879"/>
<rect x="197" y="60" width="214.96" height="214.96" rx="40" transform="rotate(45 197 60)" fill="url(#paint0_linear_325_987)"/>
<path d="M179.004 88.8624C194.625 73.2414 219.951 73.2414 235.572 88.8624L329.293 182.583C344.914 198.204 344.914 223.53 329.293 239.151L236.151 332.293C220.53 347.914 195.203 347.914 179.582 332.293L85.8619 238.573C70.2409 222.952 70.2409 197.625 85.8619 182.004L179.004 88.8624Z" fill="url(#paint1_linear_325_987)"/>
<rect x="198.419" y="70.5781" width="200" height="200" rx="40" transform="rotate(45 198.419 70.5781)" fill="#2C3135"/>
<rect opacity="0.4" x="197.578" y="81.7344" width="183.03" height="183.03" rx="32" transform="rotate(45 197.578 81.7344)" fill="#445879"/>
<path fill-rule="evenodd" clip-rule="evenodd" d="M158 301L153 296L153 164.578L220.917 164.578C228.324 164.578 235.269 166.528 241.75 170.426C248.232 174.279 253.394 179.454 257.236 185.952C261.079 192.449 263 199.388 263 206.768C263 213.359 261.866 219.439 259.598 225.009C257.329 230.532 254.273 235.127 250.431 238.793C246.588 242.46 242.121 245.314 237.028 247.357C231.935 249.352 226.565 250.35 220.917 250.35H191.889V245.338H220.917C225.871 245.338 230.616 244.363 235.153 242.414C239.69 240.418 243.625 237.749 246.959 234.407C250.338 231.019 253.023 226.935 255.014 222.154C257.005 217.327 258 212.198 258 206.768C258 200.27 256.31 194.167 252.931 188.458C249.551 182.703 244.991 178.131 239.25 174.743C233.556 171.308 227.445 169.591 220.917 169.591L158 169.591L158 301ZM168 311L163 306L163 174.603L220.917 174.603C226.519 174.603 231.797 176.089 236.75 179.059C241.704 182.03 245.639 185.998 248.556 190.964C251.519 195.93 253 201.198 253 206.768C253 213.08 251.519 218.836 248.556 224.034C245.593 229.186 241.658 233.2 236.75 236.078C231.889 238.909 226.611 240.325 220.917 240.325H191.889V235.312H220.917C225.732 235.312 230.176 234.152 234.25 231.831C238.371 229.464 241.681 226.076 244.181 221.667C246.727 217.257 248 212.291 248 206.768C248 199.62 245.269 193.308 239.806 187.831C234.389 182.355 228.093 179.616 220.917 179.616L168 179.616L168 311ZM178 320.64C176.942 319.819 175.923 318.923 174.951 317.951L173 316L173 184.629L220.917 184.629C226.75 184.629 231.889 186.88 236.334 191.382C240.778 195.884 243 201.013 243 206.768C243 213.869 240.847 219.578 236.542 223.895C232.236 228.165 227.028 230.3 220.917 230.3H191.889V225.287L220.917 225.287C225.685 225.287 229.713 223.686 233 220.483C236.334 217.234 238 212.663 238 206.768C238 202.359 236.264 198.414 232.792 194.933C229.32 191.405 225.361 189.641 220.917 189.641L178 189.641L178 320.64ZM188 325.863C186.291 325.329 184.618 324.647 183 323.819L183 194.654L220.917 194.654C224.204 194.654 227.028 195.861 229.389 198.274C231.797 200.688 233 203.519 233 206.768C233 215.772 228.972 220.274 220.917 220.274L191.889 220.274V215.262L220.917 215.262C223.139 215.262 224.875 214.635 226.125 213.382C227.375 212.129 228 209.924 228 206.768C228 204.726 227.306 203.032 225.917 201.686C224.574 200.34 222.908 199.667 220.917 199.667L188 199.667L188 325.863Z" fill="#F3E9DD"/>
<path d="M1255.25 266.984V242.024C1250.47 241.341 1246.21 239.763 1242.45 237.288C1238.78 234.728 1235.88 231.443 1233.75 227.432C1231.61 223.336 1230.55 218.685 1230.55 213.48V175.72H1242.45V213.352C1242.45 217.277 1243.3 220.691 1245.01 223.592C1246.72 226.408 1248.98 228.584 1251.79 230.12C1254.7 231.656 1257.77 232.424 1261.01 232.424C1264.34 232.424 1267.41 231.656 1270.23 230.12C1273.13 228.584 1275.43 226.408 1277.14 223.592C1278.93 220.691 1279.83 217.277 1279.83 213.352V175.72H1291.6V213.48C1291.6 218.685 1290.54 223.293 1288.4 227.304C1286.35 231.315 1283.45 234.6 1279.7 237.16C1276.03 239.635 1271.81 241.256 1267.03 242.024V266.984H1255.25Z" fill="white"/>
<path d="M1174.93 242.536C1168.62 242.536 1163.16 241.043 1158.55 238.056C1153.94 234.984 1150.4 230.845 1147.92 225.64C1145.45 220.435 1144.21 214.675 1144.21 208.36C1144.21 201.96 1145.58 196.2 1148.31 191.08C1151.04 185.875 1154.96 181.779 1160.08 178.792C1165.2 175.72 1171.35 174.184 1178.52 174.184C1185.43 174.184 1191.36 175.677 1196.31 178.664C1201.26 181.651 1205.06 185.704 1207.7 190.824C1210.43 195.944 1211.8 201.661 1211.8 207.976V241H1199.89V227.688H1199.64C1198.36 230.163 1196.61 232.552 1194.39 234.856C1192.26 237.075 1189.57 238.909 1186.32 240.36C1183.08 241.811 1179.28 242.536 1174.93 242.536ZM1178 232.424C1182.27 232.424 1186.03 231.4 1189.27 229.352C1192.6 227.219 1195.16 224.317 1196.95 220.648C1198.83 216.893 1199.76 212.712 1199.76 208.104C1199.76 203.581 1198.87 199.528 1197.08 195.944C1195.37 192.36 1192.9 189.544 1189.65 187.496C1186.41 185.363 1182.61 184.296 1178.26 184.296C1173.65 184.296 1169.68 185.363 1166.36 187.496C1163.11 189.629 1160.6 192.531 1158.8 196.2C1157.1 199.784 1156.24 203.88 1156.24 208.488C1156.24 212.925 1157.1 216.979 1158.8 220.648C1160.51 224.232 1162.99 227.091 1166.23 229.224C1169.47 231.357 1173.4 232.424 1178 232.424Z" fill="white"/>
<path d="M1096.13 242.536C1091.18 242.536 1086.65 241.768 1082.56 240.232C1078.46 238.611 1074.92 236.264 1071.93 233.192C1068.95 230.12 1066.6 226.451 1064.89 222.184C1063.27 217.832 1062.46 212.968 1062.46 207.592C1062.46 200.765 1063.83 194.877 1066.56 189.928C1069.37 184.893 1073.17 181.011 1077.95 178.28C1082.81 175.549 1088.23 174.184 1094.21 174.184C1097.53 174.184 1100.69 174.739 1103.68 175.848C1106.75 176.957 1109.48 178.493 1111.87 180.456C1114.26 182.419 1116.14 184.723 1117.5 187.368H1117.76V147.56H1129.53V207.976C1129.53 215.229 1128.04 221.459 1125.05 226.664C1122.15 231.784 1118.19 235.709 1113.15 238.44C1108.2 241.171 1102.53 242.536 1096.13 242.536ZM1096.13 232.424C1100.14 232.424 1103.76 231.443 1107.01 229.48C1110.25 227.517 1112.81 224.744 1114.69 221.16C1116.65 217.576 1117.63 213.352 1117.63 208.488C1117.63 203.539 1116.65 199.272 1114.69 195.688C1112.81 192.019 1110.25 189.203 1107.01 187.24C1103.76 185.277 1100.09 184.296 1096 184.296C1091.99 184.296 1088.32 185.32 1084.99 187.368C1081.75 189.416 1079.15 192.232 1077.18 195.816C1075.31 199.4 1074.37 203.581 1074.37 208.36C1074.37 213.309 1075.35 217.576 1077.31 221.16C1079.27 224.744 1081.88 227.517 1085.12 229.48C1088.45 231.443 1092.12 232.424 1096.13 232.424Z" fill="white"/>
<path d="M1016.64 242.536C1009.99 242.536 1004.1 241.043 998.978 238.056C993.858 234.984 989.804 230.888 986.818 225.768C983.831 220.563 982.338 214.76 982.338 208.36C982.338 201.96 983.831 196.2 986.818 191.08C989.804 185.875 993.858 181.779 998.978 178.792C1004.1 175.72 1009.99 174.184 1016.64 174.184C1023.3 174.184 1029.19 175.72 1034.31 178.792C1039.51 181.779 1043.56 185.832 1046.47 190.952C1049.45 196.072 1050.95 201.875 1050.95 208.36C1050.95 214.76 1049.45 220.563 1046.47 225.768C1043.56 230.888 1039.51 234.984 1034.31 238.056C1029.19 241.043 1023.3 242.536 1016.64 242.536ZM1016.64 232.424C1021.16 232.424 1025.09 231.357 1028.42 229.224C1031.75 227.091 1034.35 224.232 1036.23 220.648C1038.1 216.979 1039.04 212.883 1039.04 208.36C1039.04 203.837 1038.1 199.784 1036.23 196.2C1034.35 192.531 1031.75 189.629 1028.42 187.496C1025.09 185.363 1021.16 184.296 1016.64 184.296C1012.2 184.296 1008.28 185.363 1004.87 187.496C1001.54 189.629 998.935 192.531 997.058 196.2C995.18 199.784 994.242 203.837 994.242 208.36C994.242 212.883 995.18 216.979 997.058 220.648C998.935 224.232 1001.54 227.091 1004.87 229.224C1008.28 231.357 1012.2 232.424 1016.64 232.424Z" fill="white"/>
<path d="M958.069 241C952.266 241 947.701 239.336 944.373 236.008C941.13 232.68 939.509 228.157 939.509 222.44V159.336H951.285V221.672C951.285 224.488 952.053 226.749 953.589 228.456C955.21 230.077 957.429 230.888 960.245 230.888H973.429V241H958.069ZM928.245 185.832V175.72H973.685V185.832H928.245Z" fill="white"/>
<path d="M913.14 242.28C910.836 242.28 908.83 241.469 907.124 239.848C905.502 238.141 904.692 236.136 904.692 233.832C904.692 231.528 905.502 229.565 907.124 227.944C908.83 226.237 910.836 225.384 913.14 225.384C915.444 225.384 917.406 226.237 919.028 227.944C920.734 229.565 921.588 231.528 921.588 233.832C921.588 235.368 921.204 236.776 920.436 238.056C919.753 239.336 918.772 240.36 917.492 241.128C916.212 241.896 914.761 242.28 913.14 242.28Z" fill="white"/>
<path d="M857.502 242.536C852.552 242.536 848.03 241.768 843.934 240.232C839.838 238.611 836.296 236.264 833.31 233.192C830.323 230.12 827.976 226.451 826.27 222.184C824.648 217.832 823.838 212.968 823.838 207.592C823.838 200.765 825.203 194.877 827.934 189.928C830.75 184.893 834.547 181.011 839.326 178.28C844.19 175.549 849.608 174.184 855.582 174.184C858.91 174.184 862.067 174.739 865.054 175.848C868.126 176.957 870.856 178.493 873.246 180.456C875.635 182.419 877.512 184.723 878.878 187.368H879.134V147.56H890.91V207.976C890.91 215.229 889.416 221.459 886.43 226.664C883.528 231.784 879.56 235.709 874.526 238.44C869.576 241.171 863.902 242.536 857.502 242.536ZM857.502 232.424C861.512 232.424 865.139 231.443 868.382 229.48C871.624 227.517 874.184 224.744 876.062 221.16C878.024 217.576 879.006 213.352 879.006 208.488C879.006 203.539 878.024 199.272 876.062 195.688C874.184 192.019 871.624 189.203 868.382 187.24C865.139 185.277 861.47 184.296 857.374 184.296C853.363 184.296 849.694 185.32 846.366 187.368C843.123 189.416 840.52 192.232 838.558 195.816C836.68 199.4 835.742 203.581 835.742 208.36C835.742 213.309 836.723 217.576 838.686 221.16C840.648 224.744 843.251 227.517 846.494 229.48C849.822 231.443 853.491 232.424 857.502 232.424Z" fill="white"/>
<path d="M787.574 241C780.406 241 774.048 239.677 768.502 237.032C762.955 234.301 758.603 230.504 755.446 225.64C752.374 220.691 750.838 214.931 750.838 208.36C750.838 201.875 752.16 196.072 754.806 190.952C757.451 185.747 761.12 181.651 765.814 178.664C770.507 175.677 775.968 174.184 782.198 174.184C788.939 174.184 794.528 175.635 798.966 178.536C803.488 181.437 806.859 185.363 809.078 190.312C811.296 195.176 812.406 200.637 812.406 206.696C812.406 207.635 812.363 208.616 812.278 209.64C812.278 210.664 812.192 211.56 812.022 212.328H763.382C763.808 216.339 765.131 219.752 767.35 222.568C769.568 225.299 772.384 227.389 775.798 228.84C779.296 230.205 783.136 230.888 787.318 230.888H804.342V241H787.574ZM763.254 204.008H800.502C800.502 202.387 800.331 200.68 799.99 198.888C799.648 197.011 799.051 195.219 798.198 193.512C797.344 191.72 796.192 190.141 794.742 188.776C793.376 187.325 791.627 186.173 789.494 185.32C787.446 184.467 785.014 184.04 782.198 184.04C779.211 184.04 776.566 184.637 774.262 185.832C772.043 186.941 770.123 188.477 768.502 190.44C766.88 192.317 765.643 194.451 764.79 196.84C763.936 199.229 763.424 201.619 763.254 204.008Z" fill="white"/>
<path d="M674.797 241V203.24C674.797 197.437 676.077 192.36 678.637 188.008C681.282 183.656 684.909 180.285 689.517 177.896C694.125 175.421 699.373 174.184 705.261 174.184C711.234 174.184 716.482 175.421 721.005 177.896C725.613 180.285 729.197 183.656 731.757 188.008C734.402 192.36 735.725 197.437 735.725 203.24V241H723.949V203.368C723.949 199.443 723.053 196.072 721.261 193.256C719.554 190.355 717.25 188.136 714.349 186.6C711.533 185.064 708.503 184.296 705.261 184.296C702.018 184.296 698.946 185.064 696.045 186.6C693.229 188.136 690.925 190.355 689.133 193.256C687.426 196.072 686.573 199.443 686.573 203.368V241H674.797Z" fill="white"/>
<path d="M595.172 241V203.24C595.172 197.437 596.452 192.36 599.012 188.008C601.657 183.656 605.284 180.285 609.892 177.896C614.5 175.421 619.748 174.184 625.636 174.184C631.609 174.184 636.857 175.421 641.38 177.896C645.988 180.285 649.572 183.656 652.132 188.008C654.777 192.36 656.1 197.437 656.1 203.24V241H644.324V203.368C644.324 199.443 643.428 196.072 641.636 193.256C639.929 190.355 637.625 188.136 634.724 186.6C631.908 185.064 628.878 184.296 625.636 184.296C622.393 184.296 619.321 185.064 616.42 186.6C613.604 188.136 611.3 190.355 609.508 193.256C607.801 196.072 606.948 199.443 606.948 203.368V241H595.172Z" fill="white"/>
<path d="M539.558 242.536C533.243 242.536 527.782 241.043 523.174 238.056C518.566 234.984 515.024 230.845 512.55 225.64C510.075 220.435 508.838 214.675 508.838 208.36C508.838 201.96 510.203 196.2 512.934 191.08C515.664 185.875 519.59 181.779 524.71 178.792C529.83 175.72 535.974 174.184 543.142 174.184C550.054 174.184 555.984 175.677 560.934 178.664C565.883 181.651 569.68 185.704 572.326 190.824C575.056 195.944 576.422 201.661 576.422 207.976V241H564.518V227.688H564.262C562.982 230.163 561.232 232.552 559.014 234.856C556.88 237.075 554.192 238.909 550.95 240.36C547.707 241.811 543.91 242.536 539.558 242.536ZM542.63 232.424C546.896 232.424 550.651 231.4 553.894 229.352C557.222 227.219 559.782 224.317 561.574 220.648C563.451 216.893 564.39 212.712 564.39 208.104C564.39 203.581 563.494 199.528 561.702 195.944C559.995 192.36 557.52 189.544 554.278 187.496C551.035 185.363 547.238 184.296 542.886 184.296C538.278 184.296 534.31 185.363 530.982 187.496C527.739 189.629 525.222 192.531 523.43 196.2C521.723 199.784 520.87 203.88 520.87 208.488C520.87 212.925 521.723 216.979 523.43 220.648C525.136 224.232 527.611 227.091 530.854 229.224C534.096 231.357 538.022 232.424 542.63 232.424Z" fill="white"/>
<path d="M481.922 241V147.56H493.698V241H481.922Z" fill="white"/>
<path d="M399.306 241V151.4H437.066C442.698 151.4 447.818 152.68 452.426 155.24C457.034 157.715 460.703 161.213 463.434 165.736C466.164 170.259 467.53 175.549 467.53 181.608C467.53 187.411 466.164 192.616 463.434 197.224C460.788 201.747 457.162 205.288 452.554 207.848C447.946 210.408 442.698 211.688 436.81 211.688H411.594V241H399.306ZM411.594 200.808H435.402C439.071 200.808 442.399 200.083 445.386 198.632C448.458 197.096 450.847 194.877 452.554 191.976C454.346 189.075 455.242 185.619 455.242 181.608C455.242 177.512 454.346 174.056 452.554 171.24C450.762 168.339 448.372 166.12 445.386 164.584C442.399 163.048 439.114 162.28 435.53 162.28H411.594V200.808Z" fill="white"/>
<path d="M1165.92 269.92C1167.46 269.92 1168.79 270.22 1169.92 270.82C1171.07 271.396 1171.96 272.284 1172.58 273.484C1173.23 274.684 1173.55 276.196 1173.55 278.02V289H1171V278.272C1171 276.28 1170.52 274.78 1169.56 273.772C1168.62 272.74 1167.29 272.224 1165.56 272.224C1164.27 272.224 1163.14 272.5 1162.18 273.052C1161.24 273.58 1160.51 274.36 1159.98 275.392C1159.48 276.4 1159.23 277.624 1159.23 279.064V289H1156.67V278.272C1156.67 276.28 1156.19 274.78 1155.23 273.772C1154.27 272.74 1152.93 272.224 1151.2 272.224C1149.93 272.224 1148.81 272.5 1147.85 273.052C1146.89 273.58 1146.15 274.36 1145.62 275.392C1145.11 276.4 1144.86 277.624 1144.86 279.064V289H1142.31V270.1H1144.75V275.212L1144.36 274.312C1144.93 272.944 1145.86 271.876 1147.13 271.108C1148.43 270.316 1149.95 269.92 1151.7 269.92C1153.55 269.92 1155.12 270.388 1156.42 271.324C1157.71 272.236 1158.55 273.616 1158.94 275.464L1157.93 275.068C1158.48 273.532 1159.45 272.296 1160.85 271.36C1162.26 270.4 1163.95 269.92 1165.92 269.92Z" fill="white"/>
<path d="M1128.61 289.18C1126.64 289.18 1124.91 288.772 1123.42 287.956C1121.94 287.116 1120.77 285.976 1119.93 284.536C1119.09 283.072 1118.67 281.404 1118.67 279.532C1118.67 277.66 1119.07 276.004 1119.86 274.564C1120.68 273.124 1121.78 271.996 1123.17 271.18C1124.59 270.34 1126.17 269.92 1127.92 269.92C1129.7 269.92 1131.27 270.328 1132.64 271.144C1134.03 271.936 1135.12 273.064 1135.92 274.528C1136.71 275.968 1137.1 277.636 1137.1 279.532C1137.1 279.652 1137.09 279.784 1137.07 279.928C1137.07 280.048 1137.07 280.18 1137.07 280.324H1120.62V278.416H1135.7L1134.69 279.172C1134.69 277.804 1134.39 276.592 1133.79 275.536C1133.22 274.456 1132.42 273.616 1131.42 273.016C1130.41 272.416 1129.24 272.116 1127.92 272.116C1126.63 272.116 1125.46 272.416 1124.43 273.016C1123.4 273.616 1122.6 274.456 1122.02 275.536C1121.44 276.616 1121.16 277.852 1121.16 279.244V279.64C1121.16 281.08 1121.47 282.352 1122.09 283.456C1122.74 284.536 1123.63 285.388 1124.76 286.012C1125.91 286.612 1127.22 286.912 1128.68 286.912C1129.83 286.912 1130.9 286.708 1131.88 286.3C1132.89 285.892 1133.76 285.268 1134.48 284.428L1135.92 286.084C1135.08 287.092 1134.02 287.86 1132.75 288.388C1131.5 288.916 1130.12 289.18 1128.61 289.18Z" fill="white"/>
<path d="M1112.6 289.18C1110.82 289.18 1109.45 288.7 1108.49 287.74C1107.53 286.78 1107.05 285.424 1107.05 283.672V265.924H1109.61V283.528C1109.61 284.632 1109.89 285.484 1110.44 286.084C1111.01 286.684 1111.83 286.984 1112.89 286.984C1114.01 286.984 1114.95 286.66 1115.69 286.012L1116.59 287.848C1116.09 288.304 1115.48 288.64 1114.76 288.856C1114.06 289.072 1113.34 289.18 1112.6 289.18ZM1103.67 272.224V270.1H1115.37V272.224H1103.67Z" fill="white"/>
<path d="M1094.12 289.18C1092.56 289.18 1091.08 288.964 1089.69 288.532C1088.3 288.076 1087.21 287.512 1086.42 286.84L1087.57 284.824C1088.34 285.4 1089.32 285.904 1090.52 286.336C1091.72 286.744 1092.98 286.948 1094.3 286.948C1096.1 286.948 1097.4 286.672 1098.19 286.12C1098.98 285.544 1099.38 284.788 1099.38 283.852C1099.38 283.156 1099.15 282.616 1098.69 282.232C1098.26 281.824 1097.68 281.524 1096.96 281.332C1096.24 281.116 1095.44 280.936 1094.55 280.792C1093.66 280.648 1092.78 280.48 1091.89 280.288C1091.02 280.096 1090.23 279.82 1089.51 279.46C1088.79 279.076 1088.2 278.56 1087.75 277.912C1087.32 277.264 1087.1 276.4 1087.1 275.32C1087.1 274.288 1087.39 273.364 1087.96 272.548C1088.54 271.732 1089.38 271.096 1090.48 270.64C1091.61 270.16 1092.98 269.92 1094.59 269.92C1095.81 269.92 1097.04 270.088 1098.26 270.424C1099.48 270.736 1100.49 271.156 1101.28 271.684L1100.17 273.736C1099.33 273.16 1098.43 272.752 1097.47 272.512C1096.51 272.248 1095.55 272.116 1094.59 272.116C1092.88 272.116 1091.62 272.416 1090.81 273.016C1090.02 273.592 1089.62 274.336 1089.62 275.248C1089.62 275.968 1089.84 276.532 1090.27 276.94C1090.72 277.348 1091.31 277.672 1092.03 277.912C1092.78 278.128 1093.58 278.308 1094.44 278.452C1095.33 278.596 1096.21 278.776 1097.07 278.992C1097.96 279.184 1098.76 279.46 1099.48 279.82C1100.23 280.156 1100.82 280.648 1101.25 281.296C1101.7 281.92 1101.93 282.748 1101.93 283.78C1101.93 284.884 1101.62 285.844 1101 286.66C1100.4 287.452 1099.51 288.076 1098.33 288.532C1097.18 288.964 1095.78 289.18 1094.12 289.18Z" fill="white"/>
<path d="M1069.89 296.164C1069 296.164 1068.15 296.02 1067.33 295.732C1066.54 295.444 1065.86 295.012 1065.28 294.436L1066.47 292.528C1066.95 292.984 1067.46 293.332 1068.02 293.572C1068.59 293.836 1069.23 293.968 1069.92 293.968C1070.76 293.968 1071.48 293.728 1072.08 293.248C1072.71 292.792 1073.3 291.976 1073.85 290.8L1075.07 288.028L1075.36 287.632L1083.14 270.1H1085.66L1076.19 291.268C1075.66 292.492 1075.07 293.464 1074.42 294.184C1073.8 294.904 1073.12 295.408 1072.37 295.696C1071.63 296.008 1070.8 296.164 1069.89 296.164ZM1074.93 289.54L1066.22 270.1H1068.88L1076.58 287.452L1074.93 289.54Z" fill="white"/>
<path d="M1057.59 289.18C1056.03 289.18 1054.56 288.964 1053.16 288.532C1051.77 288.076 1050.68 287.512 1049.89 286.84L1051.04 284.824C1051.81 285.4 1052.79 285.904 1053.99 286.336C1055.19 286.744 1056.45 286.948 1057.77 286.948C1059.57 286.948 1060.87 286.672 1061.66 286.12C1062.45 285.544 1062.85 284.788 1062.85 283.852C1062.85 283.156 1062.62 282.616 1062.16 282.232C1061.73 281.824 1061.16 281.524 1060.44 281.332C1059.72 281.116 1058.91 280.936 1058.02 280.792C1057.14 280.648 1056.25 280.48 1055.36 280.288C1054.5 280.096 1053.7 279.82 1052.98 279.46C1052.26 279.076 1051.68 278.56 1051.22 277.912C1050.79 277.264 1050.57 276.4 1050.57 275.32C1050.57 274.288 1050.86 273.364 1051.44 272.548C1052.01 271.732 1052.85 271.096 1053.96 270.64C1055.08 270.16 1056.45 269.92 1058.06 269.92C1059.28 269.92 1060.51 270.088 1061.73 270.424C1062.96 270.736 1063.96 271.156 1064.76 271.684L1063.64 273.736C1062.8 273.16 1061.9 272.752 1060.94 272.512C1059.98 272.248 1059.02 272.116 1058.06 272.116C1056.36 272.116 1055.1 272.416 1054.28 273.016C1053.49 273.592 1053.09 274.336 1053.09 275.248C1053.09 275.968 1053.31 276.532 1053.74 276.94C1054.2 277.348 1054.78 277.672 1055.5 277.912C1056.25 278.128 1057.05 278.308 1057.92 278.452C1058.8 278.596 1059.68 278.776 1060.54 278.992C1061.43 279.184 1062.24 279.46 1062.96 279.82C1063.7 280.156 1064.29 280.648 1064.72 281.296C1065.18 281.92 1065.4 282.748 1065.4 283.78C1065.4 284.884 1065.09 285.844 1064.47 286.66C1063.87 287.452 1062.98 288.076 1061.8 288.532C1060.65 288.964 1059.25 289.18 1057.59 289.18Z" fill="white"/>
<path d="M1028.41 269.92C1029.95 269.92 1031.29 270.22 1032.45 270.82C1033.62 271.396 1034.53 272.284 1035.18 273.484C1035.85 274.684 1036.19 276.196 1036.19 278.02V289H1033.63V278.272C1033.63 276.28 1033.13 274.78 1032.12 273.772C1031.14 272.74 1029.75 272.224 1027.95 272.224C1026.6 272.224 1025.43 272.5 1024.42 273.052C1023.43 273.58 1022.67 274.36 1022.11 275.392C1021.59 276.4 1021.32 277.624 1021.32 279.064V289H1018.77V270.1H1021.21V275.284L1020.82 274.312C1021.42 272.944 1022.38 271.876 1023.7 271.108C1025.02 270.316 1026.59 269.92 1028.41 269.92Z" fill="white"/>
<path d="M1003.9 289.18C1002.08 289.18 1000.43 288.772 998.968 287.956C997.528 287.116 996.388 285.976 995.548 284.536C994.708 283.072 994.288 281.404 994.288 279.532C994.288 277.636 994.708 275.968 995.548 274.528C996.388 273.088 997.528 271.96 998.968 271.144C1000.41 270.328 1002.05 269.92 1003.9 269.92C1005.77 269.92 1007.43 270.328 1008.87 271.144C1010.33 271.96 1011.47 273.088 1012.29 274.528C1013.13 275.968 1013.55 277.636 1013.55 279.532C1013.55 281.404 1013.13 283.072 1012.29 284.536C1011.47 285.976 1010.33 287.116 1008.87 287.956C1007.4 288.772 1005.75 289.18 1003.9 289.18ZM1003.9 286.912C1005.27 286.912 1006.48 286.612 1007.54 286.012C1008.59 285.388 1009.42 284.524 1010.02 283.42C1010.64 282.292 1010.96 280.996 1010.96 279.532C1010.96 278.044 1010.64 276.748 1010.02 275.644C1009.42 274.54 1008.59 273.688 1007.54 273.088C1006.48 272.464 1005.28 272.152 1003.94 272.152C1002.59 272.152 1001.39 272.464 1000.34 273.088C999.28 273.688 998.44 274.54 997.816 275.644C997.192 276.748 996.88 278.044 996.88 279.532C996.88 280.996 997.192 282.292 997.816 283.42C998.44 284.524 999.28 285.388 1000.34 286.012C1001.39 286.612 1002.58 286.912 1003.9 286.912Z" fill="white"/>
<path d="M986.528 289V270.1H989.084V289H986.528ZM987.824 265.924C987.296 265.924 986.852 265.744 986.492 265.384C986.132 265.024 985.952 264.592 985.952 264.088C985.952 263.584 986.132 263.164 986.492 262.828C986.852 262.468 987.296 262.288 987.824 262.288C988.352 262.288 988.796 262.456 989.156 262.792C989.516 263.128 989.696 263.548 989.696 264.052C989.696 264.58 989.516 265.024 989.156 265.384C988.82 265.744 988.376 265.924 987.824 265.924Z" fill="white"/>
<path d="M977.879 289.18C976.103 289.18 974.735 288.7 973.775 287.74C972.815 286.78 972.335 285.424 972.335 283.672V265.924H974.891V283.528C974.891 284.632 975.167 285.484 975.719 286.084C976.295 286.684 977.111 286.984 978.167 286.984C979.295 286.984 980.231 286.66 980.975 286.012L981.875 287.848C981.371 288.304 980.759 288.64 980.039 288.856C979.343 289.072 978.623 289.18 977.879 289.18ZM968.951 272.224V270.1H980.651V272.224H968.951Z" fill="white"/>
<path d="M962.513 289V284.824L962.405 284.14V277.156C962.405 275.548 961.949 274.312 961.037 273.448C960.149 272.584 958.817 272.152 957.041 272.152C955.817 272.152 954.653 272.356 953.549 272.764C952.445 273.172 951.509 273.712 950.741 274.384L949.589 272.476C950.549 271.66 951.701 271.036 953.045 270.604C954.389 270.148 955.805 269.92 957.293 269.92C959.741 269.92 961.625 270.532 962.945 271.756C964.289 272.956 964.961 274.792 964.961 277.264V289H962.513ZM955.997 289.18C954.581 289.18 953.345 288.952 952.289 288.496C951.257 288.016 950.465 287.368 949.913 286.552C949.361 285.712 949.085 284.752 949.085 283.672C949.085 282.688 949.313 281.8 949.769 281.008C950.249 280.192 951.017 279.544 952.073 279.064C953.153 278.56 954.593 278.308 956.393 278.308H962.909V280.216H956.465C954.641 280.216 953.369 280.54 952.649 281.188C951.953 281.836 951.605 282.64 951.605 283.6C951.605 284.68 952.025 285.544 952.865 286.192C953.705 286.84 954.881 287.164 956.393 287.164C957.833 287.164 959.069 286.84 960.101 286.192C961.157 285.52 961.925 284.56 962.405 283.312L962.981 285.076C962.501 286.324 961.661 287.32 960.461 288.064C959.285 288.808 957.797 289.18 955.997 289.18Z" fill="white"/>
<path d="M936.58 289L928.192 270.1H930.856L938.56 287.632H937.3L945.112 270.1H947.632L939.208 289H936.58Z" fill="white"/>
<path d="M916.743 289V270.1H919.191V275.248L918.939 274.348C919.467 272.908 920.355 271.816 921.603 271.072C922.851 270.304 924.399 269.92 926.247 269.92V272.404C926.151 272.404 926.055 272.404 925.959 272.404C925.863 272.38 925.767 272.368 925.671 272.368C923.679 272.368 922.119 272.98 920.991 274.204C919.863 275.404 919.299 277.12 919.299 279.352V289H916.743Z" fill="white"/>
<path d="M903.045 289.18C901.077 289.18 899.349 288.772 897.861 287.956C896.373 287.116 895.209 285.976 894.369 284.536C893.529 283.072 893.109 281.404 893.109 279.532C893.109 277.66 893.505 276.004 894.297 274.564C895.113 273.124 896.217 271.996 897.609 271.18C899.025 270.34 900.609 269.92 902.361 269.92C904.137 269.92 905.709 270.328 907.077 271.144C908.469 271.936 909.561 273.064 910.353 274.528C911.145 275.968 911.541 277.636 911.541 279.532C911.541 279.652 911.529 279.784 911.505 279.928C911.505 280.048 911.505 280.18 911.505 280.324H895.053V278.416H910.137L909.129 279.172C909.129 277.804 908.829 276.592 908.229 275.536C907.653 274.456 906.861 273.616 905.853 273.016C904.845 272.416 903.681 272.116 902.361 272.116C901.065 272.116 899.901 272.416 898.869 273.016C897.837 273.616 897.033 274.456 896.457 275.536C895.881 276.616 895.593 277.852 895.593 279.244V279.64C895.593 281.08 895.905 282.352 896.529 283.456C897.177 284.536 898.065 285.388 899.193 286.012C900.345 286.612 901.653 286.912 903.117 286.912C904.269 286.912 905.337 286.708 906.321 286.3C907.329 285.892 908.193 285.268 908.913 284.428L910.353 286.084C909.513 287.092 908.457 287.86 907.185 288.388C905.937 288.916 904.557 289.18 903.045 289.18Z" fill="white"/>
<path d="M882.515 289.18C880.955 289.18 879.479 288.964 878.087 288.532C876.695 288.076 875.603 287.512 874.811 286.84L875.963 284.824C876.731 285.4 877.715 285.904 878.915 286.336C880.115 286.744 881.375 286.948 882.695 286.948C884.495 286.948 885.791 286.672 886.583 286.12C887.375 285.544 887.771 284.788 887.771 283.852C887.771 283.156 887.543 282.616 887.087 282.232C886.655 281.824 886.079 281.524 885.359 281.332C884.639 281.116 883.835 280.936 882.947 280.792C882.059 280.648 881.171 280.48 880.283 280.288C879.419 280.096 878.627 279.82 877.907 279.46C877.187 279.076 876.599 278.56 876.143 277.912C875.711 277.264 875.495 276.4 875.495 275.32C875.495 274.288 875.783 273.364 876.359 272.548C876.935 271.732 877.775 271.096 878.879 270.64C880.007 270.16 881.375 269.92 882.983 269.92C884.207 269.92 885.431 270.088 886.655 270.424C887.879 270.736 888.887 271.156 889.679 271.684L888.563 273.736C887.723 273.16 886.823 272.752 885.863 272.512C884.903 272.248 883.943 272.116 882.983 272.116C881.279 272.116 880.019 272.416 879.203 273.016C878.411 273.592 878.015 274.336 878.015 275.248C878.015 275.968 878.231 276.532 878.663 276.94C879.119 277.348 879.707 277.672 880.427 277.912C881.171 278.128 881.975 278.308 882.839 278.452C883.727 278.596 884.603 278.776 885.467 278.992C886.355 279.184 887.159 279.46 887.879 279.82C888.623 280.156 889.211 280.648 889.643 281.296C890.099 281.92 890.327 282.748 890.327 283.78C890.327 284.884 890.015 285.844 889.391 286.66C888.791 287.452 887.903 288.076 886.727 288.532C885.575 288.964 884.171 289.18 882.515 289.18Z" fill="white"/>
<path d="M863.74 289.18C861.772 289.18 860.044 288.772 858.556 287.956C857.068 287.116 855.904 285.976 855.064 284.536C854.224 283.072 853.804 281.404 853.804 279.532C853.804 277.66 854.2 276.004 854.992 274.564C855.808 273.124 856.912 271.996 858.304 271.18C859.72 270.34 861.304 269.92 863.056 269.92C864.832 269.92 866.404 270.328 867.772 271.144C869.164 271.936 870.256 273.064 871.048 274.528C871.84 275.968 872.236 277.636 872.236 279.532C872.236 279.652 872.224 279.784 872.2 279.928C872.2 280.048 872.2 280.18 872.2 280.324H855.748V278.416H870.832L869.824 279.172C869.824 277.804 869.524 276.592 868.924 275.536C868.348 274.456 867.556 273.616 866.548 273.016C865.54 272.416 864.376 272.116 863.056 272.116C861.76 272.116 860.596 272.416 859.564 273.016C858.532 273.616 857.728 274.456 857.152 275.536C856.576 276.616 856.288 277.852 856.288 279.244V279.64C856.288 281.08 856.6 282.352 857.224 283.456C857.872 284.536 858.76 285.388 859.888 286.012C861.04 286.612 862.348 286.912 863.812 286.912C864.964 286.912 866.032 286.708 867.016 286.3C868.024 285.892 868.888 285.268 869.608 284.428L871.048 286.084C870.208 287.092 869.152 287.86 867.88 288.388C866.632 288.916 865.252 289.18 863.74 289.18Z" fill="white"/>
<path d="M841.72 289V270.1H844.168V275.248L843.916 274.348C844.444 272.908 845.332 271.816 846.58 271.072C847.828 270.304 849.376 269.92 851.224 269.92V272.404C851.128 272.404 851.032 272.404 850.936 272.404C850.84 272.38 850.744 272.368 850.648 272.368C848.656 272.368 847.096 272.98 845.968 274.204C844.84 275.404 844.276 277.12 844.276 279.352V289H841.72Z" fill="white"/>
<path d="M817.734 269.92C819.27 269.92 820.602 270.22 821.73 270.82C822.882 271.396 823.77 272.284 824.394 273.484C825.042 274.684 825.366 276.196 825.366 278.02V289H822.81V278.272C822.81 276.28 822.33 274.78 821.37 273.772C820.434 272.74 819.102 272.224 817.374 272.224C816.078 272.224 814.95 272.5 813.99 273.052C813.054 273.58 812.322 274.36 811.794 275.392C811.29 276.4 811.038 277.624 811.038 279.064V289H808.482V278.272C808.482 276.28 808.002 274.78 807.042 273.772C806.082 272.74 804.738 272.224 803.01 272.224C801.738 272.224 800.622 272.5 799.662 273.052C798.702 273.58 797.958 274.36 797.43 275.392C796.926 276.4 796.674 277.624 796.674 279.064V289H794.118V270.1H796.566V275.212L796.17 274.312C796.746 272.944 797.67 271.876 798.942 271.108C800.238 270.316 801.762 269.92 803.514 269.92C805.362 269.92 806.934 270.388 808.23 271.324C809.526 272.236 810.366 273.616 810.75 275.464L809.742 275.068C810.294 273.532 811.266 272.296 812.658 271.36C814.074 270.4 815.766 269.92 817.734 269.92Z" fill="white"/>
<path d="M779.252 289.18C777.428 289.18 775.784 288.772 774.32 287.956C772.88 287.116 771.74 285.976 770.9 284.536C770.06 283.072 769.64 281.404 769.64 279.532C769.64 277.636 770.06 275.968 770.9 274.528C771.74 273.088 772.88 271.96 774.32 271.144C775.76 270.328 777.404 269.92 779.252 269.92C781.124 269.92 782.78 270.328 784.22 271.144C785.684 271.96 786.824 273.088 787.64 274.528C788.48 275.968 788.9 277.636 788.9 279.532C788.9 281.404 788.48 283.072 787.64 284.536C786.824 285.976 785.684 287.116 784.22 287.956C782.756 288.772 781.1 289.18 779.252 289.18ZM779.252 286.912C780.62 286.912 781.832 286.612 782.888 286.012C783.944 285.388 784.772 284.524 785.372 283.42C785.996 282.292 786.308 280.996 786.308 279.532C786.308 278.044 785.996 276.748 785.372 275.644C784.772 274.54 783.944 273.688 782.888 273.088C781.832 272.464 780.632 272.152 779.288 272.152C777.944 272.152 776.744 272.464 775.688 273.088C774.632 273.688 773.792 274.54 773.168 275.644C772.544 276.748 772.232 278.044 772.232 279.532C772.232 280.996 772.544 282.292 773.168 283.42C773.792 284.524 774.632 285.388 775.688 286.012C776.744 286.612 777.932 286.912 779.252 286.912Z" fill="white"/>
<path d="M756.682 289.18C754.858 289.18 753.214 288.772 751.75 287.956C750.31 287.116 749.17 285.976 748.33 284.536C747.49 283.072 747.07 281.404 747.07 279.532C747.07 277.636 747.49 275.968 748.33 274.528C749.17 273.088 750.31 271.96 751.75 271.144C753.19 270.328 754.834 269.92 756.682 269.92C758.554 269.92 760.21 270.328 761.65 271.144C763.114 271.96 764.254 273.088 765.07 274.528C765.91 275.968 766.33 277.636 766.33 279.532C766.33 281.404 765.91 283.072 765.07 284.536C764.254 285.976 763.114 287.116 761.65 287.956C760.186 288.772 758.53 289.18 756.682 289.18ZM756.682 286.912C758.05 286.912 759.262 286.612 760.318 286.012C761.374 285.388 762.202 284.524 762.802 283.42C763.426 282.292 763.738 280.996 763.738 279.532C763.738 278.044 763.426 276.748 762.802 275.644C762.202 274.54 761.374 273.688 760.318 273.088C759.262 272.464 758.062 272.152 756.718 272.152C755.374 272.152 754.174 272.464 753.118 273.088C752.062 273.688 751.222 274.54 750.598 275.644C749.974 276.748 749.662 278.044 749.662 279.532C749.662 280.996 749.974 282.292 750.598 283.42C751.222 284.524 752.062 285.388 753.118 286.012C754.174 286.612 755.362 286.912 756.682 286.912Z" fill="white"/>
<path d="M734.985 289V270.1H737.433V275.248L737.181 274.348C737.709 272.908 738.597 271.816 739.845 271.072C741.093 270.304 742.641 269.92 744.489 269.92V272.404C744.393 272.404 744.297 272.404 744.201 272.404C744.105 272.38 744.009 272.368 743.913 272.368C741.921 272.368 740.361 272.98 739.233 274.204C738.105 275.404 737.541 277.12 737.541 279.352V289H734.985Z" fill="white"/>
<path d="M706.196 296.164C705.308 296.164 704.456 296.02 703.64 295.732C702.848 295.444 702.164 295.012 701.588 294.436L702.776 292.528C703.256 292.984 703.772 293.332 704.324 293.572C704.9 293.836 705.536 293.968 706.232 293.968C707.072 293.968 707.792 293.728 708.392 293.248C709.016 292.792 709.604 291.976 710.156 290.8L711.38 288.028L711.668 287.632L719.444 270.1H721.964L712.496 291.268C711.968 292.492 711.38 293.464 710.732 294.184C710.108 294.904 709.424 295.408 708.68 295.696C707.936 296.008 707.108 296.164 706.196 296.164ZM711.236 289.54L702.524 270.1H705.188L712.892 287.452L711.236 289.54Z" fill="white"/>
<path d="M693.901 289.18C692.341 289.18 690.865 288.964 689.473 288.532C688.081 288.076 686.989 287.512 686.197 286.84L687.349 284.824C688.117 285.4 689.101 285.904 690.301 286.336C691.501 286.744 692.761 286.948 694.081 286.948C695.881 286.948 697.177 286.672 697.969 286.12C698.761 285.544 699.157 284.788 699.157 283.852C699.157 283.156 698.929 282.616 698.473 282.232C698.041 281.824 697.465 281.524 696.745 281.332C696.025 281.116 695.221 280.936 694.333 280.792C693.445 280.648 692.557 280.48 691.669 280.288C690.805 280.096 690.013 279.82 689.293 279.46C688.573 279.076 687.985 278.56 687.529 277.912C687.097 277.264 686.881 276.4 686.881 275.32C686.881 274.288 687.169 273.364 687.745 272.548C688.321 271.732 689.161 271.096 690.265 270.64C691.393 270.16 692.761 269.92 694.369 269.92C695.593 269.92 696.817 270.088 698.041 270.424C699.265 270.736 700.273 271.156 701.065 271.684L699.949 273.736C699.109 273.16 698.209 272.752 697.249 272.512C696.289 272.248 695.329 272.116 694.369 272.116C692.665 272.116 691.405 272.416 690.589 273.016C689.797 273.592 689.401 274.336 689.401 275.248C689.401 275.968 689.617 276.532 690.049 276.94C690.505 277.348 691.093 277.672 691.813 277.912C692.557 278.128 693.361 278.308 694.225 278.452C695.113 278.596 695.989 278.776 696.853 278.992C697.741 279.184 698.545 279.46 699.265 279.82C700.009 280.156 700.597 280.648 701.029 281.296C701.485 281.92 701.713 282.748 701.713 283.78C701.713 284.884 701.401 285.844 700.777 286.66C700.177 287.452 699.289 288.076 698.113 288.532C696.961 288.964 695.557 289.18 693.901 289.18Z" fill="white"/>
<path d="M679.435 289V284.824L679.327 284.14V277.156C679.327 275.548 678.871 274.312 677.959 273.448C677.071 272.584 675.739 272.152 673.963 272.152C672.739 272.152 671.575 272.356 670.471 272.764C669.367 273.172 668.431 273.712 667.663 274.384L666.511 272.476C667.471 271.66 668.623 271.036 669.967 270.604C671.311 270.148 672.727 269.92 674.215 269.92C676.663 269.92 678.547 270.532 679.867 271.756C681.211 272.956 681.883 274.792 681.883 277.264V289H679.435ZM672.919 289.18C671.503 289.18 670.267 288.952 669.211 288.496C668.179 288.016 667.387 287.368 666.835 286.552C666.283 285.712 666.007 284.752 666.007 283.672C666.007 282.688 666.235 281.8 666.691 281.008C667.171 280.192 667.939 279.544 668.995 279.064C670.075 278.56 671.515 278.308 673.315 278.308H679.831V280.216H673.387C671.563 280.216 670.291 280.54 669.571 281.188C668.875 281.836 668.527 282.64 668.527 283.6C668.527 284.68 668.947 285.544 669.787 286.192C670.627 286.84 671.803 287.164 673.315 287.164C674.755 287.164 675.991 286.84 677.023 286.192C678.079 285.52 678.847 284.56 679.327 283.312L679.903 285.076C679.423 286.324 678.583 287.32 677.383 288.064C676.207 288.808 674.719 289.18 672.919 289.18Z" fill="white"/>
<path d="M654.42 289.18C652.452 289.18 650.724 288.772 649.236 287.956C647.748 287.116 646.584 285.976 645.744 284.536C644.904 283.072 644.484 281.404 644.484 279.532C644.484 277.66 644.88 276.004 645.672 274.564C646.488 273.124 647.592 271.996 648.984 271.18C650.4 270.34 651.984 269.92 653.736 269.92C655.512 269.92 657.084 270.328 658.452 271.144C659.844 271.936 660.936 273.064 661.728 274.528C662.52 275.968 662.916 277.636 662.916 279.532C662.916 279.652 662.904 279.784 662.88 279.928C662.88 280.048 662.88 280.18 662.88 280.324H646.428V278.416H661.512L660.504 279.172C660.504 277.804 660.204 276.592 659.604 275.536C659.028 274.456 658.236 273.616 657.228 273.016C656.22 272.416 655.056 272.116 653.736 272.116C652.44 272.116 651.276 272.416 650.244 273.016C649.212 273.616 648.408 274.456 647.832 275.536C647.256 276.616 646.968 277.852 646.968 279.244V279.64C646.968 281.08 647.28 282.352 647.904 283.456C648.552 284.536 649.44 285.388 650.568 286.012C651.72 286.612 653.028 286.912 654.492 286.912C655.644 286.912 656.712 286.708 657.696 286.3C658.704 285.892 659.568 285.268 660.288 284.428L661.728 286.084C660.888 287.092 659.832 287.86 658.56 288.388C657.312 288.916 655.932 289.18 654.42 289.18Z" fill="white"/>
<path d="M620.095 289.18C618.295 289.18 616.675 288.772 615.235 287.956C613.819 287.14 612.703 286.012 611.887 284.572C611.071 283.108 610.663 281.428 610.663 279.532C610.663 277.612 611.071 275.932 611.887 274.492C612.703 273.052 613.819 271.936 615.235 271.144C616.675 270.328 618.295 269.92 620.095 269.92C621.751 269.92 623.227 270.292 624.523 271.036C625.843 271.78 626.887 272.872 627.655 274.312C628.447 275.728 628.843 277.468 628.843 279.532C628.843 281.572 628.459 283.312 627.691 284.752C626.923 286.192 625.879 287.296 624.559 288.064C623.263 288.808 621.775 289.18 620.095 289.18ZM620.275 286.912C621.619 286.912 622.819 286.612 623.875 286.012C624.955 285.388 625.795 284.524 626.395 283.42C627.019 282.292 627.331 280.996 627.331 279.532C627.331 278.044 627.019 276.748 626.395 275.644C625.795 274.54 624.955 273.688 623.875 273.088C622.819 272.464 621.619 272.152 620.275 272.152C618.955 272.152 617.767 272.464 616.711 273.088C615.655 273.688 614.815 274.54 614.191 275.644C613.567 276.748 613.255 278.044 613.255 279.532C613.255 280.996 613.567 282.292 614.191 283.42C614.815 284.524 615.655 285.388 616.711 286.012C617.767 286.612 618.955 286.912 620.275 286.912ZM627.403 289V283.312L627.655 279.496L627.295 275.68V262.288H629.851V289H627.403Z" fill="white"/>
<path d="M597.891 269.92C599.427 269.92 600.771 270.22 601.923 270.82C603.099 271.396 604.011 272.284 604.659 273.484C605.331 274.684 605.667 276.196 605.667 278.02V289H603.111V278.272C603.111 276.28 602.607 274.78 601.599 273.772C600.615 272.74 599.223 272.224 597.423 272.224C596.079 272.224 594.903 272.5 593.895 273.052C592.911 273.58 592.143 274.36 591.591 275.392C591.063 276.4 590.799 277.624 590.799 279.064V289H588.243V270.1H590.691V275.284L590.295 274.312C590.895 272.944 591.855 271.876 593.175 271.108C594.495 270.316 596.067 269.92 597.891 269.92Z" fill="white"/>
<path d="M578.853 289V284.824L578.745 284.14V277.156C578.745 275.548 578.289 274.312 577.377 273.448C576.489 272.584 575.157 272.152 573.381 272.152C572.157 272.152 570.993 272.356 569.889 272.764C568.785 273.172 567.849 273.712 567.081 274.384L565.929 272.476C566.889 271.66 568.041 271.036 569.385 270.604C570.729 270.148 572.145 269.92 573.633 269.92C576.081 269.92 577.965 270.532 579.285 271.756C580.629 272.956 581.301 274.792 581.301 277.264V289H578.853ZM572.337 289.18C570.921 289.18 569.685 288.952 568.629 288.496C567.597 288.016 566.805 287.368 566.253 286.552C565.701 285.712 565.425 284.752 565.425 283.672C565.425 282.688 565.653 281.8 566.109 281.008C566.589 280.192 567.357 279.544 568.413 279.064C569.493 278.56 570.933 278.308 572.733 278.308H579.249V280.216H572.805C570.981 280.216 569.709 280.54 568.989 281.188C568.293 281.836 567.945 282.64 567.945 283.6C567.945 284.68 568.365 285.544 569.205 286.192C570.045 286.84 571.221 287.164 572.733 287.164C574.173 287.164 575.409 286.84 576.441 286.192C577.497 285.52 578.265 284.56 578.745 283.312L579.321 285.076C578.841 286.324 578.001 287.32 576.801 288.064C575.625 288.808 574.137 289.18 572.337 289.18Z" fill="white"/>
<path d="M543.888 289.18C541.92 289.18 540.192 288.772 538.704 287.956C537.216 287.116 536.052 285.976 535.212 284.536C534.372 283.072 533.952 281.404 533.952 279.532C533.952 277.66 534.348 276.004 535.14 274.564C535.956 273.124 537.06 271.996 538.452 271.18C539.868 270.34 541.452 269.92 543.204 269.92C544.98 269.92 546.552 270.328 547.92 271.144C549.312 271.936 550.404 273.064 551.196 274.528C551.988 275.968 552.384 277.636 552.384 279.532C552.384 279.652 552.372 279.784 552.348 279.928C552.348 280.048 552.348 280.18 552.348 280.324H535.896V278.416H550.98L549.972 279.172C549.972 277.804 549.672 276.592 549.072 275.536C548.496 274.456 547.704 273.616 546.696 273.016C545.688 272.416 544.524 272.116 543.204 272.116C541.908 272.116 540.744 272.416 539.712 273.016C538.68 273.616 537.876 274.456 537.3 275.536C536.724 276.616 536.436 277.852 536.436 279.244V279.64C536.436 281.08 536.748 282.352 537.372 283.456C538.02 284.536 538.908 285.388 540.036 286.012C541.188 286.612 542.496 286.912 543.96 286.912C545.112 286.912 546.18 286.708 547.164 286.3C548.172 285.892 549.036 285.268 549.756 284.428L551.196 286.084C550.356 287.092 549.3 287.86 548.028 288.388C546.78 288.916 545.4 289.18 543.888 289.18Z" fill="white"/>
<path d="M526.192 289V262.288H528.748V289H526.192Z" fill="white"/>
<path d="M511.55 289.18C509.918 289.18 508.442 288.808 507.122 288.064C505.802 287.296 504.746 286.204 503.954 284.788C503.186 283.348 502.802 281.596 502.802 279.532C502.802 277.468 503.186 275.728 503.954 274.312C504.722 272.872 505.766 271.78 507.086 271.036C508.406 270.292 509.894 269.92 511.55 269.92C513.35 269.92 514.958 270.328 516.374 271.144C517.814 271.936 518.942 273.064 519.758 274.528C520.574 275.968 520.982 277.636 520.982 279.532C520.982 281.452 520.574 283.132 519.758 284.572C518.942 286.012 517.814 287.14 516.374 287.956C514.958 288.772 513.35 289.18 511.55 289.18ZM501.794 295.984V270.1H504.242V275.788L503.99 279.568L504.35 283.384V295.984H501.794ZM511.37 286.912C512.714 286.912 513.914 286.612 514.97 286.012C516.026 285.388 516.866 284.524 517.49 283.42C518.114 282.292 518.426 280.996 518.426 279.532C518.426 278.068 518.114 276.784 517.49 275.68C516.866 274.576 516.026 273.712 514.97 273.088C513.914 272.464 512.714 272.152 511.37 272.152C510.026 272.152 508.814 272.464 507.734 273.088C506.678 273.712 505.838 274.576 505.214 275.68C504.614 276.784 504.314 278.068 504.314 279.532C504.314 280.996 504.614 282.292 505.214 283.42C505.838 284.524 506.678 285.388 507.734 286.012C508.814 286.612 510.026 286.912 511.37 286.912Z" fill="white"/>
<path d="M487.23 269.92C488.766 269.92 490.098 270.22 491.226 270.82C492.378 271.396 493.266 272.284 493.89 273.484C494.538 274.684 494.862 276.196 494.862 278.02V289H492.306V278.272C492.306 276.28 491.826 274.78 490.866 273.772C489.93 272.74 488.598 272.224 486.87 272.224C485.574 272.224 484.446 272.5 483.486 273.052C482.55 273.58 481.818 274.36 481.29 275.392C480.786 276.4 480.534 277.624 480.534 279.064V289H477.978V278.272C477.978 276.28 477.498 274.78 476.538 273.772C475.578 272.74 474.234 272.224 472.506 272.224C471.234 272.224 470.118 272.5 469.158 273.052C468.198 273.58 467.454 274.36 466.926 275.392C466.422 276.4 466.17 277.624 466.17 279.064V289H463.614V270.1H466.062V275.212L465.666 274.312C466.242 272.944 467.166 271.876 468.438 271.108C469.734 270.316 471.258 269.92 473.01 269.92C474.858 269.92 476.43 270.388 477.726 271.324C479.022 272.236 479.862 273.616 480.246 275.464L479.238 275.068C479.79 273.532 480.762 272.296 482.154 271.36C483.57 270.4 485.262 269.92 487.23 269.92Z" fill="white"/>
<path d="M453.946 289V270.1H456.502V289H453.946ZM455.242 265.924C454.714 265.924 454.27 265.744 453.91 265.384C453.55 265.024 453.37 264.592 453.37 264.088C453.37 263.584 453.55 263.164 453.91 262.828C454.27 262.468 454.714 262.288 455.242 262.288C455.77 262.288 456.214 262.456 456.574 262.792C456.934 263.128 457.114 263.548 457.114 264.052C457.114 264.58 456.934 265.024 456.574 265.384C456.238 265.744 455.794 265.924 455.242 265.924Z" fill="white"/>
<path d="M441.444 289.18C439.884 289.18 438.408 288.964 437.016 288.532C435.624 288.076 434.532 287.512 433.74 286.84L434.892 284.824C435.66 285.4 436.644 285.904 437.844 286.336C439.044 286.744 440.304 286.948 441.624 286.948C443.424 286.948 444.72 286.672 445.512 286.12C446.304 285.544 446.7 284.788 446.7 283.852C446.7 283.156 446.472 282.616 446.016 282.232C445.584 281.824 445.008 281.524 444.288 281.332C443.568 281.116 442.764 280.936 441.876 280.792C440.988 280.648 440.1 280.48 439.212 280.288C438.348 280.096 437.556 279.82 436.836 279.46C436.116 279.076 435.528 278.56 435.072 277.912C434.64 277.264 434.424 276.4 434.424 275.32C434.424 274.288 434.712 273.364 435.288 272.548C435.864 271.732 436.704 271.096 437.808 270.64C438.936 270.16 440.304 269.92 441.912 269.92C443.136 269.92 444.36 270.088 445.584 270.424C446.808 270.736 447.816 271.156 448.608 271.684L447.492 273.736C446.652 273.16 445.752 272.752 444.792 272.512C443.832 272.248 442.872 272.116 441.912 272.116C440.208 272.116 438.948 272.416 438.132 273.016C437.34 273.592 436.944 274.336 436.944 275.248C436.944 275.968 437.16 276.532 437.592 276.94C438.048 277.348 438.636 277.672 439.356 277.912C440.1 278.128 440.904 278.308 441.768 278.452C442.656 278.596 443.532 278.776 444.396 278.992C445.284 279.184 446.088 279.46 446.808 279.82C447.552 280.156 448.14 280.648 448.572 281.296C449.028 281.92 449.256 282.748 449.256 283.78C449.256 284.884 448.944 285.844 448.32 286.66C447.72 287.452 446.832 288.076 445.656 288.532C444.504 288.964 443.1 289.18 441.444 289.18Z" fill="white"/>
<path d="M397.65 289L409.17 263.8H411.798L423.318 289H420.51L409.926 265.348H411.006L400.422 289H397.65ZM402.186 282.268L402.978 280.108H417.63L418.422 282.268H402.186Z" fill="white"/>
<defs>
<linearGradient id="paint0_linear_325_987" x1="192.14" y1="192.283" x2="326.337" y2="193.443" gradientUnits="userSpaceOnUse">
<stop stop-color="#C64C58"/>
<stop offset="1" stop-color="#445879"/>
</linearGradient>
<linearGradient id="paint1_linear_325_987" x1="111.762" y1="149.31" x2="204.771" y2="243.948" gradientUnits="userSpaceOnUse">
<stop stop-color="#445879"/>
<stop offset="1" stop-color="#C64C58"/>
</linearGradient>
</defs>
</svg>
